<?xml version="1.0" encoding="utf-8"?>
<!-- Generator: Adobe Illustrator 28.2.0, SVG Export Plug-In . SVG Version: 6.00 Build 0)  -->
<svg version="1.1" id="Capa_1" xmlns="http://www.w3.org/2000/svg" xmlns:xlink="http://www.w3.org/1999/xlink" x="0px" y="0px"
	 viewBox="0 0 44.92 82.4" style="enable-background:new 0 0 44.92 82.4;" xml:space="preserve">
<g>
	<path d="M4.35,42.94c-2.45,4.36-5.6,6.9-3.83,11.71c1.67,4.55,8.44,3.59,8.25-4.32c-0.11-4.45,0.52-24.17,4.04-25.82
		c2.52-1.19,4.6,1.31,2.77,7.29c-1.76,5.74-2.46,12.07-2.41,18.88c0.19,3.53-0.07,8.86-0.78,16c-0.03,0.34-0.08,0.67-0.14,1.01
		c-0.56,2.96,0.17,5.45,2.19,7.46c1.14,1.13,2.57,1.94,4.16,2.21c1.54,0.26,2.89-0.01,4.06-0.8c1-0.68,1.74-1.7,2.12-2.85
		c0.72-2.16,0.03-4.22-2.05-6.15c-0.23-0.21-0.47-0.4-0.71-0.59c-7.62-5.85-5.83-18.48-2.99-26.4c0.34-0.95,0.75-1.83,1.34-2.58
		c4.66-6.01,3.27,17.22,3.17,18.53c-0.52,6.76,2.84,11.1,5.98,9.43c1.06-0.56,1.72-1.66,1.85-2.85c0.12-1.03-0.02-2.14-0.4-3.35
		c-1.03-3.26-1.91-4.13-2.49-7.98c-1.06-6.97-0.21-16.86,2.66-16.8c3.89,0.08,5.92,20.6,3.59,31.61c-0.98,4.65-7.72,7.9-6.51,12.55
		c1.77,6.79,16.75,4.57,11.43-21.48c-1.97-14.4,10.68-25.77,2.5-39.92C37.98,10.52,32.96,0.26,24.6,0
		C17.15-0.22,8.53,11.96,5.11,18.48c-1.45,2.77-2.29,5.94-2.3,9.4c0,2.65,0.57,4.77,1.63,6.36c1.82,2.91,1.92,5.59,0.31,8.04
		C4.61,42.5,4.47,42.71,4.35,42.94z"/>
</g>
<g>
	<path d="M7.6,64.69c0-1.83-1.42-3.31-3.17-3.31c-1.75,0-3.17,1.48-3.17,3.31c0,1.83,1.42,3.31,3.17,3.31
		C6.18,68,7.6,66.52,7.6,64.69z"/>
</g>
<g>
	<path d="M2.55,74.02c0,1.08,0.84,1.96,1.88,1.96c1.04,0,1.88-0.88,1.88-1.96s-0.84-1.96-1.88-1.96
		C3.39,72.06,2.55,72.94,2.55,74.02z"/>
</g>
</svg>
