<?xml version="1.0" encoding="utf-8"?>
<!-- Generator: Adobe Illustrator 28.2.0, SVG Export Plug-In . SVG Version: 6.00 Build 0)  -->
<svg version="1.1" id="Capa_1" xmlns="http://www.w3.org/2000/svg" xmlns:xlink="http://www.w3.org/1999/xlink" x="0px" y="0px"
	 viewBox="0 0 107.55 98.03" style="enable-background:new 0 0 107.55 98.03;" xml:space="preserve">
<g>
	<g>
		<path d="M28.62,18.85c0.05-0.33,0.08-0.82-0.06-1.48c-0.03-0.13,0.1-0.22,0.22-0.16c0.27,0.14,0.65,0.3,1.1,0.36
			c0.52,0.07,1.06,0.03,1.48-0.2c0.02-0.05,3.18-1.74,4.71-2.98c0.57-0.49,0.56-0.89,0.4-1.21c-0.4-0.82-1.52-0.9-2.78-3.26
			c-0.87-1.61-0.74-3.72,0.29-4.15c0.57-0.24,1.07,0.83,2.08,3.09c1.08,2.44,0.42,3.31,0.82,4.13c0.16,0.33,0.58,0.76,1.25,0.48
			c0.85-0.35,1.7-0.66,2.57-0.95c0.7-0.23,0.7-0.81,0.59-1.16c-0.28-0.87-1.39-1.09-2.31-3.58c-0.64-1.7-0.23-3.77,0.85-4.07
			c0.59-0.16,0.94,0.95,1.46,2.69c0.28,0.96,0.57,1.92,0.85,2.88c0.59,1.97,1.41,2.73,2.79,2.43c0.08-0.02,0.35-0.12,0.52-0.19
			c0.31-0.12,0.7-0.49,1.2-0.61c0.37-0.1,0.64,0,0.98,0.07c0.86,0.18,1.93,0.2,2.66-0.07c0.26-0.1,1.03-0.46,1.74-1.8
			c0.06-0.12,0.22-0.1,0.27,0.02c0.11,0.31,0.33,0.73,0.72,1.03c0.28,0.22,0.63,0.35,1.08,0.36c0.11,0,0.22,0,0.33-0.01
			c0.01,0,0.01,0,0.02,0c0.12,0.01,0.24,0.01,0.36,0.02c0.61,0.03,1.23,0.07,1.84,0.1c0.12,0.01,0.24,0.01,0.36,0.01
			c0.89,0.08,1.77,0.18,2.65,0.31c0.73,0.11,1.02-0.4,1.09-0.76c0.18-0.89-0.68-1.58-0.26-4.19c0.28-1.79,1.63-3.29,2.7-3.08
			c1.2,0.25,0.03,2.62,1.75,3.02c0.81,0.2,1.45-0.35,1.75-1.31c0.35-1.09-0.11-2.87-2.1-3.31c-1.14-0.25-2.39,0.14-3.36,0.92
			c-0.11,0.09-0.27,0.03-0.3-0.1c-0.16-1.02-0.83-1.59-2.12-1.72c-1.1-0.11-2.42,0.21-2.47,1.05c-0.06,1,0.64,1.7,1.03,4.17
			c0.43,2.98-1.42,2.96-1.47,2.94c-1.59-0.01-0.94-1.42-0.86-3.05c0.02-0.49,0.04-0.97,0.07-1.46c0.16-2.85-1.6-4-4.91-3.83
			C46.62,0.48,45.77,2.11,46,3.39c0.16,0.99,0.73,1.61,1.56,1.52c1.88-0.19,0.81-3.2,2.76-3.33c0.01,0,0.01,0,0.02,0
			c1.05-0.05,1.59,1.51-0.26,2.73c-1.98,1.3-5.09,1.28-3.78,4.21c0.36,0.86-1.61,2.37-1.74-1.46c-0.01-0.35-0.08-0.92-0.15-1.26
			c-0.06-0.29-0.13-0.59-0.19-0.88c-0.59-2.81-2-3.58-3.69-3.15c-1.34,0.34-2.34,1.35-2.81,2.59c-0.05,0.12-0.22,0.15-0.31,0.05
			c-0.85-0.97-1.91-1.09-3.01-0.66c-0.59,0.23-1.1,0.61-1.5,1.07c-0.43,0.49-0.57,1.04-0.86,1.58c-0.18,0.34-0.31,0.24-0.55-0.03
			c-0.35-0.37-0.43-0.5-0.59-0.63c0,0-0.23-0.2-0.49-0.31c-0.91-0.38-2.36,0.88-2.49,1.02c-0.58,0.55-1.04,1-1.02,1.55
			c0.02,0.75,0.88,1.06,2.54,2.19c3.46,2.44,3.38,3.35,3.45,3.58c0.11,0.65-0.23,1.02-0.62,1.39c-1.06,1.02-2.93-1.62-3.49-2.41
			c-0.29-0.4-0.57-0.81-0.86-1.21c-1.64-2.38-3.78-2.28-6.32-0.15c-2.74,2.38-2.39,4.24-1.41,5.13c0.75,0.69,1.59,0.84,2.18,0.25
			c1.38-1.32-1.36-3.07,0.12-4.36c0.01,0,0.01-0.01,0.02-0.01c0.81-0.67,2.21,0.25,1.5,2.34c-0.76,2.23-2.96,4.09-0.65,6.13
			c0.43,0.38,0.93,0.57,1.47,0.62c0.81,0.07,1.61,0.1,2.28-0.22C28.04,20.8,28.44,19.9,28.62,18.85z M29.83,37.39 M25.81,14.06
			c1.15,1.43,2.01,3.95,1.08,4.79c-0.4,0.36-1.03,0.23-1.48-0.24c-0.87-0.89-0.56-2.06-0.22-3.25c0.11-0.4,0.25-0.8,0.33-1.23
			C25.54,13.99,25.72,13.94,25.81,14.06C25.81,14.06,25.81,14.06,25.81,14.06z M51.93,4.86c0.03,1.81-0.83,4.3-2.08,4.4
			c-0.53,0.04-0.95-0.44-1.02-1.08c-0.14-1.22,0.81-1.94,1.81-2.67c0.33-0.25,0.69-0.47,1.01-0.77C51.75,4.64,51.92,4.71,51.93,4.86
			C51.93,4.86,51.93,4.86,51.93,4.86z"/>
		<g>
			<path d="M89.38,23.76c0.02-0.03,0.03-0.05,0.05-0.08c1.08,0.21,2.18,0.47,3.27,0.78c1.54,0.48,2.45-0.92,1.54-2.46
				c-0.59-0.98-1.31-1.2-2.01-0.73c-0.8,0.55-0.9,1.35-2.2,1.14c0.28-0.59,0.56-1.19,0.82-1.8c0.59-1.38,0.47-2.91-0.58-4.15
				c-0.72-0.85-1.76-1.27-2.37-0.69c-0.95,0.98,0.59,5.51-1.54,5.1c-1.16-0.21-2.35-0.67-3.45-0.99c-0.02-0.02-1.2-0.22-2.6-1.28
				c-0.88-0.66-0.69-1.52-0.36-1.92c1.27-1.54,4.52,1.69,6.7-0.28c1.23-1.12,0.63-3.38-1.43-5.11c0,0,0,0,0,0
				c-0.4-0.33-0.69-0.77-0.81-1.25c-0.12-0.46-0.16-0.94-0.14-1.41c0.03-0.48,0.32-0.99,0.45-1.47c0.01-0.04,0.02-0.08,0.03-0.13
				c0.09-0.42,0.03-0.82-0.45-1.16c0.2-0.41-10.75-6.16-10.94-5.76c-0.66-0.25-1.03-0.08-1.26,0.24c-0.67,1.01-1.33,2.03-1.97,3.05
				c-0.3,0.49-0.05,0.88,0.32,1.01c0.42,0.15,0.69-0.07,1.03-0.33c1.59-1.15,3.01-1.96,4.06-1.49c0.54,0.24,0.96,0.58,0.42,1.62
				c-0.97,1.88-1.95,3.77-2.92,5.65c-1.24,2.36-2.36,2.45-2.76,3.27c-0.16,0.33-0.23,0.91,0.43,1.22c0.86,0.41,1.71,0.86,2.54,1.33
				c0.63,0.37,1.1,0,1.31-0.31c0.51-0.76-0.03-1.72,1.37-4.01c1.12-1.81,2.24-3.61,3.35-5.42c0.62-1,1.14-0.84,1.65-0.53
				c0.69,0.42,0.93,1.34,0.96,2.52c0.01,0.25-0.04,0.49-0.14,0.71c-0.28,0.58-0.74,1.06-1.31,1.38c-0.04,0.02-0.08,0.04-0.12,0.07
				c-1.06,0.36-2,1.13-2.77,2.26c-1.83,2.78-1.52,5.38,0.54,7.11c0.72,0.61,2.09,0.34,2.96,1.87c0.25,0.44,0.19,1.04,0.46,1.45
				c0.45,0.7,1.28,1.25,2.18,0.54c0.76-0.6,1.01-1.34,2.83-1.26c0.05,0,0.1,0,0.15,0c-0.37,0.81-0.77,1.61-1.18,2.39
				c-0.65,1.23-0.85,2.42-0.19,3.53c0.45,0.76,1.24,1.28,1.98,0.87C88.46,28.23,88.21,26.09,89.38,23.76z M79.66,15.32
				c0.22-0.63,0.58-1.3,1.11-1.97c1.19-1.52,2.38-2.02,3.31-1.25c0.78,0.65,0.49,1.53,0.05,2C82.91,15.43,81.35,14.55,79.66,15.32z"
				/>
			<path d="M101.65,33.27c0.34,1.3,1.36,2.21,2.35,1.98c0.99-0.23,1.55-1.62,1.19-3.03c-0.36-1.42-1.49-2.24-2.45-1.89
				C101.77,30.66,101.31,31.96,101.65,33.27z"/>
			<path d="M89.87,46.85c0.42-0.51,1.14-1.29,1.78-1.79c0.78-0.59,1.7-1.11,3.66-1.11c2.3-0.01,4.65,0.8,6.95,1.41
				c1.14,0.29,2.33,0.23,3.38-0.49c0.69-0.48,1.38-1.23,1.72-2.39c0.07-0.24,0.27-1.01,0.16-2c-0.16-1.58-1.04-3.25-2.12-3.02
				c-1.21,0.25-1.53,3.03-4.79,3.47c-2.2,0.08-4.39,0.19-6.58,0.33c-1.44,0.23-2.72,1.08-3.77,1.92c-0.23,0.2-0.51,0.24-0.68,0.12
				c-0.19-0.13-0.21-0.39-0.22-0.51c-0.03-0.49,0.29-0.86,0.38-0.95c0.49-0.47,1.07-0.98,1.75-1.48c1.1-0.82,2.65-1.83,4.53-2.37
				c0.76-0.17,1.52-0.35,2.28-0.52c2-0.44,2.81-1.55,2.27-3.71c-0.32-1.28-1.15-2.59-1.95-2.29c-0.94,0.35-1.04,2.09-3.45,2.85
				c-0.48,0.15-1.37,0.3-1.56,0.32c-1.07,0.08-1.6,0.05-2.23-0.2c-0.54-0.25-1.14-0.77-1.36-1.34c-0.11-0.29-0.12-0.59,0.03-0.9
				c0.45-0.91,1.93-1.35,2.76-1.71c1.03-0.45,2.06-0.9,3.09-1.35c0.18,0.46,0.36,0.93,0.52,1.4c0.15,0.42,0.52,0.63,0.87,0.5
				c0.36-0.13,0.51-0.56,0.36-0.99c-0.17-0.49-0.35-0.96-0.54-1.44c0.34-0.15,0.68-0.3,1.01-0.44c0.5-0.22,1.23-0.45,0.94-1.15
				c-0.17-0.42-1.34-1.35-2.2-1.97c-1.01-0.73-2.65,0.87-4.52,1.85c0,0-1.51,0.81-1.51,0.81c-1.18,0.63-2.76,1.42-3.38,2.68
				c-0.27,0.56-0.27,1.14-0.11,1.69c0.24,0.8,0.74,1.71,1.24,2.39c0.57,0.77,1.37,1.2,1.58,2.21c0.04,0.17,0.26,0.89-0.3,1.82
				c-0.28,0.46-0.6,0.76-0.87,1.14c-0.3,0.42-0.6,0.84-0.89,1.26c-0.05,0.07-0.09,0.13-0.14,0.2c-0.8,1.15-1.5,2.23-1.77,3.58
				c-0.13,0.61-0.11,1.27,0.16,1.85C87.02,47.92,88.89,48.05,89.87,46.85z"/>
		</g>
		<path d="M18.06,21.19c1.45,1.39,2.42,2.26,4.28,2.93c0.3,0.1,1.29,0.38,1.47,0.42c0.28,0.05,0.51,0.21,0.57,0.41
			c0.07,0.21-0.07,0.37-0.14,0.45c-0.29,0.3-2.2,0.86-4.69-0.5c-0.59-0.33-1.16-0.69-1.73-1.07C17.41,23.56,17,23.28,16.59,23
			c-2.39-1.63-4.34-0.68-5.9,2.53c-1.65,3.56-0.63,5.32,0.6,5.77c0.95,0.36,1.77,0.13,2.1-0.74c0.78-1.93-2.39-2.48-1.51-4.41
			c0-0.01,0.01-0.01,0.01-0.02c0.5-1.01,2.13-0.71,2.24,1.68c0.1,2.08-0.77,4.35,0.47,5.7c0.01,0.01,0.02,0.03,0.03,0.04
			c0.03,0.06,0.08,0.13,0.13,0.18c0.58,0.63,0.99,1.42,1.18,2.26c0.03,0.13,0.05,0.25,0.08,0.38c0.09,0.61,0.13,1.33-0.05,2.21
			c-0.7,3.62-4.35,4.78-6.84,4.56C6.28,42.88,4.66,41.33,5,39.01c0.62-3.73,4.38-2.19,4.98-4.72c0.3-1.12-0.31-2.21-1.34-2.59
			c-1.67-0.63-4.11,1.18-4.96,6.17c-0.91,5.8,1.9,9.95,6.58,9.79c4.73-0.11,7.25-3.03,7.88-6.95c0.26-1.61,0.1-2.94-0.26-4
			c-0.45-1.56-0.51-2.34,0.09-2.55c1.81-0.68,2.79-3.01,1.42-5.5c-0.06-0.1-0.25-0.39-0.14-0.49c0.08-0.08,0.29-0.1,0.31-0.11
			c0.5-0.07,1.5-0.27,2.38-0.37c0.91-0.09,0.86-0.09,2.48-0.2c0.16-0.01,0.61-0.09,0.62-0.09c0.97-0.13,1.84-0.43,2.61-0.89
			c0.44-0.26,0.79-0.65,0.89-1.16c0.26-1.24-1.06-2.62-2.42-2.64c-0.58-0.01-1.54-0.07-2.28-0.24c-0.91-0.21-1.87-0.56-3.32-1.92
			c-2.03-1.92-2.05-2.98-3.82-5.14c0,0-0.43-0.46-0.82-0.87c-0.7-0.74-1.53-1.36-2.52-1.68c-0.77-0.24-1.68-0.33-2.58,0.1
			c-0.19,0.09-0.77,0.4-1.26,1.05c-0.79,1.04-1.15,2.68-0.22,3.3c1.05,0.69,2.91-1.03,5.55,1.02c0.81,0.67,1.65,1.4,2.51,2.2
			 M15.58,26.36c1.59,0.92,3.31,3.03,2.76,4.28c-0.24,0.53-0.86,0.68-1.46,0.41c-1.13-0.51-1.28-1.81-1.4-3.14
			c-0.05-0.45-0.06-0.9-0.15-1.36C15.29,26.41,15.45,26.28,15.58,26.36C15.58,26.36,15.58,26.36,15.58,26.36z"/>
	</g>
	<g>
		<path d="M78.93,79.18c-0.05,0.33-0.08,0.82,0.06,1.48c0.03,0.13-0.1,0.22-0.22,0.16c-0.27-0.14-0.65-0.3-1.1-0.36
			c-0.52-0.07-1.06-0.03-1.48,0.2c-0.02,0.05-3.18,1.74-4.71,2.98c-0.57,0.49-0.56,0.89-0.4,1.21c0.4,0.82,1.52,0.9,2.78,3.26
			c0.87,1.61,0.74,3.72-0.29,4.15c-0.57,0.24-1.07-0.83-2.08-3.09c-1.08-2.44-0.42-3.31-0.82-4.13c-0.16-0.33-0.58-0.76-1.25-0.48
			c-0.85,0.35-1.7,0.66-2.57,0.95c-0.7,0.23-0.7,0.81-0.59,1.16c0.28,0.86,1.39,1.09,2.31,3.58c0.64,1.7,0.23,3.77-0.85,4.07
			c-0.59,0.17-0.94-0.95-1.46-2.69c-0.28-0.96-0.57-1.92-0.85-2.88c-0.59-1.97-1.41-2.73-2.79-2.43c-0.08,0.02-0.35,0.12-0.52,0.19
			c-0.31,0.12-0.7,0.49-1.2,0.61c-0.37,0.1-0.64,0-0.98-0.07c-0.86-0.18-1.93-0.2-2.66,0.07c-0.26,0.1-1.03,0.46-1.74,1.8
			c-0.06,0.12-0.22,0.1-0.27-0.02c-0.11-0.31-0.33-0.73-0.72-1.03c-0.28-0.22-0.63-0.35-1.08-0.36c-0.11,0-0.22,0-0.33,0.01
			c-0.01,0-0.01,0-0.02,0c-0.12-0.01-0.24-0.01-0.36-0.02c-0.61-0.03-1.23-0.07-1.84-0.1c-0.12-0.01-0.24-0.01-0.36-0.01
			c-0.89-0.08-1.77-0.18-2.65-0.31c-0.73-0.11-1.02,0.4-1.09,0.76c-0.18,0.89,0.68,1.58,0.26,4.19c-0.28,1.79-1.63,3.29-2.7,3.08
			c-1.2-0.25-0.03-2.62-1.75-3.02c-0.81-0.2-1.45,0.35-1.75,1.31c-0.35,1.09,0.11,2.87,2.1,3.31c1.14,0.25,2.39-0.14,3.36-0.92
			c0.11-0.09,0.27-0.03,0.3,0.1c0.16,1.02,0.83,1.59,2.12,1.72c1.1,0.11,2.42-0.21,2.47-1.05c0.06-1-0.64-1.7-1.03-4.17
			c-0.43-2.98,1.42-2.96,1.47-2.94c1.59,0.01,0.94,1.42,0.86,3.05c-0.02,0.49-0.04,0.97-0.07,1.46c-0.16,2.85,1.6,4,4.91,3.83
			c3.61-0.23,4.46-1.86,4.23-3.14c-0.16-0.99-0.73-1.61-1.56-1.52c-1.88,0.19-0.81,3.2-2.76,3.33c-0.01,0-0.01,0-0.02,0
			c-1.05,0.05-1.59-1.51,0.26-2.73c1.98-1.3,5.09-1.28,3.78-4.21c-0.36-0.86,1.61-2.37,1.74,1.46c0.01,0.35,0.08,0.92,0.15,1.26
			c0.06,0.29,0.13,0.59,0.19,0.88c0.59,2.81,2,3.58,3.69,3.15c1.34-0.34,2.34-1.35,2.81-2.59c0.05-0.12,0.22-0.15,0.31-0.05
			c0.85,0.97,1.91,1.09,3.01,0.66c0.59-0.23,1.1-0.61,1.5-1.07c0.43-0.49,0.57-1.04,0.86-1.58c0.18-0.34,0.31-0.24,0.55,0.03
			c0.35,0.37,0.43,0.5,0.59,0.63c0,0,0.23,0.2,0.49,0.31c0.91,0.38,2.36-0.88,2.49-1.02c0.58-0.55,1.04-1,1.02-1.55
			c-0.02-0.75-0.89-1.06-2.54-2.19c-3.46-2.44-3.38-3.35-3.45-3.58c-0.11-0.65,0.23-1.02,0.62-1.39c1.06-1.02,2.93,1.62,3.49,2.41
			c0.29,0.4,0.57,0.81,0.86,1.21c1.64,2.38,3.78,2.28,6.32,0.15c2.74-2.38,2.39-4.24,1.41-5.13c-0.75-0.7-1.59-0.84-2.18-0.25
			c-1.38,1.32,1.36,3.07-0.12,4.36c-0.01,0-0.01,0.01-0.02,0.01c-0.81,0.67-2.21-0.25-1.5-2.34c0.76-2.23,2.96-4.09,0.65-6.13
			c-0.43-0.38-0.93-0.57-1.47-0.62c-0.81-0.07-1.61-0.1-2.28,0.22C79.51,77.23,79.11,78.13,78.93,79.18z M77.72,60.63 M81.74,83.97
			c-1.15-1.43-2.01-3.95-1.08-4.79c0.4-0.36,1.03-0.23,1.48,0.24c0.87,0.89,0.56,2.06,0.22,3.25c-0.11,0.4-0.25,0.8-0.33,1.23
			C82.01,84.04,81.83,84.09,81.74,83.97C81.74,83.97,81.74,83.97,81.74,83.97z M55.62,93.17c-0.03-1.81,0.83-4.3,2.08-4.4
			c0.53-0.04,0.95,0.44,1.02,1.08c0.14,1.22-0.81,1.94-1.81,2.67c-0.33,0.25-0.69,0.47-1.01,0.77
			C55.8,93.39,55.63,93.31,55.62,93.17C55.62,93.17,55.62,93.17,55.62,93.17z"/>
		<g>
			<path d="M18.17,74.27c-0.02,0.03-0.03,0.05-0.05,0.08c-1.08-0.21-2.18-0.47-3.27-0.78c-1.54-0.48-2.45,0.92-1.54,2.46
				c0.59,0.98,1.31,1.2,2.01,0.73c0.8-0.55,0.9-1.35,2.2-1.14c-0.28,0.59-0.56,1.19-0.82,1.8c-0.59,1.38-0.47,2.91,0.58,4.15
				c0.72,0.85,1.76,1.27,2.37,0.69c0.95-0.98-0.59-5.51,1.54-5.1c1.16,0.21,2.35,0.67,3.45,0.99c0.02,0.02,1.2,0.22,2.6,1.28
				c0.88,0.66,0.69,1.52,0.36,1.92c-1.27,1.54-4.52-1.69-6.7,0.28c-1.23,1.12-0.63,3.38,1.43,5.11c0,0,0,0,0,0
				c0.4,0.33,0.69,0.77,0.81,1.25c0.12,0.46,0.16,0.94,0.14,1.41c-0.03,0.48-0.32,0.99-0.45,1.47c-0.01,0.04-0.02,0.08-0.03,0.13
				c-0.09,0.42-0.03,0.82,0.45,1.16c-0.2,0.41,10.75,6.16,10.94,5.76c0.66,0.25,1.03,0.08,1.26-0.24c0.67-1.01,1.33-2.03,1.97-3.05
				c0.3-0.49,0.06-0.88-0.32-1.01c-0.42-0.15-0.69,0.07-1.03,0.33c-1.59,1.15-3.01,1.96-4.06,1.49c-0.54-0.24-0.96-0.58-0.42-1.62
				c0.97-1.88,1.95-3.77,2.92-5.65c1.24-2.36,2.36-2.45,2.76-3.27c0.16-0.33,0.23-0.91-0.43-1.22c-0.86-0.41-1.71-0.86-2.54-1.33
				c-0.63-0.37-1.1,0-1.31,0.31c-0.51,0.76,0.03,1.72-1.37,4.01c-1.12,1.81-2.24,3.61-3.35,5.42c-0.62,1-1.14,0.84-1.65,0.53
				c-0.69-0.42-0.93-1.34-0.96-2.52c-0.01-0.25,0.04-0.49,0.14-0.71c0.28-0.58,0.74-1.06,1.31-1.38c0.04-0.02,0.08-0.04,0.12-0.07
				c1.06-0.36,2-1.13,2.77-2.26c1.83-2.78,1.52-5.38-0.54-7.11c-0.72-0.61-2.09-0.34-2.96-1.87c-0.25-0.44-0.19-1.04-0.46-1.45
				c-0.44-0.7-1.29-1.25-2.18-0.54c-0.76,0.6-1.01,1.34-2.83,1.26c-0.05,0-0.1,0-0.15,0c0.37-0.81,0.77-1.61,1.18-2.39
				c0.65-1.23,0.85-2.42,0.19-3.53c-0.45-0.76-1.24-1.28-1.98-0.87C19.09,69.8,19.34,71.94,18.17,74.27z M27.89,82.71
				c-0.22,0.63-0.58,1.3-1.11,1.97c-1.19,1.52-2.38,2.02-3.31,1.25c-0.78-0.65-0.5-1.53-0.05-2C24.64,82.6,26.2,83.48,27.89,82.71z"
				/>
			<path d="M5.9,64.76c-0.34-1.3-1.36-2.21-2.35-1.98C2.57,63.02,2,64.4,2.37,65.82c0.36,1.42,1.49,2.24,2.45,1.89
				C5.78,67.37,6.24,66.07,5.9,64.76z"/>
			<path d="M17.68,51.18c-0.42,0.51-1.14,1.29-1.78,1.79c-0.78,0.59-1.7,1.11-3.66,1.11c-2.3,0.01-4.65-0.8-6.95-1.41
				c-1.14-0.29-2.33-0.23-3.38,0.49c-0.69,0.48-1.38,1.23-1.72,2.39c-0.07,0.24-0.27,1.01-0.16,2c0.16,1.58,1.04,3.25,2.12,3.02
				c1.21-0.25,1.53-3.03,4.79-3.47c2.2-0.08,4.39-0.19,6.58-0.33c1.44-0.23,2.72-1.08,3.77-1.92c0.23-0.2,0.51-0.24,0.68-0.12
				c0.19,0.13,0.21,0.39,0.22,0.51c0.03,0.49-0.29,0.86-0.38,0.95c-0.49,0.47-1.07,0.98-1.75,1.48c-1.1,0.82-2.65,1.83-4.53,2.37
				c-0.76,0.17-1.52,0.35-2.28,0.52c-2,0.44-2.81,1.55-2.27,3.71c0.32,1.28,1.15,2.59,1.95,2.29c0.94-0.35,1.04-2.09,3.45-2.85
				c0.48-0.15,1.37-0.3,1.56-0.32c1.07-0.08,1.6-0.05,2.23,0.2c0.54,0.25,1.14,0.77,1.36,1.34c0.11,0.29,0.12,0.59-0.03,0.9
				c-0.45,0.91-1.93,1.35-2.76,1.71c-1.03,0.45-2.06,0.9-3.09,1.35c-0.18-0.46-0.36-0.93-0.52-1.4c-0.15-0.42-0.52-0.63-0.87-0.5
				c-0.36,0.13-0.51,0.56-0.36,0.99c0.17,0.49,0.35,0.96,0.54,1.44c-0.34,0.15-0.68,0.3-1.01,0.44c-0.5,0.22-1.23,0.45-0.94,1.15
				c0.17,0.42,1.34,1.35,2.2,1.97c1.01,0.73,2.65-0.87,4.52-1.85c0,0,1.51-0.81,1.51-0.81c1.18-0.63,2.76-1.42,3.38-2.68
				c0.27-0.56,0.27-1.14,0.11-1.69c-0.24-0.8-0.74-1.71-1.24-2.39c-0.57-0.77-1.37-1.2-1.58-2.21c-0.04-0.17-0.26-0.89,0.3-1.82
				c0.28-0.46,0.6-0.76,0.87-1.14c0.3-0.42,0.6-0.84,0.89-1.26c0.05-0.07,0.09-0.13,0.14-0.2c0.8-1.15,1.5-2.24,1.77-3.58
				c0.13-0.61,0.11-1.27-0.16-1.85C20.53,50.11,18.66,49.98,17.68,51.18z"/>
		</g>
		<path d="M89.49,76.84c-1.45-1.39-2.42-2.26-4.28-2.93c-0.3-0.1-1.29-0.38-1.47-0.42c-0.28-0.05-0.51-0.21-0.57-0.41
			c-0.07-0.21,0.07-0.37,0.14-0.45c0.29-0.3,2.2-0.86,4.69,0.5c0.59,0.33,1.16,0.69,1.73,1.07c0.41,0.28,0.83,0.55,1.24,0.83
			c2.39,1.63,4.34,0.68,5.9-2.53c1.65-3.56,0.63-5.32-0.6-5.77c-0.95-0.36-1.77-0.13-2.1,0.74c-0.78,1.93,2.39,2.48,1.51,4.41
			c0,0.01-0.01,0.01-0.01,0.02c-0.5,1.01-2.13,0.71-2.24-1.68c-0.1-2.08,0.77-4.35-0.47-5.7c-0.01-0.01-0.02-0.03-0.03-0.04
			c-0.03-0.06-0.08-0.13-0.13-0.18c-0.58-0.63-0.99-1.42-1.18-2.26c-0.03-0.13-0.05-0.25-0.08-0.38c-0.09-0.61-0.13-1.33,0.05-2.21
			c0.7-3.62,4.35-4.78,6.84-4.56c2.85,0.26,4.47,1.81,4.14,4.13c-0.62,3.73-4.38,2.2-4.98,4.72c-0.3,1.12,0.31,2.21,1.34,2.59
			c1.67,0.63,4.11-1.18,4.96-6.17c0.91-5.8-1.9-9.95-6.58-9.79c-4.73,0.11-7.25,3.03-7.88,6.95c-0.26,1.61-0.1,2.94,0.26,4
			c0.45,1.56,0.51,2.34-0.09,2.55c-1.81,0.68-2.79,3.01-1.42,5.5c0.06,0.1,0.25,0.39,0.14,0.49c-0.08,0.08-0.29,0.1-0.31,0.11
			c-0.5,0.07-1.5,0.27-2.38,0.37c-0.91,0.09-0.86,0.09-2.48,0.2c-0.16,0.01-0.61,0.09-0.62,0.09c-0.97,0.13-1.84,0.43-2.61,0.89
			c-0.44,0.26-0.79,0.65-0.89,1.16c-0.26,1.24,1.06,2.62,2.42,2.64c0.58,0.01,1.54,0.07,2.28,0.24c0.91,0.21,1.87,0.56,3.32,1.92
			c2.03,1.92,2.05,2.98,3.82,5.14c0,0,0.43,0.46,0.82,0.87c0.7,0.74,1.53,1.36,2.52,1.68c0.77,0.24,1.68,0.33,2.58-0.1
			c0.19-0.09,0.77-0.4,1.26-1.05c0.79-1.04,1.15-2.68,0.22-3.3c-1.05-0.69-2.91,1.03-5.55-1.02c-0.81-0.67-1.65-1.4-2.51-2.2
			 M91.97,71.67c-1.59-0.92-3.31-3.03-2.76-4.28c0.24-0.53,0.86-0.68,1.46-0.41c1.13,0.51,1.28,1.81,1.4,3.14
			c0.05,0.45,0.06,0.9,0.15,1.36C92.26,71.62,92.1,71.74,91.97,71.67L91.97,71.67z"/>
	</g>
	<g>
		<path d="M41.28,51.04c-1.47,2.62-3.37,4.15-2.3,7.04c1.01,2.73,5.07,2.16,4.96-2.6c-0.06-2.68,0.12-15.11,2.43-15.53
			c1.68-0.2,2.23,1.26,1.66,4.38c-1,3.47-1.48,7.25-1.45,11.35c0.11,2.12-0.04,5.33-0.47,9.62c-0.02,0.2-0.05,0.41-0.09,0.61
			c-0.34,1.78,0.1,3.27,1.32,4.49c0.68,0.68,1.55,1.17,2.5,1.33c0.92,0.16,1.74,0,2.44-0.48c0.6-0.41,1.04-1.02,1.27-1.71
			c0.43-1.3,0.02-2.53-1.23-3.7c-0.14-0.13-0.28-0.24-0.43-0.35c-4.58-3.52-3.51-11.11-1.8-15.87c0.21-0.57,0.53-1.1,0.97-1.52
			c3.29-3.18,1.85,10.35,1.74,11.11c-0.57,4.04,1.71,6.68,3.6,5.67c0.64-0.34,1.03-1,1.11-1.71c0.07-0.62-0.01-1.29-0.24-2.01
			c-0.62-1.96-1.15-2.48-1.5-4.8c-0.64-4.19-0.13-10.14,1.6-10.1c2.34,0.05,3.56,12.39,2.16,19c-0.59,2.8-4.64,4.75-3.91,7.54
			c1.06,4.08,10.07,2.75,6.87-12.91c-1.19-8.66,6.42-15.49,1.5-24c-2.5-4.33-5.52-10.5-10.54-10.65
			c-4.48-0.14-9.66,7.19-11.72,11.11c-0.87,1.67-1.38,3.57-1.38,5.65c0,1.6,0.35,2.87,0.98,3.82c1.09,1.75,1.15,3.36,0.18,4.83
			C41.43,50.78,41.35,50.91,41.28,51.04z"/>
	</g>
	<g>
		<path d="M43.23,64.12c0-1.1-0.85-1.99-1.91-1.99c-1.05,0-1.91,0.89-1.91,1.99c0,1.1,0.85,1.99,1.91,1.99
			C42.38,66.11,43.23,65.22,43.23,64.12z"/>
	</g>
	<g>
		<path d="M40.19,69.73c0,0.65,0.51,1.18,1.13,1.18c0.62,0,1.13-0.53,1.13-1.18c0-0.65-0.51-1.18-1.13-1.18
			C40.7,68.55,40.19,69.08,40.19,69.73z"/>
	</g>
</g>
</svg>
