<?xml version="1.0" encoding="utf-8"?>
<!-- Generator: Adobe Illustrator 28.2.0, SVG Export Plug-In . SVG Version: 6.00 Build 0)  -->
<svg version="1.1" id="Capa_1" xmlns="http://www.w3.org/2000/svg" xmlns:xlink="http://www.w3.org/1999/xlink" x="0px" y="0px"
	 viewBox="0 0 389.88 389.39" style="enable-background:new 0 0 389.88 389.39;" xml:space="preserve">
<g>
	<g>
		<g>
			<path d="M144.37,201.36c-6.17,10.97-14.09,17.35-9.64,29.44c4.21,11.44,21.23,9.04,20.74-10.87
				c-0.27-11.2,0.52-63.21,10.15-64.95c7.02-0.82,9.34,5.29,6.96,18.33c-4.18,14.52-6.2,30.35-6.05,47.5
				c0.48,8.88-0.18,22.29-1.96,40.25c-0.08,0.85-0.2,1.7-0.36,2.53c-1.42,7.44,0.42,13.7,5.5,18.77c2.86,2.85,6.47,4.89,10.45,5.57
				c3.87,0.66,7.27-0.01,10.21-2.02c2.52-1.72,4.37-4.27,5.32-7.17c1.8-5.44,0.08-10.6-5.15-15.47c-0.57-0.53-1.18-1.01-1.79-1.48
				c-19.16-14.72-14.67-46.48-7.52-66.39c0.86-2.39,2.22-4.59,4.05-6.36c13.76-13.29,7.73,43.28,7.28,46.47
				c-2.38,16.89,7.14,27.93,15.05,23.72c2.66-1.42,4.31-4.17,4.65-7.17c0.29-2.58-0.04-5.39-1-8.42c-2.58-8.19-4.8-10.39-6.27-20.08
				c-2.66-17.52-0.53-42.4,6.7-42.26c9.77,0.2,14.88,51.81,9.03,79.5c-2.47,11.7-19.41,19.87-16.37,31.56
				c4.45,17.08,42.13,11.5,28.75-54.02c-4.96-36.22,26.85-64.82,6.29-100.41c-10.46-18.1-23.07-43.91-44.09-44.56
				c-18.75-0.57-40.43,30.07-49.03,46.48c-3.66,6.97-5.77,14.95-5.78,23.64c-0.01,6.68,1.45,12.01,4.09,16
				c4.57,7.32,4.83,14.06,0.77,20.22C145.01,200.25,144.68,200.8,144.37,201.36z"/>
		</g>
		<g>
			<path d="M153.42,255.32c0-4.59-3.57-8.32-7.98-8.32c-4.41,0-7.98,3.72-7.98,8.32c0,4.59,3.57,8.32,7.98,8.32
				C149.84,263.64,153.42,259.91,153.42,255.32z"/>
		</g>
		<g>
			<path d="M140.7,277.92c0,2.72,2.12,4.93,4.73,4.93c2.61,0,4.73-2.21,4.73-4.93c0-2.72-2.12-4.93-4.73-4.93
				C142.82,272.99,140.7,275.2,140.7,277.92z"/>
		</g>
	</g>
	<g>
		<path d="M38.03,144.04c-2.57,2.14-5.51,3.5-8.81,4.08c-3.3,0.58-6.57,0.27-9.83-0.91c-3.25-1.19-5.95-3.05-8.09-5.6
			c-2.14-2.55-3.5-5.46-4.08-8.75c-0.58-3.29-0.27-6.58,0.93-9.89c0.74-2.03,1.75-3.86,3.05-5.48c1.29-1.62,2.77-2.97,4.45-4.03
			c0.31-0.2,0.61-0.25,0.88-0.15c0.21,0.08,0.4,0.24,0.55,0.47l3.24,5.08c0.19,0.33,0.24,0.62,0.15,0.88
			c-0.07,0.19-0.22,0.38-0.45,0.55c-0.95,0.69-1.8,1.49-2.55,2.42c-0.75,0.92-1.33,1.93-1.72,3.02c-0.63,1.74-0.78,3.52-0.42,5.34
			c0.35,1.82,1.14,3.46,2.37,4.91c1.23,1.45,2.78,2.52,4.65,3.2c1.89,0.69,3.77,0.86,5.65,0.54c1.88-0.33,3.54-1.08,4.99-2.25
			c1.45-1.16,2.49-2.61,3.12-4.34c0.44-1.2,0.67-2.34,0.69-3.41c0.02-1.07-0.15-2.26-0.52-3.58c-0.06-0.28-0.06-0.52,0.01-0.71
			c0.11-0.29,0.34-0.5,0.69-0.61l5.74-1.72c0.33-0.08,0.59-0.09,0.78-0.02c0.23,0.09,0.39,0.28,0.5,0.6
			c0.62,1.94,0.91,3.95,0.87,6.04c-0.04,2.08-0.43,4.15-1.17,6.18C42.49,139.18,40.6,141.9,38.03,144.04z"/>
		<path d="M37.07,81.2l2.41-3.73c0.38-0.58,0.85-0.68,1.44-0.3l24.56,15.91c0.58,0.38,0.68,0.85,0.31,1.44l-2.5,3.86
			c-0.31,0.48-0.76,0.65-1.36,0.52l-2.03-0.7c0.78,3.23,0.22,6.3-1.67,9.22c-1.59,2.46-3.66,4.32-6.22,5.58
			c-2.55,1.26-5.27,1.81-8.14,1.64c-2.87-0.17-5.55-1.06-8.03-2.67c-2.48-1.61-4.38-3.69-5.69-6.24c-1.31-2.55-1.9-5.24-1.78-8.09
			c0.12-2.84,0.97-5.48,2.55-7.92c1.92-2.96,4.51-4.74,7.76-5.34l-1.56-1.75C36.77,82.17,36.75,81.69,37.07,81.2z M53.29,98.97
			c0.07-1.47-0.24-2.86-0.93-4.18c-0.7-1.31-1.73-2.42-3.11-3.32c-1.38-0.89-2.82-1.39-4.33-1.51c-1.51-0.11-2.92,0.16-4.25,0.8
			c-1.33,0.65-2.41,1.62-3.26,2.93c-0.85,1.31-1.29,2.69-1.33,4.15c-0.04,1.46,0.3,2.85,1.03,4.16s1.78,2.42,3.16,3.32
			c1.38,0.89,2.81,1.4,4.29,1.52c1.48,0.12,2.86-0.14,4.14-0.78c1.29-0.64,2.35-1.62,3.2-2.92
			C52.75,101.83,53.22,100.44,53.29,98.97z"/>
		<path d="M78.09,81.21l-3.97,4.25c-0.47,0.51-0.96,0.52-1.47,0.05L44.53,59.18c-0.5-0.47-0.52-0.96-0.05-1.47l3.97-4.25
			c0.47-0.51,0.96-0.52,1.47-0.05l28.12,26.32C78.54,80.21,78.56,80.7,78.09,81.21z"/>
		<path d="M86.49,33.27l3.56-2.66c0.55-0.42,1.04-0.34,1.45,0.21L109,54.29c0.41,0.55,0.34,1.04-0.21,1.45l-3.69,2.75
			c-0.46,0.34-0.94,0.34-1.45,0.01L102,57.15c-0.39,3.29-1.98,5.98-4.77,8.06c-2.35,1.75-4.94,2.77-7.77,3.08
			c-2.83,0.29-5.57-0.13-8.2-1.29c-2.64-1.16-4.84-2.92-6.61-5.3c-1.77-2.37-2.83-4.98-3.17-7.82c-0.34-2.85,0.04-5.58,1.14-8.2
			c1.1-2.62,2.82-4.81,5.15-6.55c2.83-2.11,5.87-2.88,9.13-2.31l-0.85-2.18C85.87,34.08,86.02,33.62,86.49,33.27z M95.53,55.57
			c0.58-1.35,0.77-2.76,0.58-4.24c-0.19-1.47-0.78-2.87-1.77-4.19c-0.98-1.32-2.16-2.29-3.54-2.92c-1.37-0.63-2.79-0.87-4.26-0.72
			c-1.47,0.14-2.83,0.68-4.07,1.62c-1.25,0.93-2.15,2.08-2.69,3.43c-0.54,1.36-0.7,2.78-0.48,4.26c0.22,1.49,0.82,2.89,1.81,4.21
			s2.15,2.29,3.49,2.92c1.34,0.63,2.73,0.86,4.15,0.71c1.43-0.16,2.77-0.7,4.02-1.64C94.03,58.07,94.95,56.92,95.53,55.57z"/>
		<path d="M146.81,6.48c2.01,0.41,3.82,1.44,5.42,3.09c1.61,1.65,2.92,3.87,3.93,6.67l5.81,16.07c0.24,0.65,0.03,1.09-0.62,1.33
			l-5.52,2c-0.65,0.24-1.09,0.03-1.33-0.63l-5.7-15.78c-0.7-1.95-1.73-3.33-3.09-4.12c-1.35-0.79-2.89-0.88-4.59-0.26
			c-1.08,0.39-1.95,1.02-2.62,1.89c-0.67,0.87-1.1,1.86-1.3,2.98c-0.19,1.12-0.13,2.23,0.19,3.33l5.8,16.05
			c0.24,0.65,0.03,1.09-0.63,1.33l-5.54,2c-0.65,0.24-1.1,0.03-1.33-0.63l-5.7-15.78c-0.7-1.95-1.73-3.33-3.08-4.12
			c-1.35-0.79-2.87-0.88-4.58-0.26c-1.13,0.41-2.03,1.08-2.71,2.01c-0.68,0.94-1.1,2-1.25,3.19c-0.15,1.19-0.02,2.35,0.39,3.49
			l5.62,15.56c0.24,0.65,0.03,1.1-0.63,1.33l-5.54,2c-0.65,0.24-1.1,0.03-1.33-0.63l-9.94-27.52c-0.24-0.65-0.03-1.1,0.62-1.33
			l4.27-1.54c0.57-0.21,1.03-0.08,1.38,0.39l1.16,1.52c0.75-1.43,1.76-2.69,3.02-3.77c1.26-1.08,2.68-1.91,4.28-2.49
			c1.97-0.71,3.86-0.94,5.68-0.68c1.81,0.26,3.47,0.99,4.98,2.19c0.61-1.93,1.62-3.62,3.04-5.07c1.42-1.44,3.13-2.52,5.11-3.24
			C142.69,6.25,144.8,6.06,146.81,6.48z"/>
		<path d="M193.73,0.25L198.16,0c0.69-0.04,1.06,0.29,1.1,0.98l1.63,29.22c0.04,0.69-0.29,1.06-0.98,1.1l-4.59,0.25
			c-0.57,0.04-0.98-0.23-1.21-0.79l-0.63-2.05c-2.15,2.53-4.96,3.89-8.43,4.09c-2.92,0.16-5.64-0.41-8.17-1.73
			c-2.53-1.31-4.57-3.18-6.13-5.6c-1.56-2.42-2.42-5.1-2.58-8.06c-0.17-2.95,0.4-5.71,1.68-8.27c1.29-2.56,3.11-4.63,5.48-6.21
			c2.37-1.58,5-2.45,7.91-2.62c3.52-0.2,6.49,0.84,8.89,3.12l0.5-2.29C192.76,0.58,193.14,0.28,193.73,0.25z M188.95,23.84
			c1.23-0.8,2.17-1.88,2.82-3.21c0.66-1.34,0.94-2.83,0.84-4.47c-0.09-1.64-0.54-3.1-1.34-4.38c-0.8-1.28-1.85-2.27-3.16-2.96
			c-1.31-0.69-2.73-0.99-4.29-0.91c-1.56,0.09-2.93,0.55-4.14,1.38c-1.2,0.83-2.12,1.93-2.76,3.29c-0.63,1.36-0.91,2.86-0.81,4.5
			s0.52,3.1,1.3,4.36c0.77,1.26,1.8,2.23,3.08,2.88c1.28,0.65,2.69,0.94,4.25,0.85C186.31,25.09,187.72,24.64,188.95,23.84z"/>
		<path d="M237.32,6.03c0.32,0.28,0.46,0.59,0.4,0.93c-0.03,0.17-0.11,0.35-0.24,0.54l-3.33,4.42c-0.27,0.34-0.56,0.49-0.89,0.44
			c-0.2-0.03-0.39-0.12-0.56-0.27c-1.19-0.91-2.36-1.45-3.53-1.63c-1.13-0.18-2.26-0.02-3.39,0.48c-1.13,0.5-2.11,1.33-2.95,2.5
			s-1.39,2.64-1.67,4.4l-2.32,14.67c-0.11,0.69-0.5,0.97-1.19,0.87l-5.82-0.92c-0.69-0.11-0.97-0.5-0.87-1.19l4.57-28.91
			c0.11-0.68,0.5-0.97,1.19-0.86l4.49,0.71c0.58,0.09,0.92,0.42,1.02,1l0.54,3.08c1.19-1.21,2.49-2.08,3.91-2.62s3-0.66,4.74-0.38
			C233.48,3.61,235.43,4.53,237.32,6.03z"/>
		<path d="M267.94,49.08l-5.72-2.74c-0.63-0.3-0.79-0.76-0.49-1.39l11.91-24.9l-8.22-3.94c-0.62-0.3-0.79-0.76-0.49-1.39l2.49-5.2
			c0.3-0.63,0.76-0.79,1.39-0.49l24.06,11.51c0.63,0.3,0.79,0.76,0.49,1.38l-2.49,5.2c-0.3,0.63-0.76,0.79-1.39,0.49l-8.25-3.94
			l-11.92,24.9C269.03,49.22,268.56,49.38,267.94,49.08z"/>
		<path d="M286.37,58.02c-1.11-2.64-1.49-5.37-1.13-8.21s1.41-5.43,3.16-7.8c1.76-2.38,3.91-4.19,6.45-5.42s5.2-1.74,7.96-1.54
			c2.76,0.21,5.32,1.18,7.67,2.92c2.55,1.88,4.35,4.08,5.4,6.6c1.06,2.52,1.35,5.14,0.88,7.86c-0.47,2.72-1.63,5.34-3.49,7.86
			c-0.33,0.45-0.71,0.92-1.14,1.42c-0.42,0.45-0.89,0.47-1.42,0.08l-17.34-12.8c-0.5,1.29-0.71,2.57-0.64,3.84s0.42,2.45,1.02,3.54
			c0.6,1.09,1.43,2.02,2.47,2.79c0.98,0.72,1.97,1.23,2.98,1.54c1.01,0.31,2.09,0.46,3.23,0.46c0.28-0.01,0.52,0.06,0.7,0.19
			c0.24,0.17,0.35,0.45,0.33,0.82l-0.11,4.82c-0.01,0.31-0.08,0.55-0.19,0.7c-0.18,0.24-0.44,0.35-0.78,0.36
			c-1.85,0.05-3.68-0.19-5.48-0.73c-1.8-0.55-3.53-1.43-5.17-2.64C289.27,62.89,287.48,60.66,286.37,58.02z M309.46,47.79
			c-0.4-1.64-1.34-3.01-2.85-4.12c-1.47-1.08-3.07-1.58-4.81-1.5c-1.75,0.08-3.38,0.75-4.92,2l11.98,8.83
			C309.65,51.16,309.85,49.43,309.46,47.79z"/>
		<path d="M313.06,82.35l-4.74-5.44c-0.18-0.21-0.28-0.41-0.3-0.6c-0.02-0.19,0.04-0.35,0.19-0.47c0.16-0.14,0.37-0.22,0.64-0.25
			l17.85-2.02L331,57.13c0.08-0.28,0.19-0.47,0.32-0.59c0.14-0.12,0.31-0.16,0.5-0.11c0.19,0.05,0.38,0.18,0.56,0.39l4.78,5.48
			c0.36,0.42,0.46,0.88,0.29,1.4l-3.32,9.82l10.17-1.98c0.27-0.06,0.51-0.05,0.73,0.02c0.21,0.07,0.41,0.22,0.6,0.44l4.81,5.52
			c0.18,0.21,0.28,0.41,0.3,0.6s-0.05,0.35-0.19,0.47c-0.16,0.14-0.36,0.22-0.61,0.25l-16.72,2.21l-4.6,17.24
			c-0.06,0.24-0.17,0.42-0.31,0.55c-0.14,0.13-0.31,0.17-0.5,0.13c-0.19-0.04-0.38-0.16-0.57-0.37l-4.74-5.44
			c-0.37-0.42-0.46-0.88-0.29-1.4l3.47-10.96l-11.27,2.01C313.86,82.91,313.41,82.75,313.06,82.35z"/>
		<path d="M335.34,112.09l-3.05-5.04c-0.36-0.59-0.24-1.07,0.35-1.43l19.62-11.87l-1.48-2.44c-0.36-0.59-0.24-1.07,0.35-1.43
			l4.53-2.74c0.59-0.36,1.07-0.24,1.43,0.35l1.45,2.4l4.8-2.9c0.55-0.33,1.03-0.27,1.46,0.21l4.07,4.52
			c0.05,0.05,0.1,0.12,0.16,0.21c0.14,0.24,0.18,0.47,0.11,0.69c-0.07,0.22-0.23,0.41-0.48,0.56l-5.96,3.6l2.68,4.42
			c0.36,0.59,0.24,1.07-0.35,1.42l-4.53,2.74c-0.59,0.36-1.07,0.24-1.43-0.35l-2.69-4.45l-19.62,11.88
			C336.17,112.8,335.69,112.68,335.34,112.09z"/>
		<path d="M344.81,130.83l-2.41-5.38c-0.28-0.63-0.11-1.09,0.52-1.37l26.72-11.95c0.63-0.28,1.09-0.11,1.37,0.52l2.41,5.38
			c0.28,0.63,0.11,1.09-0.52,1.37l-26.72,11.94C345.55,131.64,345.09,131.47,344.81,130.83z M374.96,109.7l4.93-2.21
			c0.63-0.28,1.09-0.11,1.37,0.52l2.45,5.48c0.28,0.63,0.11,1.09-0.52,1.37l-4.93,2.21c-0.63,0.28-1.09,0.11-1.37-0.52l-2.45-5.47
			C374.15,110.44,374.33,109.98,374.96,109.7z"/>
		<path d="M351.09,148.34l-1.75-5.55c-0.21-0.66,0.02-1.09,0.68-1.3l36.73-11.57c0.66-0.21,1.1,0.02,1.31,0.68l1.75,5.55
			c0.21,0.66-0.02,1.1-0.68,1.3l-36.74,11.57C351.73,149.23,351.3,149,351.09,148.34z"/>
	</g>
	<g>
		<path d="M351.85,245.29c2.57-2.14,5.51-3.5,8.81-4.08c3.29-0.58,6.57-0.28,9.82,0.91c3.25,1.18,5.95,3.05,8.1,5.59
			c2.14,2.55,3.5,5.46,4.09,8.75c0.58,3.29,0.27,6.58-0.93,9.89c-0.74,2.03-1.75,3.86-3.04,5.49c-1.29,1.62-2.77,2.97-4.45,4.03
			c-0.31,0.2-0.6,0.25-0.88,0.15c-0.22-0.08-0.4-0.23-0.55-0.47l-3.24-5.07c-0.19-0.33-0.24-0.62-0.15-0.88
			c0.07-0.19,0.22-0.38,0.45-0.55c0.95-0.69,1.8-1.49,2.55-2.42c0.75-0.93,1.32-1.93,1.72-3.02c0.63-1.74,0.78-3.52,0.42-5.35
			c-0.35-1.82-1.14-3.46-2.37-4.91c-1.23-1.45-2.78-2.52-4.66-3.2c-1.89-0.68-3.77-0.86-5.65-0.53c-1.88,0.33-3.54,1.08-4.99,2.25
			c-1.44,1.17-2.49,2.61-3.11,4.34c-0.44,1.2-0.67,2.34-0.69,3.41c-0.02,1.07,0.15,2.26,0.52,3.57c0.06,0.28,0.06,0.52-0.01,0.71
			c-0.11,0.29-0.34,0.5-0.69,0.61l-5.74,1.73c-0.32,0.08-0.58,0.09-0.78,0.02c-0.23-0.08-0.39-0.28-0.5-0.6
			c-0.62-1.94-0.91-3.95-0.87-6.04c0.04-2.08,0.43-4.15,1.17-6.18C347.4,250.14,349.28,247.43,351.85,245.29z"/>
		<path d="M352.84,308.12l-2.41,3.73c-0.38,0.58-0.86,0.69-1.44,0.31l-24.57-15.91c-0.58-0.38-0.68-0.85-0.31-1.44l2.5-3.86
			c0.31-0.48,0.76-0.65,1.35-0.52l2.03,0.69c-0.78-3.23-0.22-6.3,1.67-9.22c1.59-2.46,3.66-4.32,6.21-5.58
			c2.55-1.27,5.27-1.82,8.14-1.65c2.87,0.17,5.55,1.06,8.03,2.67c2.49,1.61,4.38,3.69,5.69,6.24c1.31,2.55,1.9,5.24,1.79,8.09
			c-0.12,2.84-0.97,5.48-2.55,7.92c-1.92,2.97-4.5,4.74-7.76,5.34l1.56,1.75C353.14,307.15,353.16,307.63,352.84,308.12z
			 M336.6,290.36c-0.08,1.47,0.24,2.86,0.93,4.17c0.7,1.32,1.73,2.42,3.11,3.32c1.38,0.89,2.82,1.39,4.33,1.5
			c1.51,0.11,2.92-0.16,4.25-0.81c1.33-0.65,2.41-1.62,3.26-2.93c0.85-1.31,1.29-2.69,1.33-4.15c0.04-1.46-0.31-2.85-1.03-4.16
			c-0.73-1.31-1.78-2.42-3.16-3.31c-1.38-0.89-2.81-1.4-4.29-1.52c-1.48-0.12-2.86,0.14-4.14,0.78c-1.28,0.64-2.35,1.62-3.2,2.93
			C337.14,287.5,336.68,288.89,336.6,290.36z"/>
		<path d="M311.82,308.13l3.98-4.25c0.47-0.51,0.96-0.52,1.47-0.05l28.13,26.31c0.5,0.47,0.52,0.96,0.05,1.47l-3.98,4.25
			c-0.47,0.5-0.96,0.52-1.47,0.05l-28.13-26.31C311.36,309.13,311.34,308.64,311.82,308.13z"/>
		<path d="M303.44,356.07l-3.56,2.66c-0.55,0.41-1.04,0.34-1.45-0.21l-17.51-23.45c-0.42-0.55-0.34-1.04,0.21-1.45l3.69-2.75
			c0.46-0.34,0.94-0.35,1.45-0.01l1.66,1.35c0.39-3.3,1.98-5.98,4.77-8.07c2.34-1.75,4.93-2.78,7.77-3.08
			c2.83-0.3,5.57,0.13,8.2,1.28c2.64,1.16,4.84,2.92,6.61,5.29c1.77,2.37,2.83,4.98,3.17,7.82c0.34,2.85-0.04,5.58-1.14,8.2
			c-1.1,2.62-2.81,4.81-5.14,6.55c-2.83,2.11-5.87,2.88-9.13,2.31l0.85,2.18C304.06,355.27,303.91,355.72,303.44,356.07z
			 M294.39,333.77c-0.58,1.35-0.77,2.77-0.58,4.24c0.19,1.48,0.78,2.87,1.77,4.19c0.98,1.32,2.16,2.29,3.54,2.92
			c1.37,0.63,2.79,0.87,4.27,0.72c1.47-0.15,2.82-0.69,4.07-1.62c1.25-0.93,2.14-2.08,2.69-3.43c0.55-1.35,0.7-2.78,0.48-4.26
			c-0.22-1.49-0.83-2.89-1.81-4.21c-0.98-1.32-2.15-2.29-3.49-2.92c-1.34-0.63-2.73-0.86-4.16-0.71c-1.43,0.16-2.77,0.7-4.01,1.64
			C295.89,331.28,294.97,332.42,294.39,333.77z"/>
		<path d="M243.13,382.9c-2.01-0.42-3.82-1.45-5.42-3.09c-1.61-1.65-2.92-3.87-3.93-6.67l-5.81-16.07c-0.24-0.65-0.03-1.1,0.62-1.33
			l5.52-1.99c0.65-0.24,1.09-0.03,1.33,0.62l5.71,15.78c0.7,1.95,1.74,3.32,3.09,4.12c1.35,0.79,2.88,0.88,4.59,0.26
			c1.07-0.39,1.95-1.02,2.62-1.89c0.67-0.87,1.1-1.86,1.29-2.98c0.19-1.12,0.13-2.23-0.19-3.33l-5.81-16.05
			c-0.24-0.65-0.03-1.09,0.62-1.33l5.54-2c0.65-0.23,1.09-0.03,1.33,0.62l5.71,15.78c0.71,1.95,1.73,3.33,3.08,4.12
			c1.35,0.79,2.87,0.88,4.58,0.26c1.12-0.41,2.03-1.08,2.71-2.02c0.68-0.94,1.1-2,1.25-3.19c0.15-1.19,0.02-2.35-0.39-3.49
			l-5.63-15.56c-0.24-0.65-0.03-1.1,0.63-1.33l5.54-2c0.65-0.24,1.1-0.03,1.33,0.62l9.96,27.52c0.24,0.65,0.03,1.1-0.62,1.33
			l-4.27,1.55c-0.57,0.21-1.03,0.08-1.38-0.38l-1.16-1.51c-0.75,1.43-1.76,2.69-3.01,3.77c-1.26,1.08-2.68,1.91-4.28,2.49
			c-1.97,0.71-3.87,0.94-5.68,0.69c-1.81-0.26-3.47-0.99-4.97-2.19c-0.61,1.93-1.62,3.62-3.05,5.06c-1.42,1.44-3.12,2.53-5.11,3.24
			C247.25,383.11,245.14,383.31,243.13,382.9z"/>
		<path d="M196.22,389.14l-4.43,0.25c-0.69,0.04-1.06-0.29-1.09-0.98l-1.65-29.22c-0.04-0.69,0.29-1.06,0.98-1.1l4.59-0.26
			c0.57-0.03,0.98,0.23,1.22,0.79l0.63,2.04c2.15-2.53,4.96-3.89,8.43-4.09c2.92-0.16,5.65,0.41,8.17,1.73
			c2.53,1.31,4.57,3.18,6.13,5.6c1.56,2.42,2.42,5.11,2.59,8.06c0.17,2.95-0.39,5.71-1.68,8.27c-1.29,2.56-3.11,4.63-5.47,6.21
			c-2.36,1.58-5,2.45-7.9,2.62c-3.53,0.2-6.49-0.84-8.89-3.12l-0.5,2.29C197.18,388.81,196.8,389.11,196.22,389.14z M200.99,365.55
			c-1.23,0.81-2.17,1.88-2.82,3.22c-0.65,1.34-0.93,2.83-0.84,4.47c0.09,1.64,0.54,3.1,1.34,4.38c0.8,1.28,1.85,2.27,3.16,2.96
			c1.31,0.69,2.74,0.99,4.29,0.9c1.55-0.09,2.93-0.55,4.14-1.38c1.2-0.83,2.12-1.93,2.75-3.29c0.64-1.36,0.91-2.86,0.81-4.51
			c-0.09-1.64-0.53-3.1-1.3-4.36c-0.77-1.27-1.8-2.23-3.08-2.88c-1.28-0.65-2.69-0.94-4.25-0.85
			C203.62,364.3,202.21,364.74,200.99,365.55z"/>
		<path d="M152.62,383.38c-0.32-0.28-0.46-0.59-0.41-0.93c0.03-0.17,0.11-0.35,0.24-0.54l3.33-4.42c0.27-0.34,0.56-0.49,0.88-0.44
			c0.21,0.03,0.4,0.12,0.56,0.27c1.19,0.91,2.37,1.45,3.53,1.63c1.13,0.18,2.26,0.02,3.38-0.48c1.13-0.5,2.11-1.33,2.95-2.51
			c0.83-1.17,1.39-2.64,1.66-4.4l2.31-14.67c0.11-0.68,0.5-0.97,1.19-0.87l5.82,0.92c0.69,0.11,0.97,0.5,0.86,1.19l-4.55,28.91
			c-0.11,0.69-0.51,0.97-1.19,0.87l-4.49-0.71c-0.58-0.09-0.92-0.42-1.03-1l-0.54-3.08c-1.19,1.21-2.49,2.09-3.91,2.62
			c-1.42,0.53-3,0.66-4.74,0.38C156.46,385.8,154.51,384.89,152.62,383.38z"/>
		<path d="M121.98,340.35l5.72,2.73c0.63,0.3,0.79,0.76,0.49,1.39l-11.91,24.91l8.23,3.93c0.63,0.3,0.79,0.76,0.49,1.38l-2.49,5.2
			c-0.3,0.63-0.76,0.79-1.39,0.49l-24.06-11.5c-0.63-0.3-0.79-0.76-0.49-1.38l2.49-5.2c0.3-0.63,0.76-0.79,1.39-0.49l8.25,3.94
			l11.91-24.91C120.89,340.21,121.35,340.05,121.98,340.35z"/>
		<path d="M103.55,331.41c1.11,2.64,1.49,5.37,1.13,8.2c-0.36,2.83-1.41,5.44-3.15,7.8c-1.76,2.38-3.91,4.19-6.45,5.43
			c-2.54,1.23-5.2,1.75-7.96,1.54c-2.76-0.21-5.32-1.18-7.68-2.91c-2.55-1.88-4.35-4.08-5.41-6.6c-1.06-2.52-1.35-5.14-0.88-7.86
			c0.47-2.72,1.63-5.34,3.49-7.86c0.33-0.45,0.71-0.92,1.14-1.42c0.42-0.45,0.89-0.47,1.42-0.08l17.35,12.79
			c0.5-1.29,0.71-2.57,0.63-3.84c-0.07-1.27-0.41-2.45-1.02-3.54c-0.6-1.09-1.43-2.02-2.47-2.79c-0.98-0.72-1.97-1.23-2.98-1.54
			c-1.01-0.31-2.09-0.46-3.23-0.46c-0.28,0.01-0.51-0.06-0.7-0.19c-0.24-0.18-0.35-0.45-0.33-0.82l0.1-4.83
			c0.01-0.31,0.08-0.54,0.19-0.7c0.17-0.24,0.43-0.36,0.78-0.36c1.85-0.06,3.68,0.19,5.48,0.73c1.8,0.54,3.53,1.42,5.17,2.63
			C100.65,326.55,102.44,328.78,103.55,331.41z M80.46,341.65c0.4,1.64,1.35,3.01,2.85,4.12c1.47,1.08,3.07,1.58,4.81,1.5
			c1.75-0.08,3.39-0.75,4.92-2.01l-11.98-8.83C80.27,338.28,80.07,340.02,80.46,341.65z"/>
		<path d="M76.85,307.1l4.75,5.44c0.18,0.21,0.28,0.41,0.3,0.6c0.02,0.19-0.04,0.35-0.19,0.47c-0.16,0.14-0.37,0.22-0.64,0.25
			l-17.84,2.03l-4.3,16.44c-0.08,0.28-0.19,0.47-0.32,0.59c-0.14,0.13-0.31,0.16-0.5,0.11c-0.19-0.05-0.38-0.18-0.56-0.39
			l-4.78-5.48c-0.37-0.42-0.46-0.88-0.29-1.4l3.32-9.82l-10.17,1.98c-0.27,0.05-0.52,0.05-0.73-0.02c-0.21-0.07-0.41-0.22-0.6-0.44
			l-4.82-5.52c-0.18-0.21-0.28-0.41-0.3-0.6c-0.02-0.19,0.04-0.35,0.19-0.47c0.16-0.14,0.36-0.22,0.61-0.25l16.71-2.22l4.59-17.25
			c0.07-0.24,0.17-0.42,0.32-0.55c0.14-0.13,0.31-0.17,0.5-0.13c0.19,0.04,0.38,0.16,0.56,0.37l4.75,5.44
			c0.37,0.42,0.46,0.89,0.29,1.4l-3.47,10.95l11.27-2.01C76.04,306.53,76.5,306.69,76.85,307.1z"/>
		<path d="M54.56,277.37l3.05,5.04c0.36,0.59,0.24,1.07-0.35,1.43l-19.61,11.88l1.48,2.44c0.36,0.59,0.24,1.07-0.35,1.43l-4.53,2.74
			c-0.59,0.36-1.07,0.24-1.43-0.35l-1.45-2.4l-4.8,2.91c-0.55,0.33-1.03,0.26-1.46-0.21l-4.07-4.52c-0.05-0.05-0.11-0.12-0.16-0.21
			c-0.14-0.24-0.18-0.47-0.11-0.69c0.07-0.22,0.23-0.41,0.48-0.56l5.95-3.61l-2.68-4.42c-0.36-0.59-0.24-1.07,0.35-1.43l4.53-2.74
			c0.6-0.36,1.07-0.24,1.43,0.35l2.69,4.44l19.61-11.88C53.72,276.66,54.2,276.78,54.56,277.37z"/>
		<path d="M14.93,279.77L10,281.98c-0.63,0.28-1.09,0.11-1.37-0.53l-2.45-5.47c-0.28-0.63-0.11-1.09,0.52-1.37l4.93-2.21
			c0.63-0.28,1.09-0.11,1.37,0.52l2.45,5.48C15.74,279.03,15.57,279.49,14.93,279.77z M45.08,258.63l2.41,5.38
			c0.28,0.63,0.11,1.09-0.52,1.37l-26.72,11.96c-0.63,0.28-1.09,0.11-1.37-0.52l-2.41-5.38c-0.28-0.63-0.11-1.09,0.52-1.37
			l26.71-11.96C44.34,257.82,44.8,258,45.08,258.63z"/>
		<path d="M38.78,241.12l1.75,5.55c0.21,0.66-0.02,1.09-0.68,1.3L3.13,259.56c-0.66,0.21-1.1-0.02-1.31-0.68l-1.75-5.55
			c-0.21-0.66,0.02-1.1,0.68-1.3l36.73-11.59C38.14,240.24,38.58,240.46,38.78,241.12z"/>
	</g>
	<g>
		<circle cx="372.54" cy="196.22" r="6.52"/>
	</g>
	<g>
		<circle cx="15.99" cy="196.22" r="6.52"/>
	</g>
</g>
</svg>
