<?xml version="1.0" encoding="utf-8"?>
<!-- Generator: Adobe Illustrator 28.2.0, SVG Export Plug-In . SVG Version: 6.00 Build 0)  -->
<svg version="1.1" id="Capa_1" xmlns="http://www.w3.org/2000/svg" xmlns:xlink="http://www.w3.org/1999/xlink" x="0px" y="0px"
	 viewBox="0 0 284.97 47.69" style="enable-background:new 0 0 284.97 47.69;" xml:space="preserve">
<path d="M74.09,37.23c0.66-0.48,1.51-1.26,2.28-2.56c0.15-0.25,0.52-0.24,0.66,0.02c0.29,0.6,0.78,1.36,1.58,2.06
	c0.92,0.81,2.09,1.41,3.33,1.53c0.07,0.01,9.4,0.67,14.38-0.46c1.87-0.42,2.3-1.24,2.3-2.02c0-1.98-2.38-3.17-2.38-8.98
	c0-3.96,2.29-7.97,4.58-7.97c1.28,0,1.32,2.55,1.32,7.97c0,5.81-2.38,7-2.38,8.98c0,0.79,0.48,2.02,2.38,2.02h7.04
	c1.89,0,2.38-1.23,2.38-2.02c0-1.98-2.38-3.17-2.38-8.98c0-3.96,2.29-7.97,4.58-7.97c1.28,0,1.32,2.55,1.32,6.52v6.56
	c0,4.49,1.45,6.6,5.15,6.6c0.21,0,0.96-0.11,1.42-0.18c0.84-0.13,2.02-0.75,3.33-0.85c0.98-0.07,1.6,0.22,2.44,0.49
	c2.09,0.67,4.88,0.96,6.8,0.47c0.69-0.18,2.78-0.84,4.66-3.73c0.17-0.26,0.55-0.21,0.66,0.07c0.26,0.68,0.77,1.62,1.74,2.3
	c0.7,0.48,1.59,0.77,2.75,0.78c0.28,0,0.56-0.01,0.85-0.04c0.02,0,0.03,0,0.05,0c0.3,0,0.61,0.02,0.91,0.02
	c1.57,0.03,3.14,0.03,4.71,0c0.3,0,0.61-0.02,0.91-0.03h6.83c1.89,0,2.38-1.23,2.38-2.02c0-1.98-2.38-3.17-2.38-8.98
	c0-3.96,2.24-7.66,4.49-7.66c2.55,0,1.28,5.64,5.2,5.64c1.85,0,2.86-1.54,2.86-3.74c0-2.51-1.94-5.94-5.99-5.94
	c-2.34,0-4.61,1.29-6.32,3.31c-0.19,0.22-0.55,0.15-0.64-0.13c-0.68-2.16-2.15-3.18-4.75-3.18c-2.2,0-4.8,0.88-4.8,2.73
	c0,2.2,1.51,3.66,2.91,8.98c1.69,6.45-2.75,6.72-2.89,6.67c-3.87,0.13-2.38-3.03-2.35-6.6l0.02-3.21c0.05-6.3-3.55-8.52-10.11-8.57
	c-7.18-0.05-9.4,2.97-9.42,5.87c-0.02,2.2,0.98,3.75,2.83,3.76c4.18,0.03,2.56-6.76,6.57-6.73h0.04c2.11,0.02,3.23,3.5-0.97,5.94
	c-4.55,2.61-11.54,1.42-9.83,8.23c0.51,2.02-5.04,4.48-3.32-3.82c0.16-0.75,0.28-2,0.28-2.77v-1.98c0-6.3-2.42-8.5-5.9-8.5
	c-2.77,0-5.28,1.47-7.11,3.72c-0.18,0.22-0.54,0.16-0.64-0.11c-0.96-2.59-2.84-3.61-5.2-3.61c-1.27,0-2.51,0.32-3.65,0.88
	c-1.22,0.61-1.99,1.55-3.04,2.34c-0.66,0.5-0.8,0.18-0.99-0.58c-0.27-1.06-0.3-1.39-0.45-1.8c0,0-0.21-0.61-0.57-1.08
	c-1.23-1.61-4.94-0.72-5.35-0.62c-1.57,0.39-2.83,0.71-3.42,1.73c-0.8,1.39,0.24,2.98,1.94,6.92c3.6,8.38,2.59,9.96,2.37,10.47
	c-0.59,1.35-1.8,1.67-3.11,1.91c-3.65,0.66-3.63-6.39-3.63-8.47v-3.21c0-6.3-3.61-8.5-10.17-8.5c-7.18,0-9.38,3.04-9.38,5.94
	c0,2.2,1.01,3.74,2.86,3.74c4.18,0,2.51-6.78,6.52-6.78h0.04c2.11,0,3.26,3.48-0.92,5.94c-4.53,2.64-10.87,1.85-10.87,8.45
	c0,1.24,0.46,2.33,1.26,3.25c1.21,1.39,2.56,2.67,4.36,3.2c2.54,0.74,4.95-0.13,7.01-1.63H74.09z M76.34,25.36
	c0,3.96-2.29,9.42-5.46,9.42c-1.32,0-2.2-1.14-2.2-2.55c0-2.69,2.38-4.05,4.71-5.55c0.78-0.51,1.6-0.97,2.33-1.6
	C75.96,24.87,76.34,25.04,76.34,25.36L76.34,25.36 M138.99,25.38c-0.03,3.96-2.36,9.4-5.53,9.38c-1.32-0.01-2.19-1.16-2.18-2.57
	c0.02-2.69,2.41-4.03,4.75-5.51c0.79-0.51,1.6-0.96,2.34-1.58c0.24-0.21,0.62-0.03,0.62,0.29l0,0V25.38z"/>
<path d="M236.57,26.37l-0.09-0.17l4.97-5.19c2.35-2.44,0.83-5.54-2.53-5.54c-2.18,0-3.31,1-3.31,2.83c0,2.09,1.26,3.23-0.61,5.32
	l-2.05-3.66c-1.57-2.75-4.05-4.49-7.24-4.49c-2.18,0-4.19,1-4.19,2.83c0,3.09,9.58,6.77,6.05,9.73c-2,1.67-4.6,2.95-6.93,4.18
	c-0.05-0.01-2.31,1.6-6.6,1.92c-2.68,0.2-3.7-1.54-3.7-2.64c0-4.14,10.39-3.79,10.39-10.3c0-3.61-4.05-5.94-9.38-5.94h-0.01
	c-1.03,0-2.05-0.34-2.84-1s-1.42-1.39-1.94-2.23c-0.53-0.86-0.69-2.12-1.05-3.14l-0.1-0.26c-0.35-0.84-0.88-1.47-1.98-1.47h-23.16
	c-1.32,0-1.85,0.62-2.03,1.45l-1.45,7.7c-0.22,1.23,0.53,1.85,1.36,1.85c0.92,0,1.28-0.66,1.72-1.45c2.11-3.57,3.92-6.38,6.12-6.38
	c1.14,0,2.16,0.26,2.16,2.82v13.82c0,5.81-2.38,7-2.38,8.98c0,0.79,0.48,2.03,2.38,2.03h7.4c1.89,0,2.38-1.23,2.38-2.03
	c0-1.98-2.38-3.17-2.38-8.98V13.14c0-2.55,1.01-2.82,2.16-2.82c1.55,0,2.91,1.41,4.31,3.48c0.3,0.44,0.52,0.93,0.6,1.45
	c0.23,1.37,0.06,2.81-0.53,4.06c-0.04,0.09-0.09,0.18-0.13,0.27c-1.38,1.93-2.13,4.43-2.13,7.38c0,7.18,4.45,11.71,11.53,11.71
	c2.48,0,4.5-2.38,8.75-1.41c1.23,0.28,2.25,1.24,3.49,1.41c2.09,0.29,4.52-0.38,4.52-2.84c0-2.09-0.92-3.49,1.79-6.5l0.22-0.26
	l2.79,5.1c1.44,2.66,3.62,4.49,6.8,4.49c2.18,0,4.19-1,4.19-2.83C243.91,32.95,239.33,31.25,236.57,26.37L236.57,26.37z
	 M207.75,29.55c-0.53-1.36-0.84-2.99-0.84-4.84c0-4.18,1.28-6.56,3.74-6.56c2.07,0,2.86,1.81,2.86,3.21
	C213.51,25.28,209.68,26.03,207.75,29.55L207.75,29.55z"/>
<circle cx="262.66" cy="5.87" r="4.02"/>
<path d="M283.36,39.56c-1-0.94-2.47-2.57-3.33-4.03c-1.05-1.78-1.83-3.87-1.52-8.16c0.36-5.03,2-10.07,3.05-15.07
	c0.52-2.49,0.47-5.1-0.46-7.47c-0.62-1.56-1.6-3.14-3.14-4.07c-0.32-0.19-1.35-0.75-2.74-0.75c-2.2,0-4.8,1.32-4.8,3.73
	c0,2.75,4.04,4.28,4.04,11.44l-1.14,14.41c0,3.19,1.25,6.23,2.69,8.68c0.34,0.54,0.37,1.15,0.07,1.52
	c-0.31,0.39-0.86,0.37-1.13,0.36c-1.03-0.04-1.71-0.86-1.87-1.07c-0.81-1.21-1.64-2.62-2.38-4.26c-1.22-2.66-2.48-6.39-2.67-10.66
	v-5.11c0-4.49-1.45-6.6-5.15-6.6c-2.2,0-4.8,0.88-4.8,2.73c0,2.2,2.91,3.48,2.91,8.98c0,1.1-0.25,3.05-0.35,3.45
	c-0.51,2.29-0.91,3.39-1.84,4.53c-0.87,0.96-2.37,1.87-3.7,1.89c-0.67,0.01-1.3-0.2-1.78-0.74c-1.44-1.62-1.01-4.96-1.01-6.92v-7.33
	h2.79c0.83,0,1.44-0.61,1.44-1.44s-0.61-1.44-1.44-1.44h-2.79v-2.4c0-1.18,0.13-2.83-1.18-2.83c-0.78,0-3.14,1.53-4.88,2.62
	c-2.05,1.26-0.92,5.97-0.92,10.55v3.71c0,2.89-0.17,6.74,1.8,9.11c0.87,1.05,2.12,1.56,3.46,1.7c1.95,0.2,4.38-0.13,6.21-0.7
	c2.1-0.66,3.54-2.05,5.76-1.94c0.38,0.02,1.98-0.08,3.61,1.55c0.81,0.8,1.3,1.62,1.98,2.36c0.75,0.82,1.52,1.62,2.31,2.4
	c0.13,0.13,0.25,0.25,0.38,0.37c2.18,2.12,4.44,3.93,7.44,4.76c1.36,0.38,2.86,0.41,4.16-0.16c3.16-1.39,3.24-5.52,0.93-7.69
	L283.36,39.56z"/>
<path d="M53.42,24.01c-0.51,4.29-0.88,7.09,0.51,11.18c0.22,0.65,1.16,2.72,1.38,3.07c0.34,0.54,0.37,1.15,0.07,1.52
	c-0.31,0.39-0.86,0.37-1.13,0.36c-1.1-0.08-5.06-2.81-5.58-8.94c-0.12-1.46-0.16-2.92-0.16-4.39V23.6c0-6.3-3.61-8.5-10.17-8.5
	c-7.18,0-9.38,3.04-9.38,5.94c0,2.2,1.01,3.74,2.86,3.74c4.18,0,2.51-6.78,6.52-6.78h0.04c2.11,0,3.26,3.48-0.92,5.94
	c-3.69,2.15-8.57,2.03-10.26,5.46c-0.02,0.03-0.04,0.06-0.06,0.09c-0.1,0.11-0.19,0.25-0.25,0.38c-0.8,1.61-2.1,2.97-3.67,3.85
	c-0.24,0.13-0.48,0.26-0.72,0.38c-1.17,0.53-2.64,0.98-4.49,0.98c-7.84,0-10.57-8.06-10.57-13.47c0-6.3,2.07-10.04,5.72-10.04
	c5.99,0,5.06,8.63,9.77,8.63c2.11,0,3.65-1.98,3.65-4.36c0-3.96-4.27-7.48-12.06-7.48C5.64,8.37,0,14.14,0,24.48
	s5.64,16.11,14.53,16.11c3.57,0,6.39-1.01,8.41-2.38c3.01-1.84,4.53-2.52,5.46-1.41c2.79,3.31,9.24,3.34,12.74-1.82
	c0.14-0.21,0.49-0.87,0.82-0.76c0.25,0.08,0.53,0.44,0.57,0.49c0.72,0.88,2.33,2.56,3.69,4.06c1.42,1.57,1.29,1.51,3.92,4.29
	c0.25,0.27,1.13,0.99,1.14,1c1.79,1.57,3.9,2.69,6.29,3.35c1.36,0.38,2.86,0.41,4.16-0.16c3.16-1.39,3.24-5.52,0.93-7.69
	c-1-0.94-2.47-2.57-3.33-4.03c-1.05-1.78-1.83-3.87-1.52-8.16c0.43-6.01,2.1-7.49,2.99-13.45c0,0,0.11-1.35,0.21-2.56
	c0.18-2.19,0.01-4.41-0.73-6.48c-0.57-1.59-1.5-3.2-3.03-4.13C56.93,0.56,55.9,0,54.51,0c-2.2,0-4.8,1.32-4.8,3.73
	c0,2.75,4.42,3.9,4.42,11.07c-0.08,2.26-0.23,4.65-0.49,7.16 M41.47,25.36c0,3.96-2.29,9.42-5.46,9.42c-1.32,0-2.2-1.14-2.2-2.55
	c0-2.69,2.38-4.05,4.71-5.55c0.78-0.51,1.6-0.97,2.33-1.6C41.09,24.87,41.47,25.04,41.47,25.36C41.47,25.36,41.47,25.36,41.47,25.36
	z"/>
</svg>
