<?xml version="1.0" encoding="UTF-8"?>
<svg id="Layer_1" data-name="Layer 1" xmlns="http://www.w3.org/2000/svg" version="1.1" viewBox="0 0 1920 54.22">
  <defs>
    <style>
      .cls-1 {
        fill: #ff9b48;
        stroke-width: 0px;
      }
    </style>
  </defs>
  <path class="cls-1" d="M2112.01,8.38l-1.43-.17-1.43-.16-1.43-.14-1.43-.13-1.43-.11-1.43-.1-1.43-.09-1.43-.07-1.43-.06-1.43-.04-1.43-.03h-1.43s-1.43,0-1.43,0l-1.43.02-1.43.03-1.43.05-1.43.06-1.43.08-1.43.09-1.43.11-1.43.12-1.43.14-1.43.15-1.43.17-1.43.18-1.43.2-1.43.21-1.43.22-1.43.24-1.43.25-1.43.26-1.43.28-1.43.29-1.43.3-1.43.31-1.43.33-1.43.34-1.43.35-1.43.36-1.43.37-1.43.38-1.43.39-1.43.4-1.43.41-1.43.42-1.43.43-1.43.44-1.43.45-1.43.46-1.43.47-1.43.47-1.43.48-1.43.49-1.43.49-1.43.5-1.43.5-1.43.51-1.43.51-1.43.52-1.43.52-1.43.53-1.43.53-1.43.53-1.43.54-1.43.54-1.43.54-1.43.54-1.43.54-1.43.54-1.43.54-1.43.54-1.43.54-1.43.54-1.43.54-1.43.53-1.43.53-1.43.53-1.43.52-1.43.52-1.43.52-1.43.51-1.43.51-1.43.5-1.43.5-1.43.49-1.43.48-1.43.48-1.43.47-1.43.46-1.43.45-1.43.44-1.43.44-1.43.43-1.43.42-1.43.41-1.43.4-1.43.39-1.43.38-1.43.37-1.43.36-1.43.34-1.43.33-1.43.32-1.43.31-1.43.3-1.43.28-1.43.27-1.43.26-1.43.24-1.43.23-1.43.22-1.43.2-1.43.19-1.43.17-1.43.16-1.43.15-1.43.13-1.43.12-1.43.1-1.43.09-1.43.07-1.43.06-1.43.04-1.43.03h-1.43s-1.43,0-1.43,0l-1.43-.02-1.43-.03-1.43-.05-1.43-.06-1.43-.08-1.43-.09-1.43-.11-1.43-.12-1.43-.14-1.43-.15-1.43-.17-1.43-.18-1.43-.19-1.43-.21-1.43-.22-1.43-.24-1.43-.25-1.43-.26-1.43-.28-1.43-.29-1.43-.3-1.43-.31-1.43-.33-1.43-.34-1.43-.35-1.43-.36-1.43-.37-1.43-.38-1.43-.39-1.43-.4-1.43-.41-1.43-.42-1.43-.43-1.43-.44-1.43-.45-1.43-.46-1.43-.46-1.43-.47-1.43-.48-1.43-.49-1.43-.49-1.43-.5-1.43-.5-1.43-.51-1.43-.51-1.43-.52-1.43-.52-1.43-.53-1.43-.53-1.43-.53-1.43-.53-1.43-.54-1.43-.54-1.43-.54-1.43-.54-1.43-.54-1.43-.54-1.43-.54-1.43-.54-1.43-.54-1.43-.54-1.43-.53-1.43-.53-1.43-.53-1.43-.53-1.43-.52-1.43-.52-1.43-.51-1.43-.51-1.43-.5-1.43-.5-1.43-.49-1.43-.48-1.43-.48-1.43-.47-1.43-.46-1.43-.45-1.43-.45-1.43-.44-1.43-.43-1.43-.42-1.43-.41-1.43-.4-1.43-.39-1.43-.38-1.43-.37-1.43-.36-1.43-.34-1.43-.33-1.43-.32-1.43-.31-1.43-.3-1.43-.28-1.43-.27-1.43-.26-1.43-.24-1.43-.23-1.43-.22-1.43-.2-1.43-.19-1.43-.18-1.43-.16-1.43-.15-1.43-.13-1.43-.12-1.43-.1-1.43-.09-1.43-.07-1.43-.06-1.43-.04-1.43-.03h-1.43s-1.43-.01-1.43-.01l-1.43.02-1.43.03-1.43.05-1.43.06-1.43.08-1.43.09-1.43.11-1.43.12-1.43.14-1.43.15-1.43.16-1.43.18-1.43.19-1.43.21-1.43.22-1.43.23-1.43.25-1.43.26-1.43.27-1.43.29-1.43.3-1.43.31-1.43.32-1.43.34-1.43.35-1.43.36-1.43.37-1.43.38-1.43.39-1.43.4-1.43.41-1.43.42-1.43.43-1.43.44-1.43.45-1.43.46-1.43.46-1.43.47-1.43.48-1.43.49-1.43.49-1.43.5-1.43.5-1.43.51-1.43.51-1.43.52-1.43.52-1.43.53-1.43.53-1.43.53-1.43.53-1.43.54-1.43.54-1.43.54-1.43.54-1.43.54-1.43.54-1.43.54-1.43.54-1.43.54-1.43.54-1.43.53-1.43.53-1.43.53-1.43.53-1.43.52-1.43.52-1.43.51-1.43.51-1.43.5-1.43.5-1.43.49-1.43.48-1.43.48-1.43.47-1.43.46-1.43.45-1.43.45-1.43.44-1.43.43-1.43.42-1.43.41-1.43.4-1.43.39-1.43.38-1.43.37-1.43.36-1.43.35-1.43.33-1.43.32-1.43.31-1.43.3-1.43.28-1.43.27-1.43.26-1.43.25-1.43.23-1.43.22-1.43.2-1.43.19-1.43.18-1.43.16-1.43.15-1.43.13-1.43.12-1.43.1-1.43.09-1.43.07-1.43.06-1.43.04-1.43.03h-1.43s-1.43.01-1.43.01l-1.43-.02-1.43-.03-1.43-.05-1.43-.06-1.43-.08-1.43-.09-1.43-.1-1.43-.12-1.43-.13-1.43-.15-1.43-.16-1.43-.18-1.43-.19-1.43-.21-1.43-.22-1.43-.23-1.43-.25-1.43-.26-1.43-.27-1.43-.29-1.43-.3-1.43-.31-1.43-.32-1.43-.33-1.43-.35-1.43-.36-1.43-.37-1.43-.38-1.43-.39-1.43-.4-1.43-.41-1.43-.42-1.43-.43-1.43-.44-1.43-.45-1.43-.46-1.43-.46-1.43-.47-1.43-.48-1.43-.48-1.43-.49-1.43-.5-1.43-.5-1.43-.51-1.43-.51-1.43-.52-1.43-.52-1.43-.53-1.43-.53-1.43-.53-1.43-.53-1.43-.54-1.43-.54-1.43-.54-1.43-.54-1.43-.54-1.43-.54-1.43-.54-1.43-.54-1.43-.54-1.43-.54-1.43-.53-1.43-.53-1.43-.53-1.43-.53-1.43-.52-1.43-.52-1.43-.51-1.43-.51-1.43-.5-1.43-.5-1.43-.49-1.43-.49-1.43-.48-1.43-.47-1.43-.46-1.43-.46-1.43-.45-1.43-.44-1.43-.43-1.43-.42-1.43-.41-1.43-.4-1.43-.39-1.43-.38-1.43-.37-1.43-.36-1.43-.35-1.43-.34-1.43-.32-1.43-.31-1.43-.3-1.43-.29-1.43-.27-1.43-.26-1.43-.25-1.43-.23-1.43-.22-1.43-.21-1.43-.19-1.43-.18-1.43-.16-1.43-.15-1.43-.13-1.43-.12-1.43-.11-1.43-.09-1.43-.08-1.43-.06-1.43-.05-1.43-.03-1.43-.02h-1.43s-1.43.01-1.43.01l-1.43.03-1.43.04-1.43.06-1.43.07-1.43.09-1.43.1-1.43.12-1.43.13-1.43.15-1.43.16-1.43.18-1.43.19-1.43.2-1.43.22-1.43.23-1.43.24-1.43.26-1.43.27-1.43.28-1.43.3-1.43.31-1.43.32-1.43.33-1.43.35-1.43.36-1.43.37-1.43.38-1.43.39-1.43.4-1.43.41-1.43.42-1.43.43-1.43.44-1.43.45-1.43.45-1.43.46-1.43.47-1.43.48-1.43.48-1.43.49-1.43.5-1.43.5-1.43.51-1.43.51-1.43.52-1.43.52-1.43.53-1.43.53-1.43.53-1.43.53-1.43.54-1.43.54-1.43.54-1.43.54-1.43.54-1.43.54-1.43.54-1.43.54-1.43.54-1.43.54-1.43.53-1.43.53-1.43.53-1.43.53-1.43.52-1.43.52-1.43.51-1.43.51-1.43.5-1.43.5-1.43.49-1.43.49-1.43.48-1.43.47-1.43.46-1.43.46-1.43.45-1.43.44-1.43.43-1.43.42-1.43.41-1.43.4-1.43.39-1.43.38-1.43.37-1.43.36-1.43.35-1.43.34-1.43.32-1.43.31-1.43.3-1.43.29-1.43.27-1.43.26-1.43.25-1.43.23-1.43.22-1.43.21-1.43.19-1.43.18-1.43.17-1.43.15-1.43.14-1.43.12-1.43.11-1.43.09-1.43.08-1.43.06-1.43.05-1.43.03-1.43.02h-1.43s-1.43,0-1.43,0l-1.43-.03-1.43-.04-1.43-.06-1.43-.07-1.43-.09-1.43-.1-1.43-.12-1.43-.13-1.43-.15-1.43-.16-1.43-.17-1.43-.19-1.43-.2-1.43-.22-1.43-.23-1.43-.24-1.43-.26-1.43-.27-1.43-.28-1.43-.3-1.43-.31-1.43-.32-1.43-.33-1.43-.34-1.43-.36-1.43-.37-1.43-.38-1.43-.39-1.43-.4-1.43-.41-1.43-.42-1.43-.43-1.43-.44-1.43-.45-1.43-.45-1.43-.46-1.43-.47-1.43-.48-1.43-.48-1.43-.49-1.43-.5-1.43-.5-1.43-.51-1.43-.51-1.43-.52-1.43-.52-1.43-.53-1.43-.53-1.43-.53-1.43-.53-1.43-.54-1.43-.54-1.43-.54-1.43-.54-1.43-.54-1.43-.54-1.43-.54-1.43-.54-1.43-.54-1.43-.54-1.43-.53-1.43-.53-1.43-.53-1.43-.53-1.43-.52-1.43-.52-1.43-.51-1.43-.51-1.43-.5-1.43-.5-1.43-.49-1.43-.49-1.43-.48-1.43-.47-1.43-.47-1.43-.46-1.43-.45-1.43-.44-1.43-.43-1.43-.42-1.43-.41-1.43-.4-1.43-.39-1.43-.38-1.43-.37-1.43-.36-1.43-.35-1.43-.34-1.43-.33-1.43-.31-1.43-.3-1.43-.29-1.43-.28-1.43-.26-1.43-.25-1.43-.24-1.43-.22-1.43-.21-1.43-.19-1.43-.18-1.43-.17-1.43-.15-1.43-.14-1.43-.12-1.43-.11-1.43-.09-1.43-.08-1.43-.06-1.43-.05-1.43-.03-1.43-.02h-1.43s-1.43,0-1.43,0l-1.43.03-1.43.04-1.43.06-1.43.07-1.43.09-1.43.1-1.43.12-1.43.13-1.43.14-1.43.16-1.43.17-1.43.19-1.43.2-1.43.22-1.43.23-1.43.24-1.43.26-1.43.27-1.43.28-1.43.29-1.43.31-1.43.32-1.43.33-1.43.34-1.43.35-1.43.37-1.43.38-1.43.39-1.43.4-1.43.41-1.43.42-1.43.43-1.43.44-1.43.44-1.43.45-1.43.46-1.43.47-1.43.48-1.43.48-1.43.49-1.43.5-1.43.5-1.43.51-1.43.51-1.43.52-1.43.52-1.43.52-1.43.53-1.43.53-1.43.53-1.43.54-1.43.54-1.43.54-1.43.54-1.43.54-1.43.54-1.43.54-1.43.54-1.43.54-1.43.54-1.43.54-1.43.53-1.43.53-1.43.53-1.43.52-1.43.52-1.43.51-1.43.51-1.43.5-1.43.5-1.43.49-1.43.49-1.43.48-1.43.47-1.43.47-1.43.46-1.43.45-1.43.44-1.43.43-1.43.42-1.43.41-1.43.4-1.43.39-1.43.38-1.43.37-1.43.36-1.43.35-1.43.34-1.43.33-1.43.31-1.43.3-1.43.29-1.43.28-1.43.26-1.43.25-1.43.24-1.43.22-1.43.21-1.43.2-1.43.18-1.43.17-1.43.15-1.43.14-1.43.12-1.43.11-1.43.1-1.43.08-1.43.07-1.43.05-1.43.04-1.43.02h-1.43s-1.43,0-1.43,0l-1.43-.02-1.43-.04-1.43-.05-1.43-.07-1.43-.08-1.43-.1-1.43-.11-1.43-.13-1.43-.14-1.43-.16-1.43-.17-1.43-.19-1.43-.2-1.43-.21-1.43-.23-1.43-.24-1.43-.25-1.43-.27-1.43-.28-1.43-.29-1.43-.31-1.43-.32-1.43-.33-1.43-.34-1.43-.35-1.43-.36-1.43-.38-1.43-.39-1.43-.4-1.43-.41-1.43-.42-1.43-.43-1.43-.43-1.43-.44-1.43-.45-1.43-.46-1.43-.47-1.43-.48-1.43-.48-1.43-.49-1.43-.5-1.43-.5-1.43-.51-1.43-.51-1.43-.52-1.43-.52-1.43-.52-1.43-.53-1.43-.53-1.43-.53-1.43-.54-1.43-.54-1.43-.54-1.43-.54-1.43-.54-1.43-.54-1.43-.54-1.43-.54-1.43-.54-1.43-.54-1.43-.54-1.43-.53-1.43-.53-1.43-.53-1.43-.52-1.43-.52-1.43-.52-1.43-.51-1.43-.51-1.43-.5-1.43-.49-1.43-.49-1.43-.48-1.43-.47-1.43-.47-1.43-.46-1.43-.45-1.43-.44-1.43-.43-1.43-.42-1.43-.41-1.43-.4-1.43-.39-1.43-.38-1.43-.37-1.43-.36-1.43-.35-1.43-.34-1.43-.33-1.43-.32-1.43-.3-1.43-.29-1.43-.28-1.43-.27-1.43-.25-1.43-.24-1.43-.23-1.43-.21-1.43-.2-1.43-.18-1.43-.17-1.43-.15-1.43-.14-1.43-.13-1.43-.11-1.43-.1-1.43-.08-1.43-.07-1.43-.05-1.43-.04-1.43-.02h-1.43s-1.43,0-1.43,0l-1.43.02-1.43.04-1.43.05-1.43.07-1.43.08-1.43.1-1.43.11-1.43.13-1.43.14-1.43.16-1.43.17-1.43.18-1.43.2-1.43.21-1.43.23-1.43.24-1.43.25-1.43.27-1.43.28-1.43.29-1.43.3-1.43.32-1.43.33-1.43.34-1.43.35-1.43.36-1.43.37-1.43.39-1.43.4-1.43.41-1.43.42-1.43.42-1.43.43-1.43.44-1.43.45-1.43.46-1.43.47-1.43.47-1.43.48-1.43.49-1.43.49-1.43.5-1.43.51-1.43.51-1.43.52-1.43.52-1.43.52-1.43.53-1.43.53-1.43.53-1.43.54-1.43.54-1.43.54-1.43.54-1.43.54-1.43.54-1.43.54-1.43.54-1.43.54-1.43.54-1.43.54-1.43.53-1.43.53-1.43.53-1.43.52-1.43.52-1.43.52-1.43.51-1.43.51-1.43.5-1.43.49-1.43.49-1.43.48-1.43.47-1.43.47-1.43.46-1.43.45-1.43.44-1.43.43-1.43.43-1.43.42-1.43.41-1.43.4-1.43.39-1.43.37-1.43.36-1.43.35-1.43.34-1.43.33-1.43.32-1.43.3-1.43.29-1.43.28-1.43.27-1.43.25-1.43.24-1.43.23-1.43.21-1.43.2-1.43.18-1.43.17-1.43.16-1.43.14-1.43.13-1.43.11-1.43.1-1.43.08-1.43.07-1.43.05-1.43.04-1.43.02h-1.43s-1.43,0-1.43,0l-1.43-.02-1.43-.04-1.43-.05-1.43-.07-1.43-.08-1.43-.1-1.43-.11-1.43-.13-1.43-.14-1.43-.15-1.43-.17-1.43-.18-1.43-.2-1.43-.21-1.43-.22-1.43-.24-1.43-.25-1.43-.27-1.43-.28-1.43-.29-1.43-.3-1.43-.32-1.43-.33-1.43-.34-1.43-.35-1.43-.36-1.43-.37-1.43-.38-1.43-.39-1.43-.4-1.43-.41-1.43-.42-1.43-.43-1.43-.44-1.43-.45-1.43-.46-1.43-.47-1.43-.47-1.43-.48-1.43-.49-1.43-.49-1.43-.5-1.43-.51-1.43-.51-1.43-.52-1.43-.52-1.43-.52-1.43-.53-1.43-.53-1.43-.53-1.43-.54-1.43-.54-1.43-.54-1.43-.54-1.43-.54-1.43-.54-1.43-.54-1.43-.54-1.43-.54-1.43-.54-1.43-.54-1.43-.53-1.43-.53-1.43-.53-1.43-.52-1.43-.52-1.43-.52-1.43-.51-1.43-.51-1.43-.5-1.43-.5-1.43-.49-1.43-.48-1.43-.48-1.43-.47-1.43-.46-1.43-.45-1.43-.44-1.43-.44-1.43-.43-1.43-.42-1.43-.41-1.43-.4-1.43-.39-1.43-.38-1.43-.36-1.43-.35-1.43-.34-1.43-.33-1.43-.32-1.43-.31-1.43-.29-1.43-.28-1.43-.27-1.43-.25-1.43-.24-1.43-.23-1.43-.21-1.43-.2-1.43-.19-1.43-.17-1.43-.16-1.43-.14-1.43-.13-1.43-.11-1.43-.1-1.43-.08-1.43-.07-1.43-.05-1.43-.04-1.43-.02h-1.43s-1.43,0-1.43,0l-1.43.02-1.43.04-1.43.05-1.43.07-1.43.08-1.43.09-1.43.11-1.43.12-1.43.14-1.43.15-1.43.17-1.43.18-1.43.2-1.43.21-1.43.22-1.43.24-1.43.25-1.43.26-1.43.28-1.43.29-1.43.3-1.43.31-1.43.33-1.43.34-1.43.35-1.43.36-1.43.37-1.43.38-1.43.39-1.43.4-1.43.41-1.43.42-1.43.43-1.43.44-1.43.45-1.43.46-1.43.47-1.43.47-1.43.48-1.43.49-1.43.49-1.43.5-1.43.5-1.43.51-1.43.51-1.43.52-1.43.52-1.43.53-1.43.53-1.43.53-1.43.54-1.43.54-1.43.54-1.43.54-1.43.54-1.43.54-1.43.54-1.43.54-1.43.54-1.43.54-1.43.54-1.43.53-1.43.53-1.43.53-1.43.52-1.43.52-1.43.52-1.43.51-1.43.51-1.43.5-1.43.5-1.43.49-1.43.48-1.43.48-1.43.47-1.43.46-1.43.45-1.43.44-1.43.44-1.43.43-1.43.42-1.43.41-1.43.4-1.43.39-1.43.38-1.43.37-1.43.35-1.43.34-1.43.33-1.43.32-1.43.31-1.43.29-1.43.28-1.43.27-1.43.26-1.43.24-1.43.23-1.43.22-1.43.2-1.43.19-1.43.17-1.43.16-1.43.14-1.43.13-1.43.12-1.43.1-1.43.09-1.43.07-1.43.06-1.43.04-1.43.03h-1.43s-1.43,0-1.43,0l-1.43-.02-1.43-.03-1.43-.05-1.43-.06-1.43-.08-1.43-.09-1.43-.11-1.43-.12-1.43-.14-1.43-.15-1.43-.17-1.43-.18-1.43-.19-1.43-.21-1.43-.22-1.43-.24-1.43-.25-1.43-.26-1.43-.28-1.43-.29-1.43-.3-1.43-.31-1.43-.33-1.43-.34-1.43-.35-1.43-.36-1.43-.37-1.43-.38-1.43-.39-1.43-.4-1.43-.41-1.43-.42-1.43-.43-1.43-.44-1.43-.45-1.43-.46-1.43-.46-1.43-.47-1.43-.48-1.43-.49-1.43-.49-1.43-.5-1.43-.5-1.43-.51-1.43-.51-1.43-.52-1.43-.52-1.43-.53-1.43-.53-1.43-.53-1.43-.53-1.43-.54-1.43-.54-1.43-.54-1.43-.54-1.43-.54-1.43-.54-1.43-.54-1.43-.54-1.43-.54-1.43-.54-1.43-.53-1.43-.53-1.43-.53-1.43-.53-1.43-.52-1.43-.52-1.43-.51-1.43-.51-1.43-.5-1.43-.5-1.43-.49-1.43-.48-1.43-.48-1.43-.47-1.43-.46-1.43-.45-1.43-.45-1.43-.44-1.43-.43-1.43-.42-1.43-.41-1.43-.4-1.43-.39-1.43-.38-1.43-.37-1.43-.36-1.43-.34-1.43-.33-1.43-.32-1.43-.31-1.43-.3-1.43-.28-1.43-.27-1.43-.26-1.43-.24-1.43-.23-1.43-.22-1.43-.2-1.43-.19-1.43-.17-1.43-.16-1.43-.15-1.43-.13-1.43-.12-1.43-.1-1.43-.09-1.43-.07-1.43-.06-1.43-.04-1.43-.03h-1.43s-1.43-.01-1.43-.01l-1.43.02-1.43.03-1.43.05-1.43.06-1.43.08-1.43.09-1.43.11-1.43.12-1.43.14-1.43.15-1.43.16-1.43.18-1.43.19-1.43.21-1.43.22-1.43.23-1.43.25-1.43.26-1.43.27-1.43.29-1.43.3-1.43.31-1.43.32-1.43.34-1.43.35-1.43.36-1.43.37-1.43.38-1.43.39-1.43.4-1.43.41-1.43.42-1.43.43-1.43.44-1.43.45-1.43.46-1.43.46-1.43.47-1.43.48-1.43.49-1.43.49-1.43.5-1.43.5-1.43.51-1.43.51-1.43.52-1.43.52-1.43.53-1.43.53-1.43.53-1.43.53-1.43.54-1.43.54-1.43.54-1.43.54-1.43.54-1.43.54-1.43.54-1.43.54-1.43.54-1.43.54-1.43.53-1.43.53-1.43.53-1.43.53-1.43.52-1.43.52-1.43.51-1.43.51-1.43.5-1.43.5-1.43.49-1.43.48-1.43.48-1.43.47-1.43.46-1.43.45-1.43.45-1.43.44-1.43.43-1.43.42-1.43.41-1.43.4-1.43.39-1.43.38-1.43.37-1.43.36-1.43.35-1.43.33-1.43.32-1.43.31-1.43.3-1.43.28-1.43.27-1.43.26-1.43.25-1.43.23-1.43.22-1.43.2-1.43.19-1.43.18-1.43.16-1.43.15-1.43.13-1.43.12-1.43.1-1.43.09-1.43.07-1.43.06-1.43.04-1.43.03h-1.43s-1.43.01-1.43.01l-1.43-.02-1.43-.03-1.43-.05-1.43-.06-1.43-.08-1.43-.09-1.43-.11-1.43-.12-1.43-.13-1.43-.15-1.43-.16-1.43-.18-1.43-.19-1.43-.21-1.43-.22-1.43-.23-1.43-.25-1.43-.26-1.43-.27-1.43-.29-1.43-.3-1.43-.31-1.43-.32-1.43-.33-1.43-.35-1.43-.36-1.43-.37-1.43-.38-1.43-.39-1.43-.4-1.43-.41-1.43-.42-1.43-.43-1.43-.44-1.43-.45,4.6-4.05-4.6-44.25,2172.09-3.11V8.38Z"/>
</svg>