<?xml version="1.0" encoding="UTF-8"?>
<svg id="Layer_1" data-name="Layer 1" xmlns="http://www.w3.org/2000/svg" viewBox="0 0 1920 6.11">
  <defs>
    <style>
      .cls-1 {
        fill: #fff;
        stroke-width: 0px;
      }
    </style>
  </defs>
  <path class="cls-1" d="M0,0v6.05c12.11-.48,13.07-3.94,26.95-3.94,14.91,0,14.91,4,29.82,4s14.91-4,29.82-4,14.91,4,29.82,4,14.91-4,29.81-4,14.91,4,29.81,4,14.9-4,29.81-4,14.91,4,29.82,4,14.91-4,29.81-4,14.91,4,29.81,4,14.91-4,29.81-4,14.91,4,29.81,4,14.91-4,29.81-4,14.91,4,29.81,4,14.91-4,29.81-4,14.91,4,29.81,4,14.91-4,29.81-4,14.9,4,29.81,4,14.91-4,29.81-4,14.91,4,29.81,4,14.91-4,29.81-4,14.9,4,29.81,4,14.9-4,29.81-4,14.9,4,29.81,4,14.9-4,29.81-4,14.91,4,29.81,4,14.91-4,29.81-4,14.91,4,29.81,4,14.91-4,29.81-4,14.91,4,29.81,4,14.91-4,29.81-4,14.91,4,29.81,4,14.91-4,29.81-4,14.91,4,29.81,4,14.91-4,29.81-4,14.91,4,29.81,4,14.91-4,29.81-4,14.91,4,29.81,4,14.9-4,29.81-4,14.91,4,29.81,4,14.9-4,29.81-4,14.91,4,29.81,4,14.9-4,29.81-4,14.91,4,29.81,4,14.9-4,29.81-4,14.91,4,29.81,4,14.9-4,29.81-4,14.91,4,29.81,4,14.9-4,29.81-4,14.9,4,29.81,4,14.9-4,29.81-4,14.9,4,29.81,4,14.91-4,29.81-4,14.9,4,29.81,4,14.9-4,29.81-4,14.9,4,29.81,4,14.9-4,29.81-4,14.9,4,29.81,4,14.9-4,29.81-4,14.9,4,29.81,4,14.9-4,29.81-4,14.9,4,29.81,4,14.9-4,29.81-4,14.9,4,29.81,4c7.49,0,11.22-1.01,14.97-2.02V0H0Z"/>
</svg>