<?xml version="1.0" encoding="utf-8"?>
<!-- Generator: Adobe Illustrator 28.2.0, SVG Export Plug-In . SVG Version: 6.00 Build 0)  -->
<svg version="1.1" id="Capa_1" xmlns="http://www.w3.org/2000/svg" xmlns:xlink="http://www.w3.org/1999/xlink" x="0px" y="0px"
	 viewBox="0 0 88.61 117.71" style="enable-background:new 0 0 88.61 117.71;" xml:space="preserve">
<g>
	<path d="M47.35,0C75.3,0,88.61,14.47,88.61,31.23C88.45,76.6,11.84,73.64,11.84,99.62h31.73c18.58,0,25.32-4.27,33.21-17.59
		c1.64-2.96,2.96-5.42,6.41-5.42c3.12,0,5.92,2.3,5.1,6.9l-5.42,28.77c-0.66,3.12-2.63,5.42-7.56,5.42H5.42
		c-3.12,0-5.42-2.3-5.42-5.42V99.62c0-38.47,60.5-41.43,60.5-74.47c0-7.89-5.42-13.32-12-13.32c-21.54,0-15.95,32.38-33.54,32.38
		c-7.89,0-13.64-7.4-13.64-16.27C1.31,13.15,12.82,0,47.35,0L47.35,0z"/>
</g>
</svg>
