<?xml version="1.0" encoding="UTF-8"?>
<svg id="Capa_1" data-name="Capa 1" xmlns="http://www.w3.org/2000/svg" version="1.1" viewBox="0 0 88.6 117.7">
  <defs>
    <style>
      .cls-1 {
        fill: #000;
        stroke-width: 0px;
      }
    </style>
  </defs>
  <path class="cls-1" d="M47.3,0c28,0,41.3,14.5,41.3,31.2-.2,45.4-76.8,42.4-76.8,68.4h31.7c18.6,0,25.3-4.3,33.2-17.6,1.6-3,3-5.4,6.4-5.4s5.9,2.3,5.1,6.9l-5.4,28.8c-.7,3.1-2.6,5.4-7.6,5.4H5.4c-3.1,0-5.4-2.3-5.4-5.4v-12.7C0,61.2,60.5,58.2,60.5,25.2s-5.4-13.3-12-13.3c-21.5,0-16,32.4-33.5,32.4S1.3,36.8,1.3,27.9C1.3,13.1,12.8,0,47.3,0h0Z"/>
</svg>