<?xml version="1.0" encoding="UTF-8"?>
<svg id="Capa_1" data-name="Capa 1" xmlns="http://www.w3.org/2000/svg" version="1.1" viewBox="0 0 98 117.7">
  <defs>
    <style>
      .cls-1 {
        fill: #000;
        stroke-width: 0px;
      }
    </style>
  </defs>
  <path class="cls-1" d="M89.4,10.2l-28.6,37c21,1,37.2,10.8,37.2,32.9s-17.8,37.7-49.8,37.7c-34.4,0-48.2-17.4-48.2-32.4s6.2-18.7,14.5-18.7c20.1,0,10.2,39.3,33.7,39.3s20.9-12.7,20.9-25.8-3.1-22.8-16-22.8h-1.8c-5.8,0-9-5.8-5.6-10.2l22.4-28.9h-13.1c-18.6,0-25.3,4.3-33.2,17.6-1.6,3-3,5.4-6.4,5.4s-5.9-2.3-5.1-6.9L15.6,5.4c.7-3.1,2.6-5.4,7.6-5.4h60.7c5.8,0,9,5.8,5.6,10.2h0Z"/>
</svg>