<?xml version="1.0" encoding="utf-8"?>
<!-- Generator: Adobe Illustrator 28.2.0, SVG Export Plug-In . SVG Version: 6.00 Build 0)  -->
<svg version="1.1" id="Capa_1" xmlns="http://www.w3.org/2000/svg" xmlns:xlink="http://www.w3.org/1999/xlink" x="0px" y="0px"
	 viewBox="0 0 146.04 124.29" style="enable-background:new 0 0 146.04 124.29;" xml:space="preserve">
<style type="text/css">
	.st0{fill:#C9C04B;}
</style>
<g>
	<path class="st0" d="M130.84,36.11c-8.7-5.46-18.23-7-28.3-5.23c-6.01,1.05-11.54,3.33-16.51,6.87
		c-6.12,4.35-10.69,9.92-13.21,16.99c-0.71,1.98-1.22,4.09-1.6,6.16c-0.72,3.86-0.48,7.75,0.45,11.56
		c2.07,8.5,6.97,15.02,14.33,19.72c6.37,4.07,13.43,5.88,19.58,5.91c6.51-0.02,11.47-0.9,16.23-2.76
		c10.13-3.96,17.67-10.66,21.86-20.76c2.62-6.32,3.07-12.86,1.33-19.48C142.84,46.91,137.99,40.6,130.84,36.11z M129.34,69.57
		c-1.46,3.32-3.68,6.06-6.61,8.18c-7.5,5.42-15.71,6.78-24.5,3.74c-4.76-1.65-8.46-4.7-10.69-9.3c-1.18-2.43-1.61-5-1.46-7.69
		c0.29-5.44,3-9.63,6.98-13.07c4.85-4.19,10.6-6.11,15.24-6.13c6.55,0.01,11,1.2,14.96,3.91c3.88,2.65,6.47,6.22,7.31,10.88
		C131.16,63.35,130.68,66.52,129.34,69.57z"/>
	<path class="st0" d="M4.15,60.53C1.25,65.32,0,70.52,0,76.06c0,0.35-0.01,0.7,0,1.05c0.1,3.24,0.66,6.43,1.22,9.62
		c0.75,4.23,1.84,8.36,3.62,12.29c1.24,2.75,2.7,5.33,5.01,7.37c2.07,1.83,4.45,2.5,7.11,1.83c5.58-1.4,7.58-8.11,3.74-12.38
		c-0.59-0.66-1.24-1.35-1.58-2.15c-0.82-1.92-1.62-3.87-2.15-5.88c-0.93-3.57-1.62-7.2-1.79-10.89c-0.27-6.03,1.93-10.82,7.54-13.67
		c1.96-0.99,4-1.84,6.05-2.65c3.77-1.49,7.64-2.73,11.2-4.72c4.33-2.43,7.82-5.71,10.41-9.92c2.15-3.5,3.76-7.26,5.31-11.04
		c1.57-3.83,3.01-7.72,5.08-11.31c0.94-1.64,2.01-3.22,3.19-4.69c1.62-2.02,3.8-3.2,6.39-3.62c2.05-0.33,4.11-0.33,6.15-0.02
		c2.77,0.42,5.53,0.95,8.29,1.47c1.43,0.27,2.8,0.12,4.13-0.42c1.41-0.57,2.67-1.41,3.73-2.48c2.57-2.6,2.51-6.77-0.18-9.25
		c-1.48-1.36-3.18-2.42-5.25-2.73c-1.14-0.17-2.26-0.45-3.39-0.67c-4.29-0.85-8.6-1.4-13-1.1C65.8,0.42,61.21,1.92,57.1,4.84
		c-3.32,2.36-5.89,5.38-8.05,8.78c-2.58,4.06-4.47,8.46-6.31,12.88c-1.38,3.31-2.82,6.6-4.32,9.86c-1.59,3.46-4.22,5.9-7.77,7.33
		c-1.62,0.66-3.25,1.31-4.89,1.92c-3.85,1.44-7.69,2.9-11.28,4.92C10.15,52.97,6.72,56.3,4.15,60.53z"/>
	<path class="st0" d="M54.66,98.04c-1.19-3.93-5.11-6.12-9.09-5.17c-3.87,0.93-6.34,4.68-5.61,8.65c0.31,1.71,0.74,3.41,1.75,4.89
		c1.02,1.48,1.95,3.02,3.07,4.42c5.77,7.23,13.38,11.29,22.52,12.47c4.17,0.54,8.4,0.66,12.54,0.97c2.56,0.1,4.69-0.84,6.54-2.38
		c1.41-1.18,2.08-2.78,2.09-4.63c0.03-3.77-3.42-7.63-7.22-7.98c-3.7-0.33-7.41-0.52-11.1-0.83c-5.87-0.5-10.62-3.04-14.13-7.79
		C55.41,99.87,54.96,99.02,54.66,98.04z"/>
</g>
</svg>
