<?xml version="1.0" encoding="utf-8"?>
<!-- Generator: Adobe Illustrator 28.2.0, SVG Export Plug-In . SVG Version: 6.00 Build 0)  -->
<svg version="1.1" id="Capa_1" xmlns="http://www.w3.org/2000/svg" xmlns:xlink="http://www.w3.org/1999/xlink" x="0px" y="0px"
	 viewBox="0 0 114.27 156.38" style="enable-background:new 0 0 114.27 156.38;" xml:space="preserve">
<style type="text/css">
	.st0{fill:#C9C04B;}
</style>
<path class="st0" d="M0.25,32.84c-0.85-5.79,0.39-12.99,4.98-22.01c0,0,1.13-10.82,6.22-10.82c5.09,0,2.83,10.82,2.83,10.82
	s42.96-7.04,63.88,0c0,0,1.7-8.66,4.52-8.12c1.81,0.35,3.05,7.76,3.39,12.99c0.47,7.25-0.49,13.22-1.4,17.16
	c-0.44,1.27-0.97,2.61-1.58,4.02c-0.69,1.57-1.41,3.01-2.12,4.3c-0.58,0.95-1.51,2.38-2.81,4.02c-0.56,0.71-0.99,1.19-1.12,1.35
	c-7.43,8.52-5.09,13.53-4.52,22.19c0.56,8.66,6.13,59.19,8.48,70.89c0.36,1.79,0.39,3.43,0.15,4.92
	c10.01-5.11,19.48-21.65,18.78-34.15c-0.85-15.15,1.98-35.72,10.05-32.21c8.07,3.51,4.37,37.08-7.5,55.48
	c-11.87,18.4-27.68,19.72-27.68,19.72l0,0c-4.86,2.85-11.16,3.13-14.15,0.84c-4.7-3.6-6.66-11.31-7.19-13.81
	c-0.09-0.51-0.16-0.81-0.16-0.81s0.05,0.3,0.16,0.81c0.6,3.24,2.49,15.27-2.42,15.92c-6.22,0.83-4.54-14.7-5.82-21.05
	c-1.53-7.58-11.14-6.49-10.01,7.58c0,0,1.13,17.32-6.78,12.69c0,0-1.2-5.65-1.98-27.84c-1.14-32.73,4.24-63.86,5.37-68.19
	c0.69-2.66-17.33-4.92-26.54-15.77c-1-1.31-2.15-3.08-3.16-5.3C1.14,36.34,0.58,34.4,0.25,32.84z"/>
</svg>
