<?xml version="1.0" encoding="utf-8"?>
<!-- Generator: Adobe Illustrator 28.2.0, SVG Export Plug-In . SVG Version: 6.00 Build 0)  -->
<svg version="1.1" id="Capa_1" xmlns="http://www.w3.org/2000/svg" xmlns:xlink="http://www.w3.org/1999/xlink" x="0px" y="0px"
	 viewBox="0 0 117.88 120.5" style="enable-background:new 0 0 117.88 120.5;" xml:space="preserve">
<style type="text/css">
	.st0{fill:#C9C04B;}
</style>
<path class="st0" d="M115.34,65.46c1.42-0.05,2.53-1.25,2.48-2.67l-0.19-5.21c-0.13-3.64-3.2-6.49-6.84-6.35l-15.84,0.59
	c-0.11-5.25-0.17-10.57-0.11-15.99c0.02-2.37,0.08-4.71,0.13-7.05c7.4,0.45,14.28,1.18,20.53,2.05c1.42-0.11,2.48-1.35,2.37-2.77
	l-0.41-5.19c-0.28-3.63-3.46-6.35-7.09-6.07l-15.02,1.17c0.24-5.25,0.55-10.4,0.93-15.44C96.22,1.11,95.02,0,93.6,0.06L88.4,0.25
	c-3.64,0.13-6.49,3.2-6.35,6.84l0.44,11.89L69,20.03l0.9-12.6c0.26-3.64-2.48-6.79-6.11-7.05l-5.2-0.37
	c-0.71-0.05-1.37,0.19-1.87,0.62c-0.79,0.68-0.87,1.59-0.88,1.76c0.8,5.76,1.46,11.96,1.92,18.52l-28.38,2.22
	c-0.15-7.1-0.18-14.03-0.11-20.75c-0.11-1.42-1.35-2.48-2.77-2.37l-3.79,0.3c-4.41,0.34-7.7,4.2-7.36,8.61l1.19,15.22l-10.23,0.8
	c-3.63,0.28-6.35,3.46-6.07,7.09l0.41,5.19c0.06,0.71,0.39,1.33,0.89,1.76c0.79,0.68,1.7,0.62,1.87,0.61
	c4.42-1.35,9.11-2.65,14.02-3.85l1.48,18.9L6.48,55.09c-3.64,0.13-6.49,3.2-6.35,6.84l0.19,5.21c0.03,0.71,0.34,1.34,0.82,1.79
	c0.76,0.71,1.68,0.69,1.85,0.69c5.37-1.09,11.01-2.1,16.87-3l1.56,19.95c-5.09-0.83-9.93-1.73-14.46-2.69
	c-3.64-0.11-6.69,2.75-6.8,6.39L0,95.48c-0.02,0.71,0.25,1.36,0.7,1.84c0.71,0.76,1.63,0.8,1.8,0.81c6.57,0.06,13.2,0.15,19.85,0.26
	l1.14,14.52c0.34,4.41,4.2,7.7,8.61,7.36l3.79-0.3c0.71-0.06,1.33-0.39,1.76-0.89c0.68-0.79,0.62-1.7,0.61-1.87
	c-1.01-6-1.96-12.2-2.84-18.54c3.4,0.07,6.78,0.13,10.21,0.22c2.2,0.06,4.38,0.13,6.58,0.19c-1.42,6.56-2.98,12.65-4.58,18.21
	c-0.1,1.42,0.97,2.65,2.39,2.75l5.2,0.37c3.64,0.26,6.79-2.48,7.05-6.11l1.07-14.9c7.45,0.24,14.83,0.52,22.18,0.83l0.52,13.93
	c0.13,3.64,3.2,6.49,6.84,6.35l5.21-0.19c0.71-0.03,1.34-0.34,1.79-0.82c0.71-0.76,0.69-1.68,0.69-1.85
	c-0.82-5.46-1.56-11.1-2.24-16.87c5.55,0.26,11.07,0.53,16.57,0.81c1.42,0.04,2.61-1.07,2.65-2.5l0.28-9.23
	c0.02-0.71-0.25-1.36-0.7-1.84c-0.71-0.76-1.63-0.8-1.8-0.81c-5.64,0.84-11.73,1.58-18.22,2.16c-0.79-8.33-1.37-16.98-1.76-25.88
	C102.25,63.96,108.94,64.63,115.34,65.46z M82.83,28.32l0.89,23.91l-17.07,0.63l1.74-24.35C73.37,28.31,78.18,28.25,82.83,28.32z
	 M30.49,49.92c-0.36-5.72-0.63-11.34-0.83-16.86c3.74-0.73,7.59-1.4,11.56-1.99c5.82-0.86,11.49-1.49,17-1.93
	c0.25,6.08,0.31,12.44,0.13,19.06c-0.05,1.68-0.11,3.34-0.19,4.98l-27.38,1.01C30.69,52.77,30.58,51.36,30.49,49.92z M34.06,88.35
	c-0.93-7.55-1.75-15.33-2.43-23.33c8.24-0.97,16.9-1.7,25.92-2.07c-0.79,9.67-2.04,18.73-3.57,27.13
	C47.02,89.7,40.37,89.11,34.06,88.35z M63.95,90.46l1.99-27.75c5.91-0.1,11.97-0.05,18.17,0.18l1.01,27.29
	C78.41,90.5,71.34,90.61,63.95,90.46z"/>
</svg>
