<?xml version="1.0" encoding="utf-8"?>
<!-- Generator: Adobe Illustrator 28.2.0, SVG Export Plug-In . SVG Version: 6.00 Build 0)  -->
<svg version="1.1" id="Capa_1" xmlns="http://www.w3.org/2000/svg" xmlns:xlink="http://www.w3.org/1999/xlink" x="0px" y="0px"
	 viewBox="0 0 154.01 162.32" style="enable-background:new 0 0 154.01 162.32;" xml:space="preserve">
<style type="text/css">
	.st0{fill:#C9C04B;}
</style>
<g>
	<path class="st0" d="M115.94,95.7c-0.49-0.66-1.21-1.04-2.02-1.08h0c-3.4-0.17-5.97,2.96-7.68,5.03c-0.21,0.25-0.4,0.49-0.58,0.7
		c-4.61,5.4-7.75,12.96-9.88,23.78c-0.32,1.61-0.55,3.22-0.7,4.86c-0.42-0.74-0.87-1.47-1.37-2.18c-1.2-1.71-4.21-6.05-5.46-7.83
		c0.63-2.12,2.24-7.42,3.37-10.74c0.61-1.78,1.24-3.54,1.86-5.3c1.78-5.01,3.63-10.18,4.91-15.54c0.47-1.97,0.68-3.95,0.88-5.87
		l0.05-0.47l0.5-1.45l-1.45-0.84c-2.39-1.38-6.82,2.89-9.25,5.55c-6.2,6.79-8.55,17.24-9.4,22.87l-0.21,1.35
		c-0.17,1.07-0.33,2.17-0.48,3.28c-2.09-2.04-4.66-4.48-5.85-5.3c-6.56-4.53-12.64-8.04-18.52-10.71c0.76-1.78,1.14-3.01,1.21-3.96
		c1.02-12.93-3.82-19.13-8.95-25.69l-0.88-1.14c-3.43-4.42-16.96-10.05-21.92-7.16c-1.51,0.88-2.48,2.17-2.79,3.74
		c-0.23,1.17-0.07,2.34,0.24,3.37c-1.56,0.38-3.21,1.4-4.5,3.56c-0.95,1.58-0.89,3.52-0.55,5.15c-1.57,0.18-3.21,0.92-4.33,2.78
		c-1.17,1.93-1.25,3.84-0.98,5.36c-0.87,0.31-1.86,0.9-2.94,1.92c-2.85,2.7-1.63,5.62-0.43,7.61c-1.24,0.47-2.29,1.24-3.17,2.35
		c-1.63,2.04-1.75,3.88-1.57,5.07c0.06,0.39,0.16,0.76,0.28,1.1c-0.01,0-0.03,0.01-0.04,0.01c-2.28,0.66-3.59,2.8-3.34,5.46
		c0.59,6.19,7.54,9.5,13.32,10.45c10.69,1.76,18.28,1.52,27.72-4.76c0.69-0.46,1.43-0.89,2.21-1.34c2.36-1.37,4.99-2.9,7.16-5.74
		c0.03,0.01,0.06,0.02,0.1,0.03c1.31,0.44,2.55,0.86,3.73,1.44c4.12,2.02,8.61,5.15,12.51,7.93c7.24,5.17,12.86,12.82,18.3,20.23
		l0.59,0.8c3.27,4.45,5.79,9.08,8.45,13.99c1.11,2.04,2.26,4.16,3.46,6.24c0.13,0.23,0.45,0.84,0.84,1.59
		c2.7,5.21,3.2,6.18,4.52,6.18c0.09,0,0.19,0,0.3-0.01c0.07-0.01,7.41-0.86,8.24-2.92c0.37-0.93,0.99-2.48-7.78-15.16
		c1.61-2.72,5.45-9.27,6.34-11.68c2.31-6.25,2.98-10.96,3.69-15.95c0.42-2.96,0.86-6.01,1.66-9.67l0.11-0.49
		C116.97,100.14,117.09,97.23,115.94,95.7z"/>
	<path class="st0" d="M64.45,85.42c1.67,2.47,2.7,2.4,4.23,4.96c2.17,3.63,3.71,9.09,7.38,11.82c0.06,0.04,0.05-0.14,0.08-0.21
		c0.38-1.02,0.8-2,1.22-3c0.88-2.07,1.8-4.11,2.32-6.31c1.55-6.55,3.6-12.61,6.45-18.7c4.94-10.54,10.54-22.4,11.22-30.73
		c1.05-13.03-4.85-21.05-5.02-29.72C92.26,9.82,93.6,3.35,92.07,0c-0.05-0.11-3.1,2.5-3.25,2.67c-2.47,2.77-3.53,6.44-5.64,9.42
		c-5.49,7.78-2.72,14.71-3.11,28.45c-0.13,4.58-4.38,13.2-4.38,18.47c0,4.47,0.85,6.75,0,11.13c-2.03,10.5-1.39,20.89-1.39,20.89
		s-4.21-5.71-3.4-13.24c0.42-3.92-0.36-10.67,0-16.41c0.6-9.46-0.54-16.35-3.28-25.25c-0.6-1.95-1.4-13.7-3.5-13.5
		c-3.91,0.39-6.93,11.71-7.71,14.78c-0.97,3.79-4.44,11.54-4.17,16.13C53.41,73.66,58.2,77.17,64.45,85.42z"/>
	<path class="st0" d="M152.1,60.3c-0.7-0.88-4.67-3.19-4.97-4.15c-0.65-2.04,2.87-4.36,2.92-6.48c0.11-4.38-4.08-10.05-8.34-11.16
		c-5.63-1.46-7.77,3.08-9.43,3.64c-0.42,0.14-0.9-3.88-3.85-6.23c-2.13-1.7-4.89-3.39-10.61-1.38c-14.36,5.05-16.41,9.5-16.1,16.27
		c0.09,2.02,1.63,3.96,2.67,5.62c-4.39-0.6-6.84,4.76-7.02,8.55c-0.26,5.23,3.59,11.67,7.92,14.44c2.63,1.68,6.37-0.25,6.37-0.25
		s2.69,4.62,4.31,6.3c4.5,4.66,12.85,3.99,18.09,1.48c1.83-0.88,3.84-2.89,4.48-4.85c0.35-1.08,0.28-3.4,0.28-3.4
		s4.24,1.52,5.39,1.56c3.78,0.14,8.27-5.25,9.04-8C154.26,68.58,154.62,63.47,152.1,60.3z"/>
</g>
</svg>
