<?xml version="1.0" encoding="utf-8"?>
<!-- Generator: Adobe Illustrator 28.2.0, SVG Export Plug-In . SVG Version: 6.00 Build 0)  -->
<svg version="1.1" id="Capa_1" xmlns="http://www.w3.org/2000/svg" xmlns:xlink="http://www.w3.org/1999/xlink" x="0px" y="0px"
	 viewBox="0 0 95.39 136.12" style="enable-background:new 0 0 95.39 136.12;" xml:space="preserve">
<style type="text/css">
	.st0{fill:#C9C04B;}
</style>
<path class="st0" d="M92.4,76.54c0.29-0.96,0.61-1.91,0.86-2.88c0.25-0.96,0.41-1.96,0.48-2.95c0.07-0.98,0.08-1.98,0.06-2.96
	c-0.02-1-0.07-1.99-0.14-2.99c-0.07-1.01-0.16-2.01-0.22-3.01c-0.06-0.97-0.12-1.95-0.25-2.92c-0.06-0.44-0.12-0.88-0.2-1.33
	c-0.17-0.99-0.33-1.99-0.69-2.93c-0.35-0.9-0.79-1.77-1.24-2.62c-0.88-1.68-1.9-3.3-3.14-4.74c-1.29-1.5-2.82-2.81-4.58-3.74
	c-0.89-0.47-1.81-0.86-2.74-1.22c-0.92-0.35-1.84-0.72-2.76-1.06c-1.88-0.7-3.81-1.28-5.76-1.72c-0.99-0.23-2-0.42-3-0.6
	c-0.17-0.03-0.34-0.05-0.5-0.08c0.83-0.37,1.64-0.75,2.47-1.12c1.8-0.82,3.52-1.77,5.26-2.71c-0.01,0.01-0.03,0.02-0.05,0.04
	c0.12-0.06,0.24-0.12,0.35-0.19c0.03-0.01,0.07-0.03,0.1-0.05c0.06-0.03,0.13-0.06,0.2-0.1c0.7-0.38,1.41-0.76,2.11-1.15
	c0.73-0.42,1.45-0.87,2.16-1.33c0.68-0.45,1.36-0.92,2.03-1.39c0.68-0.47,1.35-0.93,2.01-1.41c0.79-0.57,1.57-1.14,2.3-1.8
	c0.73-0.66,1.44-1.35,2.11-2.08c1.37-1.46,2.78-2.93,3.79-4.66c0.99-1.71,1.43-3.66,1.75-5.59c0.08-0.47,0.13-0.94,0.17-1.41
	c0.05-0.58,0.09-1.19-0.01-1.76c-0.1-0.56-0.28-1.11-0.66-1.56c-0.29-0.35-0.67-0.68-1.11-0.83c-0.56-0.19-1.14-0.25-1.72-0.16
	c-0.28,0.04-0.55,0.09-0.82,0.17c-1.9,0.52-3.73,1.3-5.47,2.23c-0.89,0.48-1.78,0.97-2.66,1.47c-0.89,0.52-1.77,1.04-2.63,1.6
	c-1.69,1.1-3.34,2.26-4.92,3.52c-0.78,0.62-1.54,1.26-2.3,1.9c-0.75,0.63-1.51,1.25-2.25,1.9c-1.51,1.33-2.92,2.77-4.31,4.23
	c-0.68,0.71-1.36,1.43-2.02,2.17c-0.05,0.05-0.09,0.1-0.14,0.15c0.05-0.27,0.09-0.54,0.11-0.81c0.1-0.96,0.23-1.92,0.32-2.89
	c0.09-0.99,0.13-1.97,0.09-2.96c-0.02-0.49-0.07-0.97-0.09-1.46c-0.03-0.45-0.02-0.9,0-1.35c0.05-0.84,0.16-1.67,0.2-2.5l0.01-0.16
	c0.01-0.09,0.01-0.17,0.01-0.26c0.02-0.15,0.01-0.31,0.01-0.45c0-0.41-0.01-0.83-0.07-1.24c-0.23-1.45-1.1-2.93-2.4-3.67
	c-1.21-0.69-2.64-0.71-3.99-0.57c-0.99,0.1-1.99,0.27-2.92,0.66c-0.93,0.4-1.8,0.89-2.59,1.52c-0.78,0.63-1.54,1.29-2.23,2.03
	c-0.69,0.76-1.33,1.54-1.95,2.36c-0.58,0.77-1.13,1.57-1.66,2.37c-0.56,0.84-1.08,1.71-1.61,2.56c-0.74,1.18-1.51,2.34-2.19,3.55
	c-0.34,0.6-0.63,1.24-0.93,1.87c-0.29,0.61-0.56,1.23-0.84,1.84c-0.1,0.21-0.19,0.42-0.3,0.63c-0.23,0.5-0.47,1.02-0.73,1.51
	c-0.26,0.5-0.54,0.98-0.83,1.46c-0.47,0.74-0.96,1.46-1.52,2.14c-0.25,0.28-0.5,0.55-0.78,0.81c-0.04,0.03-0.07,0.06-0.1,0.09
	c0.05-0.26,0.1-0.53,0.15-0.79c0.09-0.45,0.18-0.9,0.26-1.35c0.07-0.44,0.13-0.87,0.2-1.3c0.13-0.89,0.28-1.77,0.41-2.65
	c0.13-0.87,0.25-1.73,0.39-2.59c0.24-1.3,0.57-2.6,0.74-3.92c0.08-0.66,0.11-1.32,0.15-1.99c0.04-0.68,0.09-1.37,0.12-2.05
	c0.03-0.87,0.04-1.72,0.06-2.59c0.03-0.91,0.07-1.82,0.08-2.72c0.03-1.76,0.09-3.52,0.03-5.28c-0.03-0.87-0.08-1.75-0.24-2.61
	c-0.09-0.44-0.17-0.89-0.3-1.32c-0.13-0.46-0.3-0.9-0.49-1.35c-0.37-0.85-0.91-1.67-1.65-2.25c-0.34-0.27-0.71-0.51-1.1-0.7
	c-0.71-0.34-1.48-0.59-2.27-0.41c-0.37,0.09-0.74,0.25-1.07,0.46c-0.19,0.12-0.38,0.24-0.56,0.39c-0.37,0.31-0.71,0.64-1.03,1
	c-0.6,0.66-1.1,1.41-1.54,2.19c-0.45,0.79-0.86,1.61-1.27,2.44c-0.37,0.75-0.74,1.5-1.09,2.26c-0.01,0.01-0.01,0.03-0.01,0.04
	c-0.01,0.02-0.02,0.03-0.03,0.05c-0.07,0.15-0.14,0.29-0.2,0.43c-0.81,1.75-1.38,3.6-1.79,5.47c-0.19,0.87-0.35,1.74-0.54,2.6
	c-0.2,0.9-0.36,1.81-0.48,2.72c-0.13,0.88-0.23,1.77-0.29,2.65c-0.06,0.9-0.15,1.8-0.23,2.7c-0.08,0.91-0.12,1.81-0.17,2.72
	c-0.05,0.88-0.1,1.76-0.15,2.65c-0.03,0.53-0.05,1.07-0.07,1.6c-0.17-0.43-0.34-0.86-0.51-1.29c-0.31-0.76-0.59-1.52-0.96-2.25
	c-0.39-0.78-0.81-1.55-1.28-2.29c-0.48-0.78-1.01-1.51-1.64-2.18c-0.59-0.62-1.23-1.24-1.94-1.71c-0.48-0.32-0.99-0.56-1.57-0.68
	c-0.46-0.1-1-0.11-1.45,0.04c-0.36,0.13-0.66,0.31-0.95,0.56c-0.68,0.58-1.02,1.43-1.27,2.28c-0.25,0.86-0.45,1.74-0.66,2.62
	c-0.2,0.82-0.41,1.63-0.61,2.44c-0.22,0.88-0.44,1.76-0.55,2.66c-0.11,0.85-0.13,1.7-0.07,2.56c0.05,0.88,0.18,1.75,0.36,2.61
	c0.18,0.85,0.44,1.68,0.69,2.51c0.14,0.47,0.27,0.94,0.41,1.4c-0.07-0.09-0.13-0.19-0.18-0.29c-0.11-0.18-0.21-0.35-0.35-0.51
	c-0.32-0.37-0.7-0.68-1.05-1c-0.59-0.53-1.2-1.05-1.86-1.51c-0.58-0.41-1.18-0.79-1.79-1.17c-0.32-0.19-0.61-0.41-0.94-0.59
	c-0.35-0.2-0.7-0.35-1.08-0.47c-0.2-0.06-0.41-0.1-0.61-0.12c-0.35-0.03-0.73-0.04-1.06,0.08c-0.45,0.17-0.84,0.42-1.16,0.78
	c-0.55,0.63-0.94,1.41-1.15,2.22c-0.23,0.89-0.26,1.81-0.03,2.7c0.22,0.86,0.57,1.66,1,2.44c0.44,0.78,0.99,1.5,1.54,2.21
	c1.5,1.96,3.37,3.61,4.93,5.51c0.33,0.41,0.7,0.79,1.09,1.15c-0.2,0.15-0.4,0.29-0.6,0.45c-1.57,1.24-3.05,2.6-4.48,4
	c-4.57,4.5-4.39,12.44-2.16,17.98c0.01,0.03,0.03,0.07,0.04,0.1c0.79,1.94,1.72,3.82,2.5,5.76c0.68,1.69,1.09,3.47,2.01,5.06
	c0,0.01,0.01,0.01,0.01,0.02c0,0.01,0.01,0.01,0.01,0.02c0.33,0.78,0.66,1.54,1,2.3c0.3,0.7,0.62,1.39,0.99,2.06
	c0.39,0.71,0.85,1.37,1.3,2.05c0.43,0.64,0.85,1.3,1.25,1.97c0.54,0.95,1.04,1.93,1.59,2.89c-0.01-0.01-0.01-0.02-0.02-0.03
	c0.03,0.05,0.05,0.09,0.08,0.13c0.02,0.03,0.04,0.06,0.05,0.09c0.14,0.24,0.28,0.47,0.41,0.7c0.89,1.52,1.66,3.1,2.67,4.55
	c0.48,0.69,1.01,1.34,1.55,1.99c0.54,0.66,1.08,1.33,1.63,1.98c0.62,0.73,1.28,1.42,1.95,2.09c0.7,0.7,1.41,1.39,2.15,2.05
	c0.69,0.62,1.42,1.21,2.14,1.8c0.76,0.63,1.5,1.29,2.2,1.98c0.59,0.6,1.16,1.23,1.7,1.87c0.59,0.7,1.13,1.43,1.74,2.11
	c0.62,0.69,1.26,1.36,1.87,2.06c0.62,0.73,1.23,1.47,1.82,2.23c-0.01-0.02-0.03-0.04-0.04-0.05c0.02,0.03,0.04,0.05,0.06,0.08
	c0.44,0.59,0.86,1.19,1.26,1.81c0.56,0.84,1.17,1.62,1.84,2.38c0.64,0.73,1.25,1.48,1.9,2.2c0.59,0.67,1.26,1.27,1.9,1.88
	c0.64,0.61,1.32,1.19,1.95,1.82c0.44,0.46,0.86,0.94,1.35,1.35c0.39,0.32,0.8,0.6,1.27,0.8c0.45,0.19,0.92,0.31,1.41,0.36
	c0.14,0.02,0.28,0.03,0.42,0.04c0.79,0.05,1.59,0.02,2.37,0c0.97-0.03,1.93-0.07,2.88-0.22c0.98-0.15,1.95-0.33,2.91-0.58
	c0.91-0.24,1.82-0.51,2.72-0.8c0.89-0.29,1.8-0.55,2.69-0.86c0.45-0.16,0.9-0.33,1.35-0.5c0.47-0.18,0.93-0.36,1.38-0.58
	c0.9-0.44,1.74-1,2.48-1.69c1.45-1.36,2.52-3.09,3.44-4.84c0.45-0.87,0.89-1.74,1.32-2.62c0.41-0.84,0.79-1.69,1.21-2.52
	c0.45-0.91,0.89-1.83,1.31-2.76c0.4-0.91,0.78-1.83,1.15-2.75c0.36-0.89,0.73-1.77,1.09-2.65c0.36-0.87,0.7-1.75,1.05-2.62
	c0.47-1.07,0.98-2.11,1.52-3.14c0.54-1.02,1.12-2.02,1.66-3.04c0.46-0.87,0.93-1.73,1.39-2.61c0.47-0.91,0.94-1.82,1.39-2.74
	c0.44-0.91,0.89-1.81,1.35-2.71c0.44-0.86,0.85-1.74,1.26-2.62c0.86-1.83,1.77-3.64,2.69-5.44c0.46-0.91,0.95-1.8,1.36-2.73
	c0.2-0.46,0.39-0.93,0.56-1.4c0.17-0.49,0.32-0.98,0.49-1.47c0.32-0.93,0.68-1.85,0.99-2.79C91.82,78.47,92.11,77.51,92.4,76.54z"/>
</svg>
