<?xml version="1.0" encoding="utf-8"?>
<!-- Generator: Adobe Illustrator 28.2.0, SVG Export Plug-In . SVG Version: 6.00 Build 0)  -->
<svg version="1.1" id="Capa_1" xmlns="http://www.w3.org/2000/svg" xmlns:xlink="http://www.w3.org/1999/xlink" x="0px" y="0px"
	 viewBox="0 0 71.1 60.45" style="enable-background:new 0 0 71.1 60.45;" xml:space="preserve">
<style type="text/css">
	.st0{fill:#FFFFFF;}
</style>
<g>
	<g>
		<g>
			<path class="st0" d="M9.94,27.53C9.03,17.79,7.32,15.49,0,14.39c8.54-0.42,9.38-6.52,10.01-12.93c0.13,0.94,0.24,1.88,0.39,2.81
				c0.15,0.94,0.29,1.89,0.53,2.82c1.16,4.59,3.14,6.61,7.79,7.31c0.36,0.05,0.07,0.01,1.05,0.14C11.16,14.9,10.72,21.34,9.94,27.53
				z"/>
			<path class="st0" d="M16.69,5.73c3.03-0.74,3.95-2.75,4.35-5.73c0.57,2.83,1.29,5,4.08,5.72c-2.89,0.65-3.53,2.89-4.05,5.74
				C20.6,8.57,19.86,6.38,16.69,5.73z"/>
		</g>
		<path class="st0" d="M29.42,60.29c-0.77-0.14-1.18-0.3-1.74-0.56c-2.13-1.02-3.39-2.73-3.89-5.09c-0.93,0-1.81,0-2.69,0
			c-1.36-0.01-1.7-0.33-1.7-1.67c-0.01-3.52,0-7.03,0-10.55c0-6.77,0-13.54,0-20.31c0-1.73,0.21-1.95,1.9-1.95
			c9.18,0,18.36,0,27.55,0c1.89,0,2.02,0.12,2.04,1.99c0,0.29,0.03,0.58,0.05,1.01c0.42,0,0.8,0,1.18,0
			c2.99,0.03,5.99,0.07,8.98,0.13c8.13,0.14,10.02,8.52,10.02,9.47c0,7.1,0,14.2,0,21.31c-0.3,0.45-1.19,0.49-1.8,0.54
			c-1.01,0.09-2.02,0.02-3.07,0.02c-0.48,2.19-1.6,3.87-3.54,4.9c-0.65,0.35-0.82,0.56-2.07,0.84c-0.69,0.09-1.05,0.08-1.87,0
			c-0.44-0.06-0.79-0.17-1.04-0.24c-2.41-0.72-4.03-2.25-4.79-4.66c-0.09-0.27-0.18-0.54-0.27-0.8c-5.15,0-10.23,0-15.35,0
			c-0.38,1.71-1.6,3.53-2.57,4.2c-0.82,0.59-1.45,1.08-3.18,1.41C30.76,60.39,30.17,60.39,29.42,60.29z M48.73,37.45
			c0-4.63-0.03-9.27,0.02-13.9c0.01-0.95-0.26-1.21-1.21-1.21c-8.23,0.04-16.46,0.03-24.69,0c-0.92,0-1.24,0.21-1.24,1.19
			c0.04,9.27,0.02,18.54,0.03,27.81c0,0.42-0.01,1.03,0.56,1.1c0.66,0.07,1.46,0.39,1.79-0.78c0.88-3.09,3.44-4.92,6.6-4.92
			c3.15,0,5.62,1.86,6.55,4.98c0.17,0.59,0.44,0.76,1.03,0.75c3.16-0.02,6.32-0.04,9.48,0.01c0.89,0.02,1.1-0.27,1.1-1.12
			C48.71,46.72,48.73,42.08,48.73,37.45z M51.01,25.4c0,9.07,0,18.04,0,27.02c0.62,0,1.14,0,1.64,0c1.27-3.69,3.38-5.56,6.32-5.68
			c1.53-0.06,2.94,0.22,4.23,1.06c1.68,1.1,2.64,2.69,3.07,4.6c0.92,0,1.81,0,2.69,0c0-0.38,0-0.55-0.01-0.94
			c0-5.72,0.02-11.44,0-17.16c-0.02-5.01-3.96-8.93-8.98-8.95c-2.67-0.01-5.33,0-8,0C51.64,25.35,51.32,25.38,51.01,25.4z
			 M35.21,53.52c-0.01-2.56-2.07-4.62-4.63-4.63c-2.57-0.01-4.74,2.15-4.72,4.7c0.03,2.51,2.17,4.63,4.68,4.64
			C33.13,58.23,35.22,56.13,35.21,53.52z M54.81,53.51c-0.03,2.54,2.03,4.67,4.57,4.71c2.57,0.04,4.75-2.07,4.79-4.63
			c0.04-2.49-2.08-4.66-4.6-4.71C56.97,48.83,54.85,50.9,54.81,53.51z"/>
		<path class="st0" d="M59.85,39.75c-1.81,0-3.62,0.01-5.43,0c-1.07-0.01-1.36-0.29-1.36-1.36c-0.01-3.19-0.01-6.38,0-9.57
			c0.01-1.01,0.36-1.36,1.38-1.37c1.91-0.02,3.82-0.05,5.73,0.01c3.8,0.12,6.6,3.04,6.61,6.82c0,1.38-0.02,2.76,0.01,4.14
			c0.02,0.92-0.4,1.32-1.31,1.32C63.6,39.74,61.72,39.75,59.85,39.75z M55.31,29.66c-0.06,0.13-0.13,0.22-0.13,0.31
			c-0.01,2.37-0.04,4.73,0.01,7.1c0,0.2,0.5,0.54,0.77,0.56c1.48,0.06,2.96,0.03,4.44,0.03c1.38,0,2.75,0,4.23,0
			c0-1.26,0.04-2.41-0.01-3.55c-0.11-2.33-1.68-4.17-4.01-4.41C58.86,29.52,57.07,29.66,55.31,29.66z"/>
		<path class="st0" d="M66.77,45.21c0,0.46,0.13,0.97-0.04,1.36c-0.17,0.4-0.58,0.87-0.97,0.97c-0.62,0.17-1.08-0.29-1.11-0.93
			c-0.05-0.98-0.11-1.97,0.04-2.93c0.06-0.37,0.62-0.86,1.02-0.93c0.59-0.11,1.04,0.32,1.06,1C66.78,44.23,66.77,44.72,66.77,45.21z
			"/>
		<path class="st0" d="M30.56,56.29c-1.56,0-2.75-1.17-2.76-2.71c-0.01-1.55,1.17-2.77,2.7-2.79c1.58-0.02,2.85,1.22,2.84,2.77
			C33.32,55.08,32.09,56.29,30.56,56.29z"/>
		<path class="st0" d="M62.21,53.59c-0.01,1.56-1.18,2.71-2.76,2.7c-1.55-0.01-2.75-1.2-2.75-2.73c0-1.58,1.25-2.79,2.83-2.77
			C61.06,50.81,62.22,52.02,62.21,53.59z"/>
	</g>
</g>
</svg>
