<?xml version="1.0" encoding="utf-8"?>
<!-- Generator: Adobe Illustrator 28.2.0, SVG Export Plug-In . SVG Version: 6.00 Build 0)  -->
<svg version="1.1" id="Capa_1" xmlns="http://www.w3.org/2000/svg" xmlns:xlink="http://www.w3.org/1999/xlink" x="0px" y="0px"
	 viewBox="0 0 117.22 145.67" style="enable-background:new 0 0 117.22 145.67;" xml:space="preserve">
<style type="text/css">
	.st0{fill:#FFFFFF;}
</style>
<g>
	<path class="st0" d="M3.45,53.99c0.59,10.21,8.83,18.78,19.34,20.31c-1.78,4.21-2.22,8.8-1.27,13.35c1.2,5.8,4.65,10.89,9.46,13.94
		c5.05,3.19,11.38,4.07,17.37,2.41c4.65-1.29,8.8-4.05,11.77-7.82c3.03,3.97,7.31,6.87,12.14,8.21c2.03,0.57,4.1,0.85,6.14,0.85
		c4.07,0,8.04-1.12,11.4-3.28c4.76-3.07,8.16-8.18,9.32-14.03c0.92-4.64,0.43-9.32-1.42-13.59c4.78-0.66,9.29-2.85,12.78-6.23
		c4.49-4.35,6.94-10.26,6.72-16.2c-0.2-5.57-2.76-11.02-7.02-14.96c-3.44-3.18-7.63-5.19-12.19-5.85c1.8-4.84,1.96-10.17,0.44-15.11
		C96.58,9.96,92.45,5.07,87.08,2.57c-8.93-4.16-19.94-1.41-26.54,6.54c-3.56-4.43-8.53-7.47-14.08-8.62
		c-6.38-1.31-12.75,0.02-17.48,3.64C21.35,10,18.8,21.44,22.85,31.09c-4.89,0.72-9.46,3.03-12.97,6.55
		c-4.1,4.12-6.45,9.66-6.45,15.2c0,0.25,0.01,0.5,0.01,0.76L3.45,53.99z M27.08,36.26l5.31,0.28l-2.91-4.44
		c-5.17-7.89-3.92-18.52,2.81-23.68c3.48-2.68,8.26-3.64,13.11-2.64c5.41,1.11,10.06,4.54,12.78,9.4l2.33,4.17l2.36-4.15
		c4.47-7.82,14.32-11.3,21.95-7.75c3.99,1.87,7.08,5.55,8.49,10.11c1.5,4.89,0.86,10.22-1.77,14.62l-2.55,4.28l4.97-0.2
		c4.69-0.19,9.14,1.47,12.58,4.65c3.22,2.98,5.15,7.06,5.3,11.2c0.15,4.44-1.71,8.86-5.1,12.13c-3.56,3.44-8.4,5.22-13.31,4.89
		l-5.59-0.38l3.2,4.61c2.76,3.98,3.76,8.78,2.82,13.53c-0.88,4.43-3.41,8.27-6.95,10.55c-3.75,2.42-8.55,3.07-13.17,1.78
		c-4.87-1.36-8.93-4.73-11.13-9.25l-2.39-4.89l-2.44,4.87c-2.17,4.34-6.12,7.57-10.83,8.88c-4.54,1.25-9.29,0.61-13.04-1.77
		c-3.59-2.27-6.16-6.09-7.07-10.48c-0.96-4.63-0.02-9.33,2.63-13.22l3.08-4.52l-5.46,0.31c-9.35,0.54-17.7-6.54-18.22-15.44
		c-0.26-4.41,1.51-8.87,4.86-12.24C17.24,37.89,22.11,35.99,27.08,36.26z"/>
	<path class="st0" d="M60.06,75.61c12.75,0,23.12-10.37,23.12-23.12S72.81,29.37,60.06,29.37S36.94,39.74,36.94,52.49
		S47.31,75.61,60.06,75.61z M42.33,52.49c0-9.78,7.95-17.73,17.73-17.73s17.73,7.95,17.73,17.73s-7.95,17.73-17.73,17.73
		S42.33,62.26,42.33,52.49z"/>
	<path class="st0" d="M109.24,110.61l-67.15-0.01c-12.11,0-24.23,0-36.34,0.01c-3.49,0-5.74,2.27-5.74,5.77v12.66
		c0,3.56,0,7.13,0.01,10.69c0.01,3.77,2.17,5.93,5.93,5.93l103.32-0.01c3.79,0,5.97-2.18,5.97-5.99v-23.08
		C115.22,112.79,113.04,110.61,109.24,110.61z M5.61,139.99c-0.03-6.5-0.03-13.09-0.03-19.48v-4.27c0.95-0.03,9.9-0.04,10.55-0.03
		c0.01,1.2,0.01,2.4,0.01,3.59l-0.01,1.57l0,0.5c0.06,1.78,1.18,2.99,2.79,3c0.73,0,1.42-0.26,1.92-0.75
		c0.56-0.55,0.87-1.37,0.88-2.29c0.01-1.34,0.01-2.67,0.01-4.01v-1.55c0,0,9.08-0.07,9.8-0.08v5.32c0,2.42,1.4,3.32,2.71,3.35
		c0.97,0.02,1.59-0.37,1.94-0.71c0.62-0.6,0.93-1.47,0.93-2.65c0.01-0.89,0-1.79,0-2.68l0-2.58l9.84,0.03l0,4.26
		c0,0.47,0,0.94,0.01,1.41c0.04,1.74,1.19,2.89,2.82,2.91c1.6-0.03,2.73-1.25,2.74-2.97c0.01-1.33,0.01-2.66,0.01-3.99v-1.65
		l9.79,0.01l0,3.36c0,0.75,0,1.51,0.01,2.26c0.01,0.91,0.32,1.68,0.9,2.25c0.53,0.51,1.21,0.77,1.98,0.74
		c1.59-0.04,2.72-1.27,2.73-2.98c0.01-1.07,0.01-2.13,0.01-3.2l0-2.43l9.77,0.02l0,4.38c0,0.45,0,0.89,0.01,1.34
		c0.04,1.64,1.15,2.82,2.7,2.87c0.75,0.02,1.47-0.24,1.98-0.74c0.56-0.54,0.87-1.31,0.88-2.16c0.01-1.12,0.01-2.25,0.01-3.37l0-2.3
		c0,0,19.91-0.09,26.01-0.08c0.08,0,0.24,0,0.36,0.01c0.01,0.13,0.01,0.3,0.01,0.39v23.09c0,0.11,0,0.27-0.01,0.4
		c-0.13,0.01-0.3,0.01-0.42,0.01c-34.35,0-68.71,0-103.07-0.01H5.83c-0.05,0-0.12,0-0.17,0C5.64,140.05,5.62,140.01,5.61,139.99z"/>
	<path class="st0" d="M98.56,135.26c0.01,0,0.02,0,0.03,0c1.91-0.01,3.7-0.76,5.03-2.11c1.33-1.35,2.06-3.15,2.05-5.07
		c-0.02-1.9-0.78-3.68-2.14-5.02c-1.37-1.34-3.13-2.05-5.08-2.04c-3.64,0.04-6.64,2.85-7,6.41l-0.04,0.72c0,1.89,0.75,3.68,2.1,5.03
		C94.88,134.52,96.67,135.26,98.56,135.26z M97.03,128.14c0.01-0.43,0.18-0.83,0.47-1.11c0.29-0.28,0.67-0.42,1.08-0.42
		c0.01,0,0.01,0,0.02,0c0.82,0.02,1.49,0.72,1.5,1.54c-0.01,0.42-0.17,0.8-0.48,1.09c-0.3,0.29-0.67,0.47-1.11,0.44
		c-0.4-0.01-0.77-0.17-1.06-0.47C97.17,128.91,97.02,128.53,97.03,128.14z"/>
</g>
</svg>
