<?xml version="1.0" encoding="UTF-8"?>
<svg id="Capa_1" data-name="Capa 1" xmlns="http://www.w3.org/2000/svg" version="1.1" viewBox="0 0 194.6 149.6">
  <defs>
    <style>
      .cls-1 {
        fill: #fff;
        stroke-width: 0px;
      }
    </style>
  </defs>
  <path class="cls-1" d="M67.3,145.1c-6.9,0-13.8-2.9-19-8.1-4.7-4.7-7.7-10.9-8.4-17.5-12.2,5.7-27.1,2.9-34.8-7.1-4.5-5.9-6.2-13.8-4.5-21.8,1.5-7.4,5.7-13.9,11.7-18.4C1.8,64.2-2.2,50.1,3.2,38.4c3.1-6.7,9.2-11.9,16.7-14.2,6.6-2,13.7-1.6,20,1,.6-6.1,3.2-11.8,7.5-16.4C52.4,3.5,59.2.3,66.2,0c7.4-.3,14.8,2.8,20.2,8.4,4.6,4.7,7.3,10.8,7.9,17.2,5.6-2.7,11.9-3.5,18.2-2.3,7.3,1.5,13.7,5.7,17.5,11.6,4.1,6.3,5.2,14.3,3,21.9-1.8,6.5-5.8,12.1-11.3,15.9,5.2,3.7,9,9.2,10.8,15.5,2.1,7.5,1,15.4-3,21.7-3.8,6-10.2,10.3-17.4,11.8-6.1,1.3-12.3.5-17.8-2.1-1.4,13.5-12.2,24.7-25.5,25.4-.5,0-1,0-1.4,0ZM45.2,110.5l-.3,5c-.3,6.7,2.2,13.2,7,18,4.5,4.5,10.6,6.9,16.5,6.6,12-.7,21.5-11.9,20.8-24.5l-.3-5.2,4.3,2.9c5.2,3.6,11.6,4.8,17.8,3.5,5.9-1.2,11.1-4.7,14.1-9.6,3.2-5.1,4.1-11.5,2.4-17.6-1.8-6.3-6.1-11.7-12-14.6l-4.6-2.3,4.6-2.3c6.1-3,10.6-8.4,12.4-15,1.7-6.2.9-12.7-2.4-17.8-3.1-4.8-8.3-8.2-14.2-9.4-6.4-1.3-12.8,0-18.2,3.8l-4.3,3,.4-5.3c.4-6.6-1.9-13.1-6.6-17.9-4.4-4.6-10.4-7.1-16.4-6.9-5.6.2-11.1,2.8-15.1,7.1-4.3,4.6-6.5,10.6-6.2,16.9l.2,4.7-4-2.4c-5.9-3.5-13.1-4.4-19.6-2.4-6.1,1.9-11.1,6.1-13.6,11.5-4.8,10.3-.1,23.6,10.4,29.6l3.9,2.2-3.9,2.2c-6.5,3.6-11.1,9.9-12.6,17.1-1.3,6.5,0,13,3.6,17.7,7,9.1,21.2,10.8,31.9,3.8l4.2-2.8Z"/>
  <path class="cls-1" d="M66.9,101.8c-16,0-28.9-13-28.9-28.9s13-28.9,28.9-28.9,28.9,13,28.9,28.9-13,28.9-28.9,28.9ZM66.9,49.1c-13.2,0-23.8,10.7-23.8,23.8s10.7,23.8,23.8,23.8,23.8-10.7,23.8-23.8c0-13.1-10.7-23.8-23.8-23.8Z"/>
  <path class="cls-1" d="M194.6,9.4c0-4.4-2.4-6.8-6.8-6.8h-29.8c-4.4,0-6.8,2.4-6.8,6.8v86.7c0,15.7,0,31.3,0,47,0,4,2.5,6.5,6.5,6.5h16.4c4.6,0,9.2,0,13.8,0,4.3,0,6.7-2.4,6.7-6.7V9.4ZM156.5,139.6c0-.3,0-.6,0-.9h.2c.8,0,1.5,0,2.2,0,3.2.2,4.4-.5,4.5-2.6,0-.8-.1-1.4-.5-1.8-.7-.8-2.1-.9-4-.9h-2.4v-.4c0-1.4,0-2.8,0-4.1,0,0,0,0,.1,0,1.8,0,3.6,0,5.4,0h2c.2,0,.4,0,.6,0,1.8,0,3-1.1,3-2.7,0-1.6-1.2-2.7-3-2.7-1.7,0-3.4,0-5.2,0h-2.9v-4.6h3.3c.4,0,.7,0,1.1,0,1.5-.2,2.6-1.2,2.5-2.7,0-1.5-1.1-2.6-2.6-2.6-1.4,0-2.8,0-4.3,0h-.1c0-1.3,0-2.6,0-3.9v-.7h7.8c3,0,3.4-1.8,3.4-2.6,0-.9-.3-1.5-.6-1.8-.6-.6-1.5-.9-2.8-.9-1.7,0-3.4,0-5.2,0h-2.6v-4.6h.6c1.2,0,2.4,0,3.6,0,.9,0,1.7-.4,2.2-1.1.5-.6.6-1.4.4-2.2-.3-1.3-1.3-2.1-2.8-2.1-1.1,0-2.3,0-3.4,0h-.6v-4.6h5.8c.8,0,1.6,0,2.4,0,1.7,0,2.9-1.1,2.8-2.7,0-1.6-1.2-2.6-2.9-2.6-1.7,0-3.4,0-5.1,0h-3.1v-4.6h3.2c.4,0,.8,0,1.2,0,1.5-.1,2.6-1.2,2.5-2.7,0-1.5-1.1-2.6-2.6-2.6-.9,0-1.8,0-2.7,0-.4,0-.8,0-1.2,0h-.4v-4.6h4.3c1.3,0,2.6,0,3.9,0,.9,0,1.7-.3,2.2-.9.5-.5.7-1.2.7-1.9,0-1.6-1.2-2.6-2.9-2.6-1.8,0-3.7,0-5.5,0h-2.7v-4.6h.6c1.2,0,2.4,0,3.6,0,1.5,0,2.6-1.1,2.7-2.6,0-1.5-1-2.6-2.6-2.7-.3,0-.5,0-.8,0h-3.5v-4.6h6.1c.8,0,1.5,0,2.2,0,1.6,0,2.8-1.1,2.8-2.6,0-.7-.2-1.4-.7-1.9-.5-.5-1.3-.8-2.1-.8-1.9,0-3.9,0-5.8,0h-2.5v-4.6h.6c1.2,0,2.3,0,3.5,0,1.1,0,2.1-.6,2.5-1.5.4-.8.4-1.6,0-2.4-.4-.7-1.5-1.3-2.4-1.4-1.2,0-2.4,0-3.6,0-.2,0-.4,0-.6,0,0-.2,0-.4,0-.6,0-8,0-16,0-24,0-1.3,0-1.4,1.4-1.4h29.8c1.4,0,1.5,0,1.5,1.5,0,44.4,0,88.8,0,133.1v.3c0,.2,0,.6,0,.8-.2.3-.7.5-.9.6-8.4,0-17,0-25.3,0h-5.6c-.9,0-.9-.3-.9-.5,0-1.4,0-2.7,0-4.2Z"/>
  <path class="cls-1" d="M172.9,31.5c2.2,0,4.3-.9,5.8-2.4,1.6-1.6,2.4-3.7,2.4-5.9,0-2.2-.9-4.3-2.4-5.8-1.6-1.6-3.7-2.4-5.9-2.4-2.2,0-4.3.9-5.8,2.5-1.6,1.6-2.4,3.7-2.4,5.9,0,4.5,3.8,8.2,8.3,8.2t0,0ZM170.8,25.2c-.5-.6-.8-1.3-.8-2.1,0-1.6,1.4-2.8,2.9-2.9.8,0,1.5.3,2.1.9.6.6.9,1.3.8,2.1,0,1.6-1.4,2.9-2.9,2.8-.8,0-1.5-.3-2.1-.9Z"/>
</svg>