<?xml version="1.0" encoding="utf-8"?>
<!-- Generator: Adobe Illustrator 28.2.0, SVG Export Plug-In . SVG Version: 6.00 Build 0)  -->
<svg version="1.1" id="Capa_1" xmlns="http://www.w3.org/2000/svg" xmlns:xlink="http://www.w3.org/1999/xlink" x="0px" y="0px"
	 viewBox="0 0 117.3 145.49" style="enable-background:new 0 0 117.3 145.49;" xml:space="preserve">
<style type="text/css">
	.st0{fill:#FFFFFF;}
</style>
<path class="st0" d="M0.1,55.59c0.6,10.5,9.1,19.3,19.9,20.9c-1.8,4.3-2.3,9.1-1.3,13.8c1.2,6,4.8,11.2,9.7,14.4
	c5.2,3.3,11.7,4.2,17.9,2.5c4.8-1.3,9.1-4.2,12.1-8.1c3.1,4.1,7.5,7.1,12.5,8.5c2.1,0.6,4.2,0.9,6.3,0.9c4.2,0,8.3-1.2,11.7-3.4
	c4.9-3.2,8.4-8.4,9.6-14.5c0.9-4.8,0.4-9.6-1.5-14c4.9-0.7,9.6-2.9,13.2-6.4c4.6-4.5,7.1-10.6,6.9-16.7c-0.2-5.7-2.8-11.4-7.2-15.4
	c-3.5-3.3-7.9-5.3-12.6-6c1.9-5,2-10.5,0.5-15.6c-1.9-6.2-6.2-11.2-11.7-13.8c-9.2-4.3-20.5-1.5-27.3,6.7c-3.7-4.6-8.8-7.7-14.5-8.9
	c-6.6-1.3-13.1,0-18,3.7c-7.9,6-10.5,17.8-6.3,27.8c-5,0.7-9.7,3.1-13.4,6.7c-4.2,4.2-6.6,10-6.6,15.7c0,0.3,0,0.5,0,0.8L0.1,55.59z
	 M24.5,37.39l5.5,0.3l-3-4.6c-5.3-8.1-4-19.1,2.9-24.4c3.5-2.8,8.5-3.8,13.5-2.7c5.6,1.1,10.4,4.7,13.2,9.7l2.4,4.3l2.4-4.3
	c4.6-8.1,14.8-11.6,22.6-8c4.1,1.9,7.3,5.7,8.7,10.4c1.5,5,0.9,10.5-1.8,15.1l-2.6,4.4l5.1-0.2c4.8-0.2,9.4,1.5,13,4.8
	c3.3,3.1,5.3,7.3,5.5,11.5c0.2,4.6-1.8,9.1-5.3,12.5c-3.7,3.5-8.7,5.4-13.7,5l-5.8-0.4l3.3,4.7c2.8,4.1,3.9,9,2.9,13.9
	c-0.9,4.6-3.5,8.5-7.2,10.9c-3.9,2.5-8.8,3.2-13.6,1.8c-5-1.4-9.2-4.9-11.5-9.5l-2.5-5l-2.5,5c-2.2,4.5-6.3,7.8-11.2,9.1
	c-4.7,1.3-9.6,0.6-13.4-1.8c-3.7-2.3-6.3-6.3-7.3-10.8c-1-4.8,0-9.6,2.7-13.6l3.2-4.7l-5.6,0.3c-9.6,0.6-18.2-6.7-18.8-15.9
	c-0.3-4.5,1.6-9.1,5-12.6C14.3,38.99,19.4,37.09,24.5,37.39z"/>
<path class="st0" d="M58.5,77.89c13.1,0,23.8-10.7,23.8-23.8s-10.7-23.8-23.8-23.8s-23.8,10.7-23.8,23.8S45.3,77.89,58.5,77.89z
	 M40.2,54.09c0-10.1,8.2-18.3,18.3-18.3c10.1,0,18.3,8.2,18.3,18.3s-8.2,18.3-18.3,18.3C48.4,72.29,40.2,64.09,40.2,54.09z"/>
<path class="st0" d="M111.8,119.99H5.6c-3,0-5.5,2.5-5.5,5.5v14.5c0,3,2.5,5.5,5.5,5.5h106.2c3,0,5.5-2.5,5.5-5.5v-14.6
	C117.3,122.39,114.9,119.99,111.8,119.99z M112.1,139.99c0,0.2-0.1,0.3-0.3,0.3H5.6c-0.2,0-0.3-0.1-0.3-0.3v-14.6
	c0-0.2,0.1-0.3,0.3-0.3h10.5v5c0,1.4,1.2,2.6,2.6,2.6s2.6-1.2,2.6-2.6v-5h10.8v5c0,1.4,1.2,2.6,2.6,2.6s2.6-1.2,2.6-2.6v-5h10.9v5
	c0,1.4,1.2,2.6,2.6,2.6s2.6-1.2,2.6-2.6v-5h10.8v5c0,1.4,1.2,2.6,2.6,2.6s2.6-1.2,2.6-2.6v-5h10.8v5c0,1.4,1.2,2.6,2.6,2.6
	s2.6-1.2,2.6-2.6v-5h10.8v5c0,1.4,1.2,2.6,2.6,2.6s2.6-1.2,2.6-2.6v-5H112c0.2,0,0.3,0.1,0.3,0.3v14.6H112.1z"/>
</svg>
