<?xml version="1.0" encoding="utf-8"?>
<!-- Generator: Adobe Illustrator 28.2.0, SVG Export Plug-In . SVG Version: 6.00 Build 0)  -->
<svg version="1.1" id="Capa_1" xmlns="http://www.w3.org/2000/svg" xmlns:xlink="http://www.w3.org/1999/xlink" x="0px" y="0px"
	 viewBox="0 0 109.47 110.04" style="enable-background:new 0 0 109.47 110.04;" xml:space="preserve">
<style type="text/css">
	.st0{fill:#C9C04B;}
</style>
<path class="st0" d="M107.28,55.34L93.31,37.39c-0.57-0.31-1.24-0.46-1.92-0.4c-1.27,0.12-2.15,1.01-2.8,2.04
	c-1.34,2.11-2.19,4.4-4.04,6.15c-2.98,2.82-7.34,2.84-10.66,0.59c-3.07-2.07-5.03-5.82-5.13-9.52c-0.07-0.6-0.09-1.21-0.06-1.81
	c0.2-3.87,2.82-7.52,6.71-8.33c1.1-0.23,2.22-0.25,3.34-0.22c0.99,0.03,2.47,0.32,3.3-0.37c0.41-0.33,0.6-0.76,0.65-1.23
	c-0.17-0.81-0.57-1.67-0.93-2.43L67.95,3.3c-2.7-3.62-7.82-4.38-11.45-1.68L37.49,15.76c-1.53,0.52-4.48,2.65-5.89,0.94
	c-0.69-0.83-0.41-2.31-0.39-3.3c0.02-1.12,0-2.24-0.24-3.34c-0.84-3.89-4.51-6.48-8.38-6.65c-3.97-0.17-8.13,1.88-10.34,5.2
	c-2.22,3.33-2.17,7.7,0.67,10.66c1.77,1.85,4.07,2.67,6.18,4c1.03,0.64,1.93,1.52,2.06,2.79c0.09,0.85-0.16,1.68-0.65,2.34
	L4.23,40.5c-4.65,3.46-5.61,10.03-2.16,14.68l37.48,50.39c3.47,4.67,10.07,5.64,14.74,2.16l15.72-11.69
	c0.15,0.04,0.29,0.08,0.43,0.14c1.18,0.47,1.77,1.59,2.1,2.75c0.69,2.4,0.84,4.84,2.12,7.05c2.05,3.55,6.23,4.81,10.05,3.61
	c3.81-1.2,6.93-4.62,7.87-8.48c0.92-3.76-0.56-8.01-4.05-9.9c-0.99-0.53-2.06-0.87-3.14-1.16c-0.96-0.26-2.45-0.4-3.06-1.29
	c-0.38-0.56-0.38-1.17-0.15-1.77l24.56-18.27l0,0C110.16,64.98,110.39,59.33,107.28,55.34z"/>
</svg>
