<?xml version="1.0" encoding="utf-8"?>
<!-- Generator: Adobe Illustrator 28.2.0, SVG Export Plug-In . SVG Version: 6.00 Build 0)  -->
<svg version="1.1" id="Capa_1" xmlns="http://www.w3.org/2000/svg" xmlns:xlink="http://www.w3.org/1999/xlink" x="0px" y="0px"
	 viewBox="0 0 107.4 145.6" style="enable-background:new 0 0 107.4 145.6;" xml:space="preserve">
<style type="text/css">
	.st0{fill:#FFFFFF;}
</style>
<g>
	<path class="st0" d="M79.5,14.2c0.5-0.8,0.9-1.6,1.4-2.3c0.5-0.8,1.8-1.5,2.8-1.5c5.3-0.1,10.6-0.1,15.9,0c4.3,0.1,7.8,3.6,7.8,7.9
		c0,40.2,0,80.5,0,120.7c0,3.8-2.6,6.4-6.3,6.6c-0.6,0-1.2,0-1.7,0c-30.4,0-60.9,0-91.3,0c-5.9,0-8.1-2.2-8.1-8.1
		C0,98.1,0,58.8,0,19.4c0-5,4.1-9.1,9.1-9.1c4.7,0,9.4,0,14.1,0c1.5,0,2.9,0.8,3.6,2.2c0.3,0.5,0.6,1.1,1,1.6c0.6,0.9,0,2-1.1,2l0,0
		c-6.1,0-12.3,0.1-18.4,0c-1.7,0-2.4,0.4-2.4,2.3c0,39.7,0,79.5,0,119.2c0,1.8,0.5,2.3,2.3,2.3c30.3-0.1,60.6-0.1,90.9,0
		c1.8,0,2.4-0.5,2.4-2.3c-0.1-39.7-0.1-79.3,0-119c0-2-0.6-2.5-2.6-2.5c-6,0.1-12.1,0.1-18.3,0C79.6,16.2,79,15.1,79.5,14.2z"/>
	<path class="st0" d="M62.9,7.1h10.5c1.6,0,2.8,1.5,2.5,3c-1.1,5.3-6.1,9.8-11.8,9.9c-6.9,0.2-13.8,0.2-20.7,0
		c-5.8-0.1-10.6-4.4-11.8-9.9C31.2,8.5,32.5,7,34.1,7H39h5.7c1.1,0,2-0.7,2.4-1.7c1.5-3.9,3.7-5.4,7-5.3c3.2,0.1,5.2,1.7,6.5,5.4
		C60.8,6.4,61.8,7.1,62.9,7.1z M53.8,10c1.6,0,3-1.5,3-3.1c0-1.7-1.4-3-3.1-2.9c-1.7,0-3,1.4-2.9,3C50.7,8.6,52.2,10,53.8,10z"/>
	<path class="st0" d="M68,121.6c-6.5,0-13.1,0-19.6,0c-2.3,0-3.5-1.8-2.4-3.3c0.4-0.6,1.4-1,2.2-1c13.2-0.1,26.5-0.1,39.7-0.1
		c1.4,0,2.5,0.6,2.5,2.1c0,1.7-1.2,2.3-2.8,2.3C81.1,121.6,74.6,121.6,68,121.6z"/>
	<path class="st0" d="M68,46.7c6.5,0,13.1,0,19.7,0c2.1,0,3.5,1.5,2.6,2.8c-0.5,0.8-1.9,1.5-2.9,1.5c-8.1,0.1-16.1,0.1-24.2,0.1
		c-4.8,0-9.6,0.1-14.5-0.1c-1,0-2.4-0.8-2.9-1.6c-0.8-1.4,0.6-2.7,2.7-2.7C55,46.6,61.5,46.7,68,46.7z"/>
	<path class="st0" d="M68,98c-6.4,0-12.8,0-19.2,0c-1.6,0-3.1-0.2-3.1-2.1c0-2,1.5-2.3,3.2-2.3c12.9,0,25.8,0,38.7,0
		c2,0,3.2,1,2.9,2.5c-0.3,1.6-1.5,1.8-3,1.8C81,98,74.5,98,68,98z"/>
	<path class="st0" d="M68,74.6c-6.4,0-12.8,0-19.2,0c-1.6,0-3.1-0.3-3.1-2.1c0-2,1.5-2.3,3.2-2.3c12.8,0,25.6,0,38.5,0
		c1.6,0,3.1,0.2,3.1,2.1c0,2-1.5,2.3-3.2,2.3C80.8,74.5,74.4,74.6,68,74.6z"/>
	<path class="st0" d="M20.4,112.8c0.5-0.3,1.1-0.2,1.6,0.1c0.7,0.4,0.8,0.7,1.6,1.2c1.2,0.8,1.8,1.2,2.9,0.2
		c2.1-1.8,4.2-3.6,6.4-5.3c0.3-0.3,0.7-0.5,1.1-0.6c0.1,0,0.3,0,0.4,0c1.2-0.1,2.3,1,2,2.2c0,0.2-0.1,0.3-0.2,0.5
		c-1,1.4-2.5,2.6-3.7,3.9c-1.9,1.9-3.8,3.8-5.6,5.7c-1.3,1.4-2.5,1.4-3.9,0c-1.2-1.2-2.6-2.3-3.6-3.7c-0.5-0.7-0.8-1.7-0.5-2.4
		C19.1,113.9,19.6,113.2,20.4,112.8z"/>
	<path class="st0" d="M20.3,89.2c0.5-0.3,1.1-0.2,1.6,0.1c0.7,0.4,0.8,0.7,1.6,1.2c1.2,0.8,1.8,1.2,2.9,0.2c2.1-1.8,4.2-3.6,6.4-5.3
		c0.3-0.3,0.7-0.5,1.1-0.6c0.1,0,0.3,0,0.4,0c1.2-0.1,2.3,1,2,2.2c0,0.2-0.1,0.3-0.2,0.5c-1,1.4-2.5,2.6-3.7,3.9
		c-1.9,1.9-3.8,3.8-5.6,5.7c-1.3,1.4-2.5,1.4-3.9,0c-1.2-1.2-2.6-2.3-3.6-3.7c-0.5-0.7-0.8-1.7-0.5-2.4C19,90.3,19.5,89.6,20.3,89.2
		z"/>
	<path class="st0" d="M20.4,66.4c0.5-0.3,1.1-0.2,1.6,0.1c0.7,0.4,0.8,0.7,1.6,1.2c1.2,0.8,1.8,1.2,2.9,0.2c2.1-1.8,4.2-3.6,6.4-5.3
		c0.3-0.3,0.7-0.5,1.1-0.6c0.1,0,0.3,0,0.4,0c1.2-0.1,2.3,1,2,2.2c0,0.2-0.1,0.3-0.2,0.5c-1,1.4-2.5,2.6-3.7,3.9
		c-1.9,1.9-3.8,3.8-5.6,5.7c-1.3,1.4-2.5,1.4-3.9,0c-1.2-1.2-2.6-2.3-3.6-3.7c-0.5-0.7-0.8-1.7-0.5-2.4
		C19.1,67.5,19.6,66.8,20.4,66.4z"/>
	<path class="st0" d="M20.4,43.6c0.5-0.3,1.1-0.2,1.6,0.1c0.7,0.4,0.8,0.7,1.6,1.2c1.2,0.8,1.8,1.2,2.9,0.2c2.1-1.8,4.2-3.6,6.4-5.3
		c0.3-0.3,0.7-0.5,1.1-0.6c0.1,0,0.3,0,0.4,0c1.2-0.1,2.3,1,2,2.2c0,0.2-0.1,0.3-0.2,0.5c-1,1.4-2.5,2.6-3.7,3.9
		c-1.9,1.9-3.8,3.8-5.6,5.7c-1.3,1.4-2.5,1.4-3.9,0c-1.2-1.2-2.6-2.3-3.6-3.7c-0.5-0.7-0.8-1.7-0.5-2.4C19.1,44.7,19.6,44,20.4,43.6
		z"/>
</g>
</svg>
