<?xml version="1.0" encoding="UTF-8"?>
<svg id="Capa_1" data-name="Capa 1" xmlns="http://www.w3.org/2000/svg" version="1.1" viewBox="0 0 108.4 147">
  <defs>
    <style>
      .cls-1 {
        fill: #fff;
        stroke-width: 0px;
      }
    </style>
  </defs>
  <path class="cls-1" d="M80.2,14.4c.5-.8.9-1.6,1.4-2.3.5-.8,1.8-1.5,2.8-1.5,5.3,0,10.7,0,16.1,0,4.4,0,7.9,3.6,7.9,8,0,40.6,0,81.2,0,121.8,0,3.8-2.6,6.4-6.4,6.6-.6,0-1.2,0-1.8,0H8.2C2.2,147,0,144.7,0,138.8c0-39.7,0-79.4,0-119.2s4.1-9.1,9.2-9.1,9.5,0,14.3,0c1.5,0,2.9.9,3.7,2.2.3.5.6,1.1,1,1.6.6.9,0,2-1.1,2h0c-6.2,0-12.4,0-18.5,0-1.8,0-2.4.4-2.4,2.3,0,40.1,0,80.2,0,120.3,0,1.8.6,2.3,2.4,2.3,30.6,0,61.1,0,91.7,0,1.8,0,2.4-.5,2.4-2.3,0-40,0-80,0-120,0-2.1-.6-2.6-2.6-2.5-6.1.1-12.2,0-18.4,0-1,0-1.7-1.1-1.2-2Z"/>
  <path class="cls-1" d="M63.5,7.1h10.6c1.6,0,2.8,1.5,2.5,3-1.1,5.3-6.2,9.9-11.9,10-7,.2-14,.2-20.9,0-5.8-.1-10.7-4.5-11.9-10-.4-1.6.9-3.1,2.5-3.1h10.6c1.1,0,2-.7,2.4-1.7C48.9,1.5,51.1-.1,54.5,0c3.2.1,5.3,1.7,6.6,5.4.3,1,1.4,1.7,2.4,1.7ZM54.3,10.1c1.6,0,3-1.5,3-3.1,0-1.7-1.4-3-3.1-3-1.7,0-3,1.4-3,3.1,0,1.7,1.5,3.1,3.1,3Z"/>
  <path class="cls-1" d="M68.6,122.6c-6.6,0-13.2,0-19.8,0-2.3,0-3.5-1.8-2.4-3.3.4-.6,1.4-1,2.2-1,13.4,0,26.7,0,40.1,0s2.5.6,2.5,2.1c0,1.8-1.2,2.3-2.8,2.3-6.6,0-13.2,0-19.8,0Z"/>
  <path class="cls-1" d="M68.6,47.1c6.6,0,13.2,0,19.8,0,2.1,0,3.5,1.5,2.7,2.8-.5.8-1.9,1.5-3,1.5-8.1.1-16.3,0-24.4,0s-9.7,0-14.6,0c-1,0-2.4-.8-2.9-1.6-.8-1.4.6-2.7,2.8-2.7,6.5,0,13.1,0,19.6,0Z"/>
  <path class="cls-1" d="M68.7,98.9c-6.5,0-12.9,0-19.4,0-1.6,0-3.1-.2-3.2-2.1,0-2,1.5-2.3,3.2-2.3,13,0,26,0,39,0,2.1,0,3.3,1,3,2.6-.3,1.6-1.5,1.9-3,1.9-6.5,0-13.1,0-19.6,0Z"/>
  <path class="cls-1" d="M68.6,75.2c-6.5,0-12.9,0-19.4,0-1.6,0-3.1-.3-3.1-2.2,0-2.1,1.5-2.3,3.2-2.3,12.9,0,25.9,0,38.8,0,1.6,0,3.1.2,3.2,2.1,0,2-1.5,2.3-3.2,2.3-6.5,0-12.9,0-19.4,0Z"/>
  <path class="cls-1" d="M20.6,113.8c.5-.3,1.1-.2,1.6,0,.7.4.8.7,1.6,1.2,1.2.8,1.8,1.2,2.9.2,2.1-1.8,4.3-3.6,6.4-5.4.3-.3.7-.5,1.1-.6.1,0,.3,0,.4,0,1.2,0,2.3,1,2,2.2,0,.2-.1.3-.2.5-1.1,1.4-2.5,2.6-3.8,3.9-1.9,1.9-3.8,3.8-5.6,5.7-1.3,1.4-2.6,1.4-3.9,0-1.2-1.2-2.6-2.3-3.7-3.7-.5-.7-.8-1.8-.5-2.4.3-.6.8-1.3,1.6-1.7Z"/>
  <path class="cls-1" d="M20.5,90c.5-.3,1.1-.2,1.6,0,.7.4.8.7,1.6,1.2,1.2.8,1.8,1.2,2.9.2,2.1-1.8,4.3-3.6,6.5-5.4.3-.3.7-.5,1.1-.6.1,0,.3,0,.4,0,1.2,0,2.3,1,2,2.2,0,.2-.1.3-.2.5-1.1,1.4-2.5,2.6-3.8,3.9-1.9,1.9-3.8,3.8-5.6,5.7-1.3,1.4-2.6,1.4-3.9,0-1.2-1.2-2.6-2.3-3.7-3.7-.5-.7-.8-1.8-.5-2.4.3-.6.8-1.3,1.6-1.7Z"/>
  <path class="cls-1" d="M20.6,67c.5-.3,1.1-.2,1.6,0,.7.4.8.7,1.6,1.2,1.2.8,1.8,1.2,2.9.2,2.1-1.8,4.3-3.6,6.4-5.4.3-.3.7-.5,1.1-.6.1,0,.3,0,.4,0,1.2,0,2.3,1,2,2.2,0,.2-.1.3-.2.5-1.1,1.4-2.5,2.6-3.8,3.9-1.9,1.9-3.8,3.8-5.6,5.7-1.3,1.4-2.6,1.4-3.9,0-1.2-1.2-2.6-2.3-3.7-3.7-.5-.7-.8-1.8-.5-2.4.3-.6.8-1.3,1.6-1.7Z"/>
  <path class="cls-1" d="M20.6,44c.5-.3,1.1-.2,1.6,0,.7.4.8.7,1.6,1.2,1.2.8,1.8,1.2,2.9.2,2.1-1.8,4.3-3.6,6.4-5.4.3-.3.7-.5,1.1-.6.1,0,.3,0,.4,0,1.2,0,2.3,1,2,2.2,0,.2-.1.3-.2.5-1.1,1.4-2.5,2.6-3.8,3.9-1.9,1.9-3.8,3.8-5.6,5.7-1.3,1.4-2.6,1.4-3.9,0-1.2-1.2-2.6-2.3-3.7-3.7-.5-.7-.8-1.8-.5-2.4.3-.6.8-1.3,1.6-1.7Z"/>
</svg>