<?xml version="1.0" encoding="utf-8"?>
<!-- Generator: Adobe Illustrator 28.2.0, SVG Export Plug-In . SVG Version: 6.00 Build 0)  -->
<svg version="1.1" id="Capa_1" xmlns="http://www.w3.org/2000/svg" xmlns:xlink="http://www.w3.org/1999/xlink" x="0px" y="0px"
	 viewBox="0 0 116.71 127.68" style="enable-background:new 0 0 116.71 127.68;" xml:space="preserve">
<style type="text/css">
	.st0{fill:#C9C04B;}
</style>
<path class="st0" d="M0,67.72c14.59,4.14,29.45,7.41,44.21,10.89c-3.27,11.58-6.78,23.13-10.16,34.66c-0.05,0.47-0.11,0.94-0.17,1.4
	c7.27-7.91,13.99-16.37,21.61-23.99c2.31,8.2,4.96,16.96,7.36,25.15c1.01,3.42,2.03,6.89,3.03,10.32l-0.28,1.53
	c3.72-11.36,5.63-23.38,7.55-35.16c8.41,3.85,16.74,7.9,25.3,11.41c-0.09-0.04-0.18-0.07-0.26-0.11c1.64,0.68,3.29,1.34,4.95,1.98
	c-2.5-3.72-4.53-7.78-7.22-11.35c-4.65-5.57-9.46-11.17-14.17-16.69c12.03-1.74,23.66-5.05,34.96-9.52
	c-10.02-3.61-20.46-6.35-30.83-8.77c2.74-3.66,5.35-7.48,8.04-11.17c3.56-4.79,5.61-10.51,8.57-15.67
	c-9.55,6.03-19.11,12.17-28.64,18.24c-1.22-12.35-3.01-24.6-4.65-36.89c-0.54-3.92-1.07-7.9-1.61-11.81
	C67.39,1.72,67.77,0.45,67.85,0c-0.09,0.27-0.19,0.54-0.28,0.81c-3.4,8.6-5.18,17.71-7.06,26.73c-1.65,7.31-3.35,14.66-5.11,21.94
	c-9.56-6.78-19.57-13.8-28.97-20.68c6.11,10.36,13.87,19.32,20.88,28.97c-5.04,0.85-10.35,1.96-15.42,2.63
	C20.97,61.53,10.56,64.9,0,67.72z"/>
</svg>
