<?xml version="1.0" encoding="utf-8"?>
<!-- Generator: Adobe Illustrator 28.2.0, SVG Export Plug-In . SVG Version: 6.00 Build 0)  -->
<svg version="1.1" id="Capa_1" xmlns="http://www.w3.org/2000/svg" xmlns:xlink="http://www.w3.org/1999/xlink" x="0px" y="0px"
	 viewBox="0 0 121.3 145.62" style="enable-background:new 0 0 121.3 145.62;" xml:space="preserve">
<style type="text/css">
	.st0{fill:#FFFFFF;}
</style>
<g>
	<path class="st0" d="M121.3,18.62c0-2.3,0-3.7-1-4.7s-2.6-0.9-4.7-0.8c-13.1,0.8-61.9,1-72.5,0c-1.4-0.1-1.9-0.3-2.5-1.4
		c-1.7-2.9-3.5-5.1-5.5-6.7c-6.9-5.5-14.7-6.5-22.6-2.9C4.3,5.92,0,12.82,0,22.12c0,33.8,0,68,0,101.4c0,12.7,9.3,21.9,22.2,22h4
		c4.2,0,8.5,0.1,12.9,0.1c3.9,0,7.8,0,11.6-0.1c3.6-0.1,54.6-0.5,60.2-0.2c1.8,0.1,3.6,0.1,5.4,0.2c1.9,0.1,3.1,0.1,4-0.8
		c1-0.9,1-2.3,1-4.1v-49V18.62z M5.7,97.82c0-24.9,0-50.7,0-76.1c0-7.2,4.7-13.4,11.6-15.3s14.1,0.9,17.6,6.8
		c1.5,2.6,2.5,5.7,2.5,8.2c0.2,24,0.1,48.4,0.1,72v16.5c-4.4-4.4-10-6.9-15.9-6.9h-0.1c-5.9,0-11.5,2.5-15.9,6.9L5.7,97.82z
		 M21.8,140.12c-4.3,0-8.4-1.6-11.4-4.6s-4.7-7-4.7-11.2c0-8.7,7.1-15.8,15.9-15.8c4.2,0,8.2,1.6,11.2,4.7c3,3,4.7,7,4.8,11.2
		C37.6,132.82,30.4,140.02,21.8,140.12z M115.7,138.52c-0.9,1.6-1.7,1.6-1.7,1.6l0,0c-1.8-0.1-3.6-0.1-5.3-0.1
		c-5.4,0-55.6,0.3-60.7,0.1c-2-0.1-4-0.1-6-0.1c-1.5,0-3.1,0-4.7,0c-0.4,0-0.8,0-1.3,0c4.7-4.3,7.1-9.4,7.1-15.4
		c0.1-30.6,0-61.7,0-91.7v-11.8c0-0.2,0-0.4,0-0.6c0-0.9,0.8-1.7,1.7-1.7c10.6,0.5,58.7-0.3,62.2-0.3c1.4,0,2.8,0,4.2,0.1
		c0.9,0,1.8,0,2.8,0c0.2,0,0.6,0,1,0.4c0.6,0.5,0.6,1.1,0.6,1.2v22.6C115.9,67.12,116.6,136.92,115.7,138.52z"/>
	<path class="st0" d="M21.7,116.62L21.7,116.62L21.7,116.62c-2.2,0-4.2,0.8-5.6,2.2c-1.4,1.4-2.2,3.4-2.2,5.5s0.8,4.1,2.2,5.5
		c1.5,1.4,3.4,2.2,5.6,2.2c4.2,0,7.6-3.3,7.8-7.5c0.1-2-0.7-4-2.1-5.5C25.9,117.52,23.9,116.62,21.7,116.62z M24.5,124.32
		c-0.1,1.5-1.3,2.8-2.9,2.8c-0.8,0-1.6-0.3-2.1-0.8s-0.8-1.2-0.8-2s0.3-1.5,0.8-2s1.3-0.8,2.1-0.8l0,0c0.8,0,1.6,0.3,2.1,0.9
		C24.3,122.92,24.6,123.62,24.5,124.32z"/>
</g>
</svg>
