<?xml version="1.0" encoding="UTF-8"?>
<svg id="Capa_1" data-name="Capa 1" xmlns="http://www.w3.org/2000/svg" version="1.1" viewBox="0 0 146.3 145.7">
  <defs>
    <style>
      .cls-1 {
        fill: #fff;
        stroke-width: 0px;
      }
    </style>
  </defs>
  <path class="cls-1" d="M146.2,18.5c0-2.3,0-3.7-1-4.7-1-1-2.6-.9-4.7-.8-13.1.8-25-1.6-36.2-7.3-2.9-1.5-6.2-1.8-9.4-2.2h-.8c-7.5-1-14.4,1.5-20.5,3.8-10,3.7-19.9,6.8-30.5,5.8-1.4-.1-1.9-.3-2.5-1.4-1.7-2.9-3.5-5.1-5.5-6.7C28.3-.5,20.5-1.5,12.5,2.2,4.4,5.9,0,12.9,0,22.2,0,56,0,90.1,0,123.6c0,12.7,9.3,21.9,22.2,22h4c4.2,0,8.5,0,12.9,0s7.8,0,11.6,0c3.6,0,7-.5,10-1.4,4.5-1.3,9-2.8,13.3-4.2,2.7-.9,5.4-1.8,8.1-2.6,7.4-2.3,14.5-2,21.7,1.1,1.1.5,2.2.9,3.2,1.4,3.8,1.7,7.7,3.4,11.8,4.1,5.7,1,11.5,1.2,17.1,1.4,1.8,0,3.6.1,5.4.2,1.9,0,3.1,0,4-.8,1-.9,1-2.3,1-4.1V18.5ZM5.7,97.7c0-24.9,0-50.7,0-76.1,0-7.2,4.7-13.4,11.6-15.3,6.9-1.9,14.1.9,17.6,6.8,1.5,2.6,2.5,5.7,2.5,8.2.2,24,.1,48.4.1,72v16.5c-4.4-4.4-10-6.9-15.9-6.9h-.1c-5.9,0-11.5,2.5-15.9,6.9v-12.1ZM21.8,140c-4.3,0-8.4-1.6-11.4-4.6-3-3-4.7-7-4.7-11.2,0-8.7,7.1-15.8,15.9-15.8,4.2,0,8.1,1.6,11.2,4.7,3,3,4.7,7,4.8,11.2,0,8.5-7.2,15.7-15.7,15.8ZM140.6,138.4c-.9,1.6-1.7,1.6-1.7,1.6h0c-1.8,0-3.6,0-5.3-.1-5.4,0-10.5,0-15.5-1.8-3.9-1.3-7.7-3-11.4-4.6l-.7-.3c-8.4-3.6-17.3-4-26.5-1-6,2-11.5,3.8-16.7,5.5-5,1.7-9.9,2.4-15,2.3-2,0-4,0-6,0s-3.1,0-4.7,0c-.4,0-.8,0-1.3,0,4.7-4.3,7.1-9.4,7.1-15.4,0-30.6,0-61.7,0-91.7v-12c0-.2,0-.4,0-.6,0-.9.8-1.7,1.7-1.7,10.6.5,20.4-2.5,27.9-5.2,5.3-1.9,10.1-3.3,14.6-4.3,4.8-1,10-.4,15.8,1.9l2.9,1.1c5,2,10.2,4,15.5,5.3,3.4.8,7,.9,10.5.9,1.4,0,2.8,0,4.2,0,.9,0,1.8,0,2.8,0,.2,0,.6,0,1,.4.6.5.6,1.1.6,1.2v22.6c.2,24.1.9,93.9,0,95.6Z"/>
  <path class="cls-1" d="M21.7,116.5h0c-2.1,0-4.1.8-5.6,2.2-1.4,1.4-2.2,3.4-2.2,5.5s.8,4.1,2.2,5.5c1.5,1.4,3.4,2.2,5.6,2.2,4.2,0,7.6-3.3,7.8-7.5,0-2-.7-4-2.1-5.5-1.5-1.5-3.5-2.4-5.6-2.4ZM24.5,124.2c0,1.5-1.3,2.8-2.9,2.8-.8,0-1.6-.3-2.1-.8-.5-.5-.8-1.2-.8-2s.3-1.5.8-2c.5-.5,1.3-.8,2.1-.8h0c.8,0,1.6.3,2.1.9.5.5.8,1.2.8,1.9Z"/>
</svg>