<?xml version="1.0" encoding="utf-8"?>
<!-- Generator: Adobe Illustrator 28.2.0, SVG Export Plug-In . SVG Version: 6.00 Build 0)  -->
<svg version="1.1" id="Capa_1" xmlns="http://www.w3.org/2000/svg" xmlns:xlink="http://www.w3.org/1999/xlink" x="0px" y="0px"
	 viewBox="0 0 110.9 125.4" style="enable-background:new 0 0 110.9 125.4;" xml:space="preserve">
<style type="text/css">
	.st0{fill:#C9C04B;}
</style>
<g>
	<path class="st0" d="M53.86,125.4c-11.94-0.19-25.36-1.29-38.15-6.05c-4.05-1.5-7.88-3.77-11.51-6.14
		c-2.96-1.94-4.36-5.03-4.18-8.77c0.86-18,13.04-32.83,30.58-36.93c1.27-0.3,2.99-0.07,4.1,0.58c13.89,8.14,27.7,8.12,41.58,0.01
		c1.02-0.6,2.51-0.96,3.64-0.73c17.4,3.55,30.58,19.52,30.98,37.09c0.11,4.57-2.13,7.49-5.51,9.89c-6.12,4.34-13.18,6.42-20.38,8.02
		C75.28,124.53,65.41,125.36,53.86,125.4z"/>
	<path class="st0" d="M56.86,63.48c-12.15-0.26-21.75-3.51-30.14-10.18c-1.03-0.82-1.97-1.77-2.84-2.76
		c-2.49-2.79-3.61-5.97-1.16-9.2c3.68-4.87,2.64-10.61,3.56-16.02C30.58-0.05,57.95-6.11,73.43,6.04
		c8.51,6.68,12.3,15.71,11.63,26.59c-0.08,1.3,0.38,2.7,0.86,3.94c0.63,1.61,1.56,3.09,2.3,4.66c2.05,4.35,1.76,6.31-1.6,9.82
		c-5.81,6.05-13.16,9.32-21.16,11.19C62.18,63,58.78,63.21,56.86,63.48z"/>
</g>
</svg>
