<?xml version="1.0" encoding="utf-8"?>
<!-- Generator: Adobe Illustrator 28.2.0, SVG Export Plug-In . SVG Version: 6.00 Build 0)  -->
<svg version="1.1" id="Capa_1" xmlns="http://www.w3.org/2000/svg" xmlns:xlink="http://www.w3.org/1999/xlink" x="0px" y="0px"
	 viewBox="0 0 406.9 410.4" style="enable-background:new 0 0 406.9 410.4;" xml:space="preserve">
<style type="text/css">
	.st0{fill:#FFFFFF;}
	.st1{fill:#3EC24F;}
</style>
<g>
	<path class="st0" d="M405.11,176.87c-5.24-39.93-21.39-76.25-49.55-108.06c-17.83-20.14-39.51-36.78-63.74-48.47
		C252.34,1.28,211.17-4.15,169.25,3.06C129.41,9.91,92.26,28.74,63.01,56.65c-27.98,26.7-46.74,59.12-56.57,97.1
		c-5.46,21.09-7.39,43.06-5.65,64.78c2.51,31.19,11.34,60.39,27.22,87.09c1,1.68,1.22,3.69,0.59,5.54
		c-3.38,9.77-6.59,19.61-9.9,29.41c-5.97,17.68-11.94,35.35-18.02,53.32c-3.29,9.72,5.89,19.04,15.66,15.9
		c0.08-0.02,0.15-0.05,0.23-0.07c28.83-9.24,57.65-18.5,86.53-27.59c1.48-0.47,3.63,0.04,5.1,0.81
		c37.9,19.94,78.19,27.32,120.58,22.13c41.27-5.06,77.98-21.71,109.71-49.79c20.81-18.42,37.81-41.02,49.45-66.26
		C404.62,252.84,410.15,215.22,405.11,176.87z"/>
	<g>
		<path class="st0" d="M102.14,151.76c0.07-16.61,7.54-31.69,21.63-43.43c2.56-2.13,6.13-3.89,9.37-4.17
			c5.53-0.46,11.31-0.23,16.71,0.96c2.45,0.54,5.13,3.69,6.2,6.28c4.43,10.7,8.28,21.64,12.35,32.5c0.79,2.1,1.33,4.34,2.43,6.25
			c4.16,7.22,1.33,13.23-3.2,18.83c-2.9,3.59-6.08,6.95-9.31,10.25c-4.82,4.92-5.1,6.23-1.71,12.35
			c12.2,22.02,28.48,40.27,50.11,53.42c5.74,3.49,11.79,6.47,17.82,9.45c5.1,2.52,7.5,2.05,11.27-2.15
			c5.5-6.12,10.89-12.33,16.16-18.64c3.85-4.61,6.11-5.24,12.77-1.98c8.62,4.22,17.11,8.7,25.6,13.17
			c5.07,2.67,10.04,5.54,15.07,8.28c2.84,1.55,4.08,3.94,3.86,7.1c-1.02,14.89-5.73,27.53-19.61,35.6
			c-15.87,9.23-32.15,12.12-49.71,5.77c-18.75-6.77-37.56-13.44-54.27-24.65c-19.69-13.2-36.22-29.77-50.01-48.96
			c-7.78-10.82-14.96-22.09-21.96-33.43C106.14,182.28,101.9,166.29,102.14,151.76z"/>
		<path class="st1" d="M49.15,354.56c5.91-17.47,11.65-34.48,17.57-51.47c0.09-0.25,0.04-0.52-0.11-0.73
			c-16.92-23.25-27.29-49.19-30.83-77.52c-4.55-36.36,2.05-71.75,20.88-105.27c5.95-10.58,13.16-20.46,21.4-29.38
			c24.98-27.08,54.72-44.49,88.95-51.9c43.12-9.33,84.51-2.76,123.85,20.26c15.84,9.26,30.01,21.3,41.7,35.44
			c22.4,27.07,35.56,57.53,39.1,91.6c3.32,31.98-1.83,62.45-15.88,91.28c-15.89,32.59-39.86,57.63-71.72,75.08
			c-27.26,14.93-56.43,21.41-87.41,20.28c-30.88-1.12-59.22-10.42-85.22-27.24c-0.56-0.36-1.21-0.48-1.85-0.26
			c-12.24,4.06-38.67,12.42-53.46,17.05C51.72,363.16,47.67,358.92,49.15,354.56z M102.14,151.76c-0.23,14.53,4,30.52,11.57,42.8
			c7,11.35,14.18,22.61,21.96,33.43c13.79,19.19,30.32,35.75,50.01,48.96c16.71,11.21,35.52,17.88,54.27,24.65
			c17.57,6.34,33.84,3.46,49.71-5.77c15.31-8.9,19.47-23.37,19.81-40.29c0-0.14-0.07-0.27-0.19-0.33
			c-6.38-3.34-12.58-7.01-18.95-10.36c-8.49-4.47-16.99-8.94-25.6-13.17c-6.66-3.26-8.92-2.63-12.77,1.98
			c-6.51,7.78-13.2,15.42-20.03,22.91c-0.58,0.63-1.51,0.8-2.28,0.42c-7.68-3.86-15.57-7.51-22.94-11.99
			c-21.63-13.14-37.9-31.39-50.11-53.42c-3.39-6.12-3.11-7.44,1.71-12.35c3.23-3.3,6.41-6.67,9.31-10.25
			c4.53-5.61,7.36-11.61,3.2-18.83c-1.1-1.91-1.64-4.15-2.43-6.25c-4.07-10.85-7.92-21.79-12.35-32.5c-1.07-2.59-3.74-5.74-6.2-6.28
			c-5.4-1.19-11.18-1.43-16.71-0.96c-3.24,0.27-6.81,2.03-9.37,4.17C109.68,120.07,102.21,135.15,102.14,151.76z"/>
	</g>
</g>
</svg>
